<svg width="48" height="49" viewBox="0 0 48 49" fill="none" xmlns="http://www.w3.org/2000/svg">
<g clip-path="url(#clip0)">
<path d="M24 48.547C17.5894 48.547 11.5625 46.04 7.02938 41.4876C2.49628 36.9352 0 30.8825 0 24.4444C0 18.0064 2.49638 11.9538 7.02938 7.4013C11.5624 2.84883 17.5894 0.341881 24 0.341881C30.4106 0.341881 36.4375 2.84892 40.9706 7.4013C45.5037 11.9537 48 18.0064 48 24.4444C48 30.8825 45.5036 36.9351 40.9706 41.4876C36.4376 46.0401 30.4106 48.547 24 48.547ZM24 3.3547C12.4206 3.3547 3 12.8155 3 24.4444C3 36.0734 12.4206 45.5342 24 45.5342C35.5794 45.5342 45 36.0734 45 24.4444C45 12.8155 35.5794 3.3547 24 3.3547Z" fill="white"/>
<path d="M24 34.9893C23.1716 34.9893 22.5 34.3148 22.5 33.4829C22.5 29.6805 23.9744 26.1058 26.6517 23.4171C28.3272 21.7343 29.25 19.4971 29.25 17.1174C29.25 14.5124 27.1398 12.3932 24.5459 12.3932H24.2041C21.6102 12.3932 19.5 14.5124 19.5 17.1174V17.6656C19.5 18.4975 18.8284 19.172 18 19.172C17.1716 19.172 16.5 18.4975 16.5 17.6656V17.1174C16.5 12.8511 19.956 9.38034 24.2041 9.38034H24.5459C28.794 9.38034 32.25 12.8511 32.25 17.1174C32.25 20.3018 31.0152 23.2957 28.773 25.5475C26.6623 27.6671 25.5 30.4853 25.5 33.4829C25.5 34.3148 24.8284 34.9893 24 34.9893Z" fill="white"/>
<path d="M24.0019 41.015C23.1735 41.015 22.5014 40.3405 22.5014 39.5085C22.5014 38.6766 23.1725 38.0021 24.0009 38.0021H24.0019C24.8303 38.0021 25.5019 38.6766 25.5019 39.5085C25.5019 40.3405 24.8303 41.015 24.0019 41.015Z" fill="white"/>
</g>
<defs>
<clipPath id="clip0">
<rect width="48" height="48.2051" fill="white" transform="translate(0 0.341881)"/>
</clipPath>
</defs>
</svg>
