<svg width="142" height="142" viewBox="0 0 142 142" fill="none" xmlns="http://www.w3.org/2000/svg">
<path d="M50.4592 68.6426V62.8704C50.4592 52.1059 59.1964 43.3696 69.96 43.3696C63.4849 43.3696 58.2595 38.1434 58.2595 31.6692C58.2595 25.1941 63.4849 19.9687 69.96 19.9687C76.435 19.9687 81.6604 25.1941 81.6604 31.6692C81.6604 38.1434 76.435 43.3696 69.96 43.3696C80.7244 43.3696 89.4607 52.1059 89.4607 62.8704V68.6426C98.899 62.3243 105.061 51.5599 105.061 39.4695C105.061 20.1239 89.3047 4.36816 69.96 4.36816C50.616 4.36816 34.8586 20.1239 34.8586 39.4695C34.8586 51.5599 41.0209 62.3243 50.4592 68.6426Z" fill="white"/>
<path d="M69.96 27.769C67.7751 27.769 66.0598 29.4843 66.0598 31.6692C66.0598 33.8533 67.7751 35.5693 69.96 35.5693C72.1449 35.5693 73.8601 33.8533 73.8601 31.6692C73.8601 29.4843 72.1449 27.769 69.96 27.769Z" fill="white"/>
<path d="M116.762 98.4917H112.862V86.7913C112.862 84.6364 111.117 82.8911 108.961 82.8911H73.8601V74.2369C76.5545 73.9338 79.1814 73.4398 81.6604 72.5427V62.8704C81.6604 56.3953 76.435 51.1699 69.96 51.1699C63.4849 51.1699 58.2595 56.3953 58.2595 62.8704V72.5427C60.7386 73.4398 63.3655 73.9338 66.0598 74.2369V82.8911H30.9585C28.8037 82.8911 27.0584 84.6364 27.0584 86.7913V98.4917H23.1582C21.0034 98.4917 19.2581 100.237 19.2581 102.392V117.992C19.2581 120.147 21.0034 121.893 23.1582 121.893H27.0584V133.593C27.0584 135.748 28.8037 137.493 30.9585 137.493C33.1141 137.493 34.8586 135.748 34.8586 133.593V121.893H38.7588C40.9144 121.893 42.6589 120.147 42.6589 117.992V102.392C42.6589 100.237 40.9144 98.4917 38.7588 98.4917H34.8586V90.6914H66.0598V98.4917H62.1597C60.0048 98.4917 58.2595 100.237 58.2595 102.392V117.992C58.2595 120.147 60.0048 121.893 62.1597 121.893H66.0598V133.593C66.0598 135.748 67.8051 137.493 69.96 137.493C72.1156 137.493 73.8601 135.748 73.8601 133.593V121.893H77.7603C79.9159 121.893 81.6604 120.147 81.6604 117.992V102.392C81.6604 100.237 79.9159 98.4917 77.7603 98.4917H73.8601V90.6914H105.061V98.4917H101.161C99.0063 98.4917 97.261 100.237 97.261 102.392V117.992C97.261 120.147 99.0063 121.893 101.161 121.893H105.061V133.593C105.061 135.748 106.807 137.493 108.961 137.493C111.117 137.493 112.862 135.748 112.862 133.593V121.893H116.762C118.917 121.893 120.662 120.147 120.662 117.992V102.392C120.662 100.237 118.917 98.4917 116.762 98.4917Z" fill="white"/>
</svg>
