<svg width="28" height="28" xmlns="http://www.w3.org/2000/svg">

 <g>
  <title>background</title>
  <rect fill="none" id="canvas_background" height="402" width="582" y="-1" x="-1"/>
 </g>
 <g>
  <title>Layer 1</title>
  <path id="svg_1" fill="#ffffff" d="m3,7c0,-0.55229 0.44772,-1 1,-1l20,0c0.5523,0 1,0.44771 1,1c0,0.55229 -0.4477,1 -1,1l-20,0c-0.55228,0 -1,-0.44771 -1,-1z"/>
  <path id="svg_2" fill="#ffffff" d="m3.041322,14c0,-0.5523 0.44772,-1 1,-1l20,0c0.5523,0 1,0.4477 1,1c0,0.5523 -0.4477,1 -1,1l-20,0c-0.55228,0 -1,-0.4477 -1,-1z"/>
  <path id="svg_3" fill="#ffffff" d="m4,20c-0.55228,0 -1,0.4477 -1,1c0,0.5523 0.44772,1 1,1l20,0c0.5523,0 1,-0.4477 1,-1c0,-0.5523 -0.4477,-1 -1,-1l-20,0z"/>
 </g>
</svg>