<svg width="44" height="44" viewBox="0 0 44 44" fill="none" xmlns="http://www.w3.org/2000/svg">
<path d="M40.1328 5.24219H3.86719C1.73748 5.24219 0 6.97778 0 9.10938V34.8906C0 37.015 1.72975 38.7578 3.86719 38.7578H40.1328C42.2572 38.7578 44 37.0281 44 34.8906V9.10938C44 6.985 42.2702 5.24219 40.1328 5.24219ZM39.5988 7.82031L22.082 25.3372L4.41366 7.82031H39.5988ZM2.57812 34.3568V9.63093L14.9943 21.9406L2.57812 34.3568ZM4.40112 36.1797L16.8251 23.7557L21.1784 28.0717C21.6824 28.5713 22.4956 28.5697 22.9975 28.0677L27.2422 23.823L39.5989 36.1797H4.40112ZM41.4219 34.3567L29.0652 22L41.4219 9.64322V34.3567Z" fill="white"/>
</svg>
