<svg width="31" height="32" viewBox="0 0 31 32" fill="#494364" xmlns="http://www.w3.org/2000/svg">
<path d="M5.84402 26.5817L4.53437 28.0923C3.99752 27.6261 3.4919 27.1252 3.02078 26.5927L4.52038 25.2691C4.93251 25.735 5.37471 26.1735 5.84402 26.5817Z" fill="black"/>
<path d="M3.37869 23.7935L1.71814 24.9082C1.32218 24.3173 0.965843 23.7008 0.651428 23.0627L2.44494 22.1799C2.72012 22.7379 3.03209 23.2769 3.37869 23.7935Z" fill="black"/>
<path d="M21.0896 31.1657C19.4516 31.7155 17.7354 31.9962 16.0075 31.9971C12.8893 32.0017 9.83833 31.091 7.23291 29.3778L8.33261 27.7072C10.6115 29.2057 13.2801 30.0021 16.0075 29.9976C23.7302 29.9903 29.9849 23.724 29.9777 16.0013C29.9704 8.27861 23.7041 2.024 15.9814 2.03119C8.2587 2.03837 2.00402 8.30479 2.01127 16.0275C2.0127 17.5327 2.25714 19.0279 2.73513 20.4552L0.835647 21.0911C-1.97522 12.716 2.53537 3.64799 10.9104 0.83707C19.2855 -1.97385 28.3534 2.53673 31.1644 10.9118C33.9753 19.2868 29.4646 28.3548 21.0896 31.1657Z" fill="black"/>
<path d="M16.0075 24C18.2788 23.9952 20.4411 23.026 21.9559 21.3337L23.4445 22.6673C19.7634 26.7825 13.4433 27.1345 9.32808 23.4533C5.21288 19.7723 4.86092 13.4521 8.54204 9.33693C12.2232 5.22173 18.5433 4.86983 22.6585 8.55089C22.9348 8.79814 23.1973 9.06057 23.4445 9.33693L21.9559 10.6706C19.0114 7.37808 13.9553 7.0961 10.6628 10.0406C7.37036 12.9851 7.08838 18.0413 10.0329 21.3337C11.5532 23.0337 13.727 24.0037 16.0075 24Z" fill="black"/>
</svg>
