<svg width="142" height="142" viewBox="0 0 142 142" fill="none" xmlns="http://www.w3.org/2000/svg">
<path d="M130.906 15.5312H11.0938C8.7409 15.5343 6.4853 16.4704 4.82158 18.1341C3.15786 19.7978 2.22183 22.0534 2.21875 24.4062V99.8438C2.22183 102.197 3.15786 104.452 4.82158 106.116C6.4853 107.78 8.7409 108.716 11.0938 108.719H56.8277L53.8685 117.594H46.5938C46.0053 117.594 45.441 117.828 45.0249 118.244C44.6088 118.66 44.375 119.224 44.375 119.812V124.25H24.4062C23.8178 124.25 23.2535 124.484 22.8374 124.9C22.4213 125.316 22.1875 125.88 22.1875 126.469C22.1875 127.057 22.4213 127.622 22.8374 128.038C23.2535 128.454 23.8178 128.688 24.4062 128.688H122.031C122.62 128.688 123.184 128.454 123.6 128.038C124.016 127.622 124.25 127.057 124.25 126.469C124.25 125.88 124.016 125.316 123.6 124.9C123.184 124.484 122.62 124.25 122.031 124.25H97.625V119.812C97.625 119.224 97.3912 118.66 96.9751 118.244C96.5591 117.828 95.9947 117.594 95.4062 117.594H88.1315L85.1723 108.719H130.906C133.259 108.716 135.515 107.78 137.178 106.116C138.842 104.452 139.778 102.197 139.781 99.8438V24.4062C139.778 22.0534 138.842 19.7978 137.178 18.1341C135.515 16.4704 133.259 15.5343 130.906 15.5312ZM93.1875 122.031V124.25H48.8125V122.031H93.1875ZM58.5473 117.594L61.5065 108.719H80.4935L83.4527 117.594H58.5473ZM135.344 99.8438C135.342 101.02 134.874 102.148 134.042 102.98C133.21 103.812 132.083 104.28 130.906 104.281H11.0938C9.91733 104.28 8.78952 103.812 7.95767 102.98C7.12581 102.148 6.65779 101.02 6.65625 99.8438V95.4062H135.344V99.8438ZM39.8432 71L39.0112 90.9688H36.4263L35.5943 71H39.8432ZM35.8994 66.5625L37.3804 57.6875H38.0571L39.5381 66.5625H35.8994ZM37.7188 53.25C35.3142 53.25 33.2812 50.202 33.2812 46.5938C33.2812 44.3168 35.6054 41.008 37.7132 38.6756C39.613 40.7834 42.1562 44.1531 42.1562 46.5938C42.1562 50.202 40.1233 53.25 37.7188 53.25ZM61.8643 48.8125L62.125 49.3367V51.0312H53.25V49.3367L53.5107 48.8125H61.8643ZM55.7295 44.375L57.6875 40.4617L59.6455 44.375H55.7295ZM62.125 55.4688V90.6914C62.1259 90.7842 62.1323 90.8768 62.1444 90.9688H53.2306C53.2427 90.8768 53.2491 90.7842 53.25 90.6914V55.4688H62.125ZM82.0938 46.5938H88.75V51.0312H86.5312C85.9428 51.0312 85.3784 51.265 84.9624 51.6811C84.5463 52.0972 84.3125 52.6616 84.3125 53.25C84.3125 53.8384 84.5463 54.4028 84.9624 54.8189C85.3784 55.235 85.9428 55.4688 86.5312 55.4688H88.75V59.9062H82.0938C81.5053 59.9062 80.9409 60.14 80.5249 60.5561C80.1088 60.9722 79.875 61.5366 79.875 62.125C79.875 62.7134 80.1088 63.2778 80.5249 63.6939C80.9409 64.11 81.5053 64.3438 82.0938 64.3438H88.75V68.7812H86.5312C85.9428 68.7812 85.3784 69.015 84.9624 69.4311C84.5463 69.8472 84.3125 70.4116 84.3125 71C84.3125 71.5884 84.5463 72.1528 84.9624 72.5689C85.3784 72.985 85.9428 73.2188 86.5312 73.2188H88.75V77.6562H82.0938C81.5053 77.6562 80.9409 77.89 80.5249 78.3061C80.1088 78.7222 79.875 79.2866 79.875 79.875C79.875 80.4634 80.1088 81.0278 80.5249 81.4439C80.9409 81.86 81.5053 82.0938 82.0938 82.0938H88.75V90.9688H73.2188V37.7188H88.75V42.1562H82.0938C81.5053 42.1562 80.9409 42.39 80.5249 42.8061C80.1088 43.2222 79.875 43.7866 79.875 44.375C79.875 44.9634 80.1088 45.5278 80.5249 45.9439C80.9409 46.36 81.5053 46.5938 82.0938 46.5938ZM108.719 73.2188V90.6914C108.72 90.7842 108.726 90.8768 108.738 90.9688H99.8243C99.8364 90.8768 99.8429 90.7842 99.8438 90.6914V73.2188H108.719ZM99.8438 68.7812V67.0867L104.281 58.2117L108.719 67.0867V68.7812H99.8438ZM135.344 90.9688H113.137C113.149 90.8768 113.155 90.7842 113.156 90.6914V66.5625C113.156 66.218 113.076 65.8783 112.923 65.5696L106.267 52.2571C106.082 51.8887 105.799 51.5788 105.448 51.3623C105.097 51.1458 104.693 51.0312 104.281 51.0312C103.869 51.0312 103.465 51.1458 103.114 51.3623C102.764 51.5788 102.48 51.8887 102.295 52.2571L95.6392 65.5696C95.4863 65.8783 95.4066 66.218 95.4062 66.5625V90.6914C95.4071 90.7842 95.4136 90.8768 95.4257 90.9688H93.1875V35.5C93.1875 34.9116 92.9537 34.3472 92.5376 33.9311C92.1216 33.515 91.5572 33.2812 90.9688 33.2812H71C70.4116 33.2812 69.8472 33.515 69.4311 33.9311C69.015 34.3472 68.7812 34.9116 68.7812 35.5V90.9688H66.5431C66.5552 90.8768 66.5617 90.7842 66.5625 90.6914V48.8125C66.5622 48.468 66.4825 48.1283 66.3295 47.8196L59.6733 34.5071C59.4886 34.1387 59.2051 33.8288 58.8544 33.6123C58.5037 33.3958 58.0996 33.2812 57.6875 33.2812C57.2754 33.2812 56.8713 33.3958 56.5206 33.6123C56.1699 33.8288 55.8864 34.1387 55.7017 34.5071L49.0455 47.8196C48.8925 48.1283 48.8128 48.468 48.8125 48.8125V90.6914C48.8134 90.7842 48.8198 90.8768 48.8319 90.9688H43.4514L44.3722 68.8728C44.375 68.8229 44.3722 68.7729 44.3722 68.7202V68.6537C44.3671 68.5756 44.3578 68.4978 44.3445 68.4207V68.4152L42.2921 56.0983C44.8687 54.1541 46.5938 50.6208 46.5938 46.5938C46.5938 40.8916 39.9846 34.5764 39.2303 33.8748C38.8192 33.4937 38.2793 33.282 37.7188 33.282C37.1582 33.282 36.6183 33.4937 36.2072 33.8748C35.4529 34.5764 28.8438 40.8916 28.8438 46.5938C28.8438 50.6208 30.5688 54.1541 33.1454 56.0983L31.093 68.4152V68.4207C31.0797 68.4978 31.0704 68.5756 31.0653 68.6537V68.7202C31.0653 68.7729 31.0625 68.8229 31.0653 68.8728L31.9861 90.9688H6.65625V24.4062C6.65779 23.2298 7.12581 22.102 7.95767 21.2702C8.78952 20.4383 9.91733 19.9703 11.0938 19.9688H130.906C132.083 19.9703 133.21 20.4383 134.042 21.2702C134.874 22.102 135.342 23.2298 135.344 24.4062V90.9688Z" fill="white"/>
<path d="M26.625 97.625H13.3125C12.7241 97.625 12.1597 97.8588 11.7436 98.2749C11.3275 98.691 11.0938 99.2553 11.0938 99.8438C11.0938 100.432 11.3275 100.997 11.7436 101.413C12.1597 101.829 12.7241 102.062 13.3125 102.062H26.625C27.2134 102.062 27.7778 101.829 28.1939 101.413C28.61 100.997 28.8438 100.432 28.8438 99.8438C28.8438 99.2553 28.61 98.691 28.1939 98.2749C27.7778 97.8588 27.2134 97.625 26.625 97.625Z" fill="white"/>
<path d="M35.5 97.625H33.2812C32.6928 97.625 32.1285 97.8588 31.7124 98.2749C31.2963 98.691 31.0625 99.2553 31.0625 99.8438C31.0625 100.432 31.2963 100.997 31.7124 101.413C32.1285 101.829 32.6928 102.062 33.2812 102.062H35.5C36.0884 102.062 36.6528 101.829 37.0689 101.413C37.485 100.997 37.7188 100.432 37.7188 99.8438C37.7188 99.2553 37.485 98.691 37.0689 98.2749C36.6528 97.8588 36.0884 97.625 35.5 97.625Z" fill="white"/>
<path d="M57.6875 57.6875C57.0991 57.6875 56.5347 57.9213 56.1186 58.3374C55.7025 58.7535 55.4688 59.3178 55.4688 59.9062V84.3125C55.4688 84.9009 55.7025 85.4653 56.1186 85.8814C56.5347 86.2975 57.0991 86.5312 57.6875 86.5312C58.2759 86.5312 58.8403 86.2975 59.2564 85.8814C59.6725 85.4653 59.9062 84.9009 59.9062 84.3125V59.9062C59.9062 59.3178 59.6725 58.7535 59.2564 58.3374C58.8403 57.9213 58.2759 57.6875 57.6875 57.6875Z" fill="white"/>
<path d="M104.281 75.4375C103.693 75.4375 103.128 75.6713 102.712 76.0874C102.296 76.5035 102.062 77.0678 102.062 77.6562V84.3125C102.062 84.9009 102.296 85.4653 102.712 85.8814C103.128 86.2975 103.693 86.5312 104.281 86.5312C104.87 86.5312 105.434 86.2975 105.85 85.8814C106.266 85.4653 106.5 84.9009 106.5 84.3125V77.6562C106.5 77.0678 106.266 76.5035 105.85 76.0874C105.434 75.6713 104.87 75.4375 104.281 75.4375Z" fill="white"/>
<path d="M13.3125 28.8438H31.0625C31.6509 28.8438 32.2153 28.61 32.6314 28.1939C33.0475 27.7778 33.2812 27.2134 33.2812 26.625C33.2812 26.0366 33.0475 25.4722 32.6314 25.0561C32.2153 24.64 31.6509 24.4062 31.0625 24.4062H13.3125C12.7241 24.4062 12.1597 24.64 11.7436 25.0561C11.3275 25.4722 11.0938 26.0366 11.0938 26.625C11.0938 27.2134 11.3275 27.7778 11.7436 28.1939C12.1597 28.61 12.7241 28.8438 13.3125 28.8438Z" fill="white"/>
<path d="M13.3125 35.5H17.75C18.3384 35.5 18.9028 35.2662 19.3189 34.8501C19.735 34.434 19.9688 33.8697 19.9688 33.2812C19.9688 32.6928 19.735 32.1285 19.3189 31.7124C18.9028 31.2963 18.3384 31.0625 17.75 31.0625H13.3125C12.7241 31.0625 12.1597 31.2963 11.7436 31.7124C11.3275 32.1285 11.0938 32.6928 11.0938 33.2812C11.0938 33.8697 11.3275 34.434 11.7436 34.8501C12.1597 35.2662 12.7241 35.5 13.3125 35.5Z" fill="white"/>
<path d="M119.812 86.5312H128.688C129.276 86.5312 129.84 86.2975 130.256 85.8814C130.672 85.4653 130.906 84.9009 130.906 84.3125C130.906 83.7241 130.672 83.1597 130.256 82.7436C129.84 82.3275 129.276 82.0938 128.688 82.0938H119.812C119.224 82.0938 118.66 82.3275 118.244 82.7436C117.828 83.1597 117.594 83.7241 117.594 84.3125C117.594 84.9009 117.828 85.4653 118.244 85.8814C118.66 86.2975 119.224 86.5312 119.812 86.5312Z" fill="white"/>
<path d="M126.469 79.875H128.688C129.276 79.875 129.84 79.6412 130.256 79.2251C130.672 78.809 130.906 78.2447 130.906 77.6562C130.906 77.0678 130.672 76.5035 130.256 76.0874C129.84 75.6713 129.276 75.4375 128.688 75.4375H126.469C125.88 75.4375 125.316 75.6713 124.9 76.0874C124.484 76.5035 124.25 77.0678 124.25 77.6562C124.25 78.2447 124.484 78.809 124.9 79.2251C125.316 79.6412 125.88 79.875 126.469 79.875Z" fill="white"/>
</svg>
