<svg width="50" height="51" viewBox="0 0 50 51" fill="none" xmlns="http://www.w3.org/2000/svg">
<g clip-path="url(#clip0)">
<path d="M29.3945 25.3547C29.3945 27.792 27.4269 29.768 25 29.768C22.5731 29.768 20.6055 27.792 20.6055 25.3547C20.6055 22.9174 22.5731 20.9414 25 20.9414C27.4269 20.9414 29.3945 22.9174 29.3945 25.3547Z" fill="white"/>
<path d="M32.4219 12.0167H17.5781C14.3471 12.0167 11.7188 14.6563 11.7188 17.9011V32.8083C11.7188 36.0532 14.3471 38.6927 17.5781 38.6927H32.4219C35.6529 38.6927 38.2812 36.0532 38.2812 32.8083V17.9011C38.2812 14.6563 35.6529 12.0167 32.4219 12.0167ZM25 32.7102C20.9614 32.7102 17.6758 29.4106 17.6758 25.3547C17.6758 21.2989 20.9614 17.9992 25 17.9992C29.0386 17.9992 32.3242 21.2989 32.3242 25.3547C32.3242 29.4106 29.0386 32.7102 25 32.7102ZM33.3984 18.3915C32.5893 18.3915 31.9336 17.733 31.9336 16.9204C31.9336 16.1078 32.5893 15.4493 33.3984 15.4493C34.2075 15.4493 34.8633 16.1078 34.8633 16.9204C34.8633 17.733 34.2075 18.3915 33.3984 18.3915Z" fill="white"/>
<path d="M36.8164 0.247894H13.1836C5.91431 0.247894 0 6.18748 0 13.4878V37.2216C0 44.522 5.91431 50.4616 13.1836 50.4616H36.8164C44.0857 50.4616 50 44.522 50 37.2216V13.4878C50 6.18748 44.0857 0.247894 36.8164 0.247894ZM41.2109 32.8083C41.2109 37.6752 37.2681 41.6349 32.4219 41.6349H17.5781C12.7319 41.6349 8.78906 37.6752 8.78906 32.8083V17.9011C8.78906 13.0342 12.7319 9.07452 17.5781 9.07452H32.4219C37.2681 9.07452 41.2109 13.0342 41.2109 17.9011V32.8083Z" fill="white"/>
</g>
<defs>
<clipPath id="clip0">
<rect width="50" height="50.2137" fill="white" transform="translate(0 0.247894)"/>
</clipPath>
</defs>
</svg>
