<svg width="38" height="38" viewBox="0 0 38 38" fill="none" xmlns="http://www.w3.org/2000/svg">
<path d="M22.3398 19C22.3398 20.8445 20.8445 22.3398 19 22.3398C17.1555 22.3398 15.6602 20.8445 15.6602 19C15.6602 17.1555 17.1555 15.6602 19 15.6602C20.8445 15.6602 22.3398 17.1555 22.3398 19Z" fill="black"/>
<path d="M24.6406 8.90625H13.3594C10.9038 8.90625 8.90625 10.9038 8.90625 13.3594V24.6406C8.90625 27.0962 10.9038 29.0938 13.3594 29.0938H24.6406C27.0962 29.0938 29.0938 27.0962 29.0938 24.6406V13.3594C29.0938 10.9038 27.0962 8.90625 24.6406 8.90625ZM19 24.5664C15.9306 24.5664 13.4336 22.0694 13.4336 19C13.4336 15.9306 15.9306 13.4336 19 13.4336C22.0694 13.4336 24.5664 15.9306 24.5664 19C24.5664 22.0694 22.0694 24.5664 19 24.5664ZM25.3828 13.7305C24.7679 13.7305 24.2695 13.2321 24.2695 12.6172C24.2695 12.0023 24.7679 11.5039 25.3828 11.5039C25.9977 11.5039 26.4961 12.0023 26.4961 12.6172C26.4961 13.2321 25.9977 13.7305 25.3828 13.7305Z" fill="black"/>
<path d="M27.9805 0H10.0195C4.49487 0 0 4.49487 0 10.0195V27.9805C0 33.5051 4.49487 38 10.0195 38H27.9805C33.5051 38 38 33.5051 38 27.9805V10.0195C38 4.49487 33.5051 0 27.9805 0ZM31.3203 24.6406C31.3203 28.3237 28.3237 31.3203 24.6406 31.3203H13.3594C9.67627 31.3203 6.67969 28.3237 6.67969 24.6406V13.3594C6.67969 9.67627 9.67627 6.67969 13.3594 6.67969H24.6406C28.3237 6.67969 31.3203 9.67627 31.3203 13.3594V24.6406Z" fill="black"/>
</svg>
