<svg width="45" height="45" viewBox="0 0 45 45" fill="none" xmlns="http://www.w3.org/2000/svg">
<path d="M42.9785 11.8663H35.9754L35.215 8.14435C34.8904 6.57862 34.0371 5.17217 32.7984 4.16101C31.5597 3.14986 30.0109 2.59554 28.4119 2.59106H16.5881C14.9889 2.5956 13.4399 3.15013 12.2012 4.16156C10.9624 5.17299 10.1093 6.57976 9.78504 8.14575L9.02461 11.8663H2.02148C1.48574 11.867 0.972101 12.08 0.59317 12.4588C0.21424 12.8375 0.000930209 13.351 0 13.8868L0 40.3876C0.000558389 40.9235 0.213715 41.4374 0.592696 41.8163C0.971677 42.1953 1.48552 42.4085 2.02148 42.409H42.9785C43.5145 42.4085 44.0283 42.1953 44.4073 41.8163C44.7863 41.4374 44.9994 40.9235 45 40.3876V13.8868C44.9991 13.351 44.7858 12.8375 44.4068 12.4588C44.0279 12.08 43.5143 11.867 42.9785 11.8663ZM10.9909 8.39079C11.2577 7.10234 11.9595 5.94487 12.9787 5.11267C13.9979 4.28048 15.2723 3.82422 16.5881 3.82048H28.4119C29.7277 3.82422 31.0021 4.28048 32.0213 5.11267C33.0405 5.94487 33.7423 7.10234 34.0091 8.39079L34.7196 11.8667H33.1049L32.4594 8.70755C32.2665 7.77586 31.7589 6.9389 31.0219 6.33716C30.2849 5.73542 29.3633 5.40553 28.4119 5.40286H16.5881C15.6367 5.40553 14.7151 5.73542 13.9781 6.33716C13.2411 6.9389 12.7335 7.77586 12.5406 8.70755L11.8951 11.8667H10.2804L10.9909 8.39079ZM31.8488 11.8663H13.1512L13.7461 8.95364C13.8815 8.29949 14.2378 7.71183 14.7553 7.28933C15.2727 6.86683 15.9198 6.6352 16.5878 6.63333H28.4119C29.0799 6.6352 29.7269 6.86683 30.2444 7.28933C30.7618 7.71183 31.1181 8.29949 31.2536 8.95364L31.8488 11.8663ZM1.23047 13.8868C1.23075 13.6771 1.31418 13.476 1.46246 13.3277C1.61074 13.1795 1.81178 13.096 2.02148 13.0958H42.9785C43.1882 13.096 43.3893 13.1795 43.5375 13.3277C43.6858 13.476 43.7693 13.6771 43.7695 13.8868V20.6719C43.7678 22.1865 43.1653 23.6386 42.0943 24.7096C41.0233 25.7806 39.5713 26.383 38.0566 26.3848H6.94336C5.42875 26.383 3.97668 25.7806 2.90569 24.7096C1.8347 23.6386 1.23224 22.1865 1.23047 20.6719V13.8868ZM31.223 27.6153H34.4749V31.2012C34.4748 31.3177 34.4285 31.4295 34.3461 31.5119C34.2637 31.5943 34.152 31.6406 34.0355 31.6407H31.6624C31.5459 31.6405 31.4343 31.5941 31.3519 31.5118C31.2695 31.4294 31.2232 31.3177 31.223 31.2012V27.6153ZM10.5247 27.6153H13.7767V31.2012C13.7766 31.3177 13.7303 31.4295 13.6479 31.5119C13.5655 31.5943 13.4537 31.6406 13.3372 31.6407H10.9642C10.8477 31.6405 10.736 31.5941 10.6536 31.5118C10.5713 31.4294 10.5249 31.3177 10.5247 31.2012V27.6153ZM43.7695 40.3876C43.7693 40.5973 43.6858 40.7983 43.5375 40.9466C43.3893 41.0949 43.1882 41.1783 42.9785 41.1786H2.02148C1.81178 41.1783 1.61074 41.0949 1.46246 40.9466C1.31418 40.7983 1.23075 40.5973 1.23047 40.3876V24.6094C1.86782 25.5359 2.72083 26.2936 3.71603 26.8172C4.71124 27.3409 5.81881 27.6148 6.94336 27.6153H9.29426V31.2012C9.29482 31.6439 9.47093 32.0684 9.78398 32.3814C10.097 32.6945 10.5215 32.8706 10.9642 32.8711H13.3372C13.78 32.8707 14.2045 32.6946 14.5175 32.3815C14.8306 32.0685 15.0067 31.644 15.0071 31.2012V27.6153H29.9925V31.2012C29.9931 31.6439 30.1692 32.0684 30.4822 32.3814C30.7953 32.6945 31.2197 32.8706 31.6624 32.8711H34.0355C34.4782 32.8707 34.9027 32.6946 35.2158 32.3815C35.5288 32.0685 35.7049 31.644 35.7054 31.2012V27.6153H38.0566C39.1812 27.6148 40.2888 27.3409 41.284 26.8172C42.2792 26.2936 43.1322 25.5359 43.7695 24.6094V40.3876Z" fill="black"/>
</svg>
