<svg width="52" height="52" viewBox="0 0 52 52" fill="none" xmlns="http://www.w3.org/2000/svg">
<g clip-path="url(#clip0)">
<path d="M45.1179 10.0333C40.7752 3.74939 33.6233 -0.00108977 25.9846 2.37528e-07C13.1421 0.0139281 2.74246 10.4362 2.75639 23.2787C2.76935 35.2387 11.8525 45.2384 23.7563 46.3976L19.8186 50.3342C19.4337 50.706 19.423 51.3193 19.7948 51.7042C20.1666 52.0891 20.7799 52.0998 21.1648 51.728C21.173 51.7202 21.1808 51.7122 21.1886 51.7042L26.6687 46.2242C26.7591 46.1339 26.8306 46.0265 26.8789 45.9083C26.9769 45.6713 26.9769 45.4051 26.8789 45.1681C26.8306 45.0499 26.7591 44.9424 26.6687 44.8522L21.1886 39.3721C20.8037 39.0003 20.1902 39.011 19.8186 39.3959C19.4559 39.7713 19.4559 40.3666 19.8186 40.7421L23.5004 44.4239C11.8157 43.0481 3.45884 32.4604 4.83468 20.7757C6.21051 9.09104 16.7983 0.734061 28.4829 2.11002C40.1676 3.48597 48.5246 14.0736 47.1486 25.7583C46.4331 31.8353 43.139 37.3111 38.1055 40.7906C37.6585 41.0846 37.5346 41.6855 37.8287 42.1325C38.1228 42.5795 38.7236 42.7034 39.1706 42.4094C39.1833 42.401 39.1958 42.3923 39.2081 42.3834C49.7734 35.0821 52.4192 20.5985 45.1179 10.0333Z" fill="black"/>
</g>
<defs>
<clipPath id="clip0">
<rect width="52" height="52" fill="white"/>
</clipPath>
</defs>
</svg>
