<svg width="47" height="47" viewBox="0 0 47 47" fill="none" xmlns="http://www.w3.org/2000/svg">
<path d="M45.4505 44.5597L43.3722 36.2539C43.3408 36.1244 43.2748 36.0058 43.1812 35.9109L30.7659 23.5L32.5453 21.7206C32.7766 21.48 33.0589 21.2943 33.3714 21.177C33.6838 21.0597 34.0186 21.0138 34.3511 21.0428C35.898 21.2202 37.4648 21.0168 38.9151 20.4503C40.3655 19.8839 41.6554 18.9715 42.6726 17.7926C43.6897 16.6138 44.4034 15.2042 44.7514 13.6865C45.0993 12.1689 45.0711 10.5892 44.6691 9.08495C44.6357 8.96046 44.5701 8.84694 44.479 8.75582C44.3878 8.66469 44.2742 8.59917 44.1497 8.56583C44.0252 8.53248 43.8941 8.5325 43.7696 8.56588C43.6451 8.59925 43.5316 8.6648 43.4405 8.75595L38.3211 13.8753L33.9942 13.0058L33.124 8.67884L38.244 3.55951C38.3352 3.46837 38.4007 3.35485 38.4341 3.23035C38.4675 3.10585 38.4675 2.97476 38.4342 2.85025C38.4008 2.72574 38.3353 2.6122 38.2442 2.52103C38.153 2.42987 38.0395 2.3643 37.915 2.3309C36.4108 1.92902 34.8311 1.90089 33.3135 2.24896C31.7959 2.59703 30.3863 3.31076 29.2075 4.32801C28.0288 5.34527 27.1165 6.63522 26.5501 8.08557C25.9838 9.53593 25.7805 11.1027 25.9579 12.6496C25.9866 12.982 25.9405 13.3167 25.8231 13.629C25.7057 13.9413 25.5199 14.2234 25.2794 14.4547L23.5 16.2341L10.481 3.21142C10.0036 2.73404 9.43689 2.35537 8.81317 2.09702C8.18945 1.83866 7.52095 1.70569 6.84584 1.70569C6.17073 1.70569 5.50223 1.83866 4.8785 2.09702C4.25478 2.35537 3.68806 2.73404 3.21068 3.21142C2.73331 3.6888 2.35463 4.25552 2.09628 4.87924C1.83792 5.50296 1.70495 6.17147 1.70495 6.84658C1.70495 7.52169 1.83792 8.19019 2.09628 8.81391C2.35463 9.43763 2.73331 10.0044 3.21068 10.4817L16.2334 23.5L14.4547 25.2787C14.2239 25.5199 13.9417 25.7061 13.6291 25.8235C13.3165 25.9408 12.9814 25.9863 12.6489 25.9565C11.1019 25.7791 9.535 25.9824 8.08459 26.5489C6.63419 27.1154 5.34423 28.0279 4.32703 29.2068C3.30983 30.3858 2.59621 31.7955 2.24831 33.3132C1.9004 34.831 1.92876 36.4108 2.3309 37.915C2.36429 38.0395 2.42987 38.1531 2.52103 38.2442C2.61219 38.3353 2.72573 38.4008 2.85024 38.4342C2.97475 38.4675 3.10584 38.4675 3.23034 38.4341C3.35485 38.4007 3.46837 38.3352 3.55951 38.244L8.67884 33.1247L13.0058 33.9942L13.8797 38.3212L8.75962 43.4405C8.66847 43.5316 8.60292 43.6451 8.56954 43.7696C8.53617 43.8941 8.53615 44.0252 8.56949 44.1497C8.60283 44.2743 8.66836 44.3878 8.75948 44.479C8.85061 44.5701 8.96412 44.6357 9.08862 44.6691C10.5926 45.0703 12.1719 45.0978 13.689 44.7494C15.2061 44.401 16.6151 43.6872 17.7934 42.67C18.9717 41.6529 19.8836 40.3632 20.4498 38.9132C21.016 37.4632 21.2193 35.8969 21.042 34.3504C21.0134 34.018 21.0595 33.6833 21.1769 33.371C21.2943 33.0587 21.4801 32.7766 21.7206 32.5453L23.5 30.7659L35.9109 43.1813C36.0049 43.2753 36.1227 43.342 36.2517 43.3744L44.5575 45.4527C44.6158 45.4672 44.6758 45.4746 44.7359 45.4747C44.8475 45.4747 44.9577 45.4492 45.058 45.4003C45.1583 45.3513 45.2462 45.2801 45.3148 45.1921C45.3835 45.1041 45.4312 45.0016 45.4543 44.8924C45.4775 44.7832 45.4754 44.6702 45.4483 44.5619L45.4505 44.5597ZM39.986 42.792L37.1638 42.0856V39.4029L38.8822 39.7466C39.0008 39.7703 39.1234 39.7645 39.2392 39.7294C39.3549 39.6944 39.4603 39.6313 39.5458 39.5458C39.6313 39.4603 39.6944 39.355 39.7294 39.2392C39.7644 39.1234 39.7703 39.0008 39.7466 38.8822L39.4021 37.1638H42.0856L42.7913 39.9853C42.1595 40.2412 41.5855 40.6216 41.1036 41.1038C40.6217 41.5859 40.2416 42.1601 39.986 42.792ZM37.8299 36.7922L38.0898 38.0906L36.7922 37.8306L12.0437 13.0822L13.0785 12.0437L37.8299 36.7922ZM26.3178 15.4953C26.7147 15.1076 27.0196 14.6359 27.2102 14.1148C27.4009 13.5938 27.4723 13.0367 27.4194 12.4844C27.282 11.2881 27.4135 10.0763 27.8043 8.93742C28.1952 7.79852 28.8354 6.76127 29.6783 5.90141C30.5212 5.04154 31.5455 4.38078 32.6764 3.96736C33.8073 3.55393 35.0162 3.39828 36.215 3.51178L31.8087 7.91803C31.7231 8.00368 31.66 8.10919 31.625 8.22515C31.59 8.34111 31.5842 8.46392 31.6082 8.58264L32.6518 13.7739C32.6802 13.9159 32.7499 14.0463 32.8522 14.1487C32.9546 14.2512 33.0849 14.3211 33.2268 14.3497L38.4181 15.3918C38.5368 15.4157 38.6596 15.41 38.7756 15.375C38.8915 15.34 38.997 15.2769 39.0827 15.1913L43.4889 10.785C43.6028 11.9837 43.4476 13.1927 43.0345 14.3237C42.6215 15.4548 41.9611 16.4793 41.1015 17.3225C40.2419 18.1656 39.2049 18.8062 38.0661 19.1974C36.9273 19.5886 35.7156 19.7205 34.5193 19.5836C33.967 19.5308 33.4099 19.6024 32.8889 19.793C32.3679 19.9836 31.8962 20.2884 31.5083 20.6851L29.7275 22.4616L27.6441 20.3782C27.6588 20.3657 27.6771 20.3613 27.6911 20.3473L30.6286 17.4098C30.7623 17.2713 30.8364 17.0858 30.8347 16.8933C30.833 16.7007 30.7558 16.5165 30.6196 16.3804C30.4835 16.2442 30.2993 16.167 30.1067 16.1653C29.9142 16.1636 29.7287 16.2376 29.5902 16.3714L26.6527 19.3089C26.6387 19.3229 26.6343 19.3412 26.6218 19.3559L24.5384 17.2725L26.3178 15.4953ZM15.1553 9.96326L40.8841 35.695H38.811L14.1169 11.0017L15.1553 9.96326ZM4.24982 9.44259C3.90641 9.10217 3.63361 8.69727 3.4471 8.25114C3.26058 7.80501 3.16403 7.32643 3.16297 6.84288C3.16191 6.35933 3.25637 5.88033 3.44093 5.43339C3.62548 4.98644 3.8965 4.58035 4.23843 4.23843C4.58035 3.89651 4.98644 3.62549 5.43338 3.44093C5.88033 3.25637 6.35932 3.16191 6.84287 3.16297C7.32642 3.16403 7.805 3.26059 8.25113 3.4471C8.69727 3.63361 9.10217 3.90641 9.44259 4.24983L11.0002 5.80744L5.80743 11.0002L4.24982 9.44259ZM6.84584 12.0393L12.0393 6.84584L14.1161 8.92339L8.92265 14.1162L6.84584 12.0393ZM20.6822 31.5047C20.2853 31.8924 19.9804 32.3641 19.7898 32.8852C19.5991 33.4062 19.5277 33.9633 19.5806 34.5156C19.718 35.7119 19.5865 36.9237 19.1956 38.0626C18.8048 39.2015 18.1646 40.2387 17.3217 41.0986C16.4788 41.9585 15.4545 42.6192 14.3236 43.0326C13.1927 43.4461 11.9838 43.6017 10.785 43.4882L15.1913 39.082C15.277 38.9964 15.3403 38.8909 15.3754 38.7749C15.4105 38.659 15.4164 38.5361 15.3925 38.4174L14.3497 33.2253C14.3213 33.0834 14.2515 32.953 14.1492 32.8505C14.0469 32.7481 13.9166 32.6782 13.7747 32.6496L8.58263 31.6075C8.46447 31.5842 8.34238 31.5902 8.22713 31.6252C8.11187 31.6602 8.00698 31.7229 7.9217 31.808L3.51545 36.2142C3.4017 35.0157 3.55702 33.8068 3.97008 32.676C4.38315 31.5451 5.04352 30.5207 5.903 29.6776C6.76248 28.8346 7.79937 28.194 8.93799 27.8028C10.0766 27.4116 11.2882 27.2796 12.4844 27.4164C13.0367 27.4699 13.594 27.3987 14.1151 27.208C14.6362 27.0174 15.1079 26.7122 15.4953 26.3149L17.2747 24.5355L19.3574 26.6189C19.3434 26.6314 19.3251 26.6358 19.3111 26.6497L16.3736 29.5872C16.3035 29.655 16.2475 29.736 16.209 29.8256C16.1706 29.9152 16.1503 30.0116 16.1494 30.1091C16.1486 30.2066 16.1672 30.3033 16.2041 30.3935C16.241 30.4838 16.2956 30.5658 16.3645 30.6347C16.4335 30.7037 16.5155 30.7582 16.6057 30.7952C16.696 30.8321 16.7927 30.8507 16.8902 30.8498C16.9877 30.849 17.0841 30.8287 17.1736 30.7902C17.2632 30.7517 17.3443 30.6958 17.412 30.6256L20.3495 27.6881C20.3635 27.6742 20.3679 27.6558 20.3804 27.6419L22.4638 29.7246L20.6822 31.5047ZM9.96106 15.1575L11.0017 14.1169L35.695 38.811V40.8841L9.96106 15.1575ZM41.4364 43.1548C41.7862 42.3956 42.3956 41.7863 43.1548 41.4364L43.7283 43.7284L41.4364 43.1548Z" fill="white"/>
</svg>
