<svg width="64" height="64" viewBox="0 0 64 64" fill="none" xmlns="http://www.w3.org/2000/svg">
<g clip-path="url(#clip0)">
<path d="M4.00131 38.0098C4.00131 43.6096 7.36115 44.0096 8.00111 44.0096H57.1787L46.5992 33.4301L49.4191 30.5902L63.4184 44.5895C64.1939 45.3696 64.1939 46.6293 63.4184 47.4094L49.4191 61.4087L46.5992 58.5888L57.1787 48.0094H8.00111C5.24125 48.0094 0.00150299 46.0095 0.00150299 38.0098V32.0101H4.00131V38.0098Z" fill="white"/>
<path d="M59.998 26.0104C59.998 20.4107 56.6381 20.0107 55.9982 20.0107H6.82058L17.4001 30.5902L14.5802 33.41L0.580891 19.4107C-0.194572 18.6306 -0.194572 17.371 0.580891 16.5909L14.5802 2.59155L17.4201 5.43141L6.82058 16.0109H55.9982C58.758 16.0109 63.9978 18.0108 63.9978 26.0104V32.0101H59.998V26.0104Z" fill="white"/>
</g>
<defs>
<clipPath id="clip0">
<rect width="64" height="64" fill="white" transform="matrix(-1 0 0 1 64 0)"/>
</clipPath>
</defs>
</svg>
