<svg width="50" height="30" viewBox="0 0 50 30" fill="none" xmlns="http://www.w3.org/2000/svg">
<path d="M41.4896 16.725C40.6813 15.7042 40.9125 15.25 41.4896 14.3375C41.5 14.3271 48.1729 5.10625 48.8604 1.97917L48.8646 1.97708C49.2062 0.8375 48.8646 0 47.2125 0H41.7458C40.3542 0 39.7125 0.71875 39.3687 1.52292C39.3687 1.52292 36.5854 8.18542 32.6479 12.5042C31.3771 13.7521 30.7896 14.1521 30.0958 14.1521C29.7542 14.1521 29.2229 13.7521 29.2229 12.6125V1.97708C29.2229 0.610416 28.8333 0 27.6812 0H19.0854C18.2125 0 17.6937 0.6375 17.6937 1.23125C17.6937 2.52708 19.6625 2.825 19.8667 6.47083V14.3812C19.8667 16.1146 19.5521 16.4333 18.8542 16.4333C16.9958 16.4333 12.4854 9.74375 9.8125 2.0875C9.27292 0.602083 8.74583 0.00208318 7.34375 0.00208318H1.875C0.314583 0.00208318 0 0.720833 0 1.525C0 2.94583 1.85833 10.0104 8.64167 19.3437C13.1625 25.7146 19.5292 29.1667 25.3208 29.1667C28.8021 29.1667 29.2271 28.4 29.2271 27.0812C29.2271 20.9937 28.9125 20.4187 30.6562 20.4187C31.4646 20.4187 32.8562 20.8188 36.1062 23.8917C39.8208 27.5354 40.4313 29.1667 42.5104 29.1667H47.9771C49.5354 29.1667 50.325 28.4 49.8708 26.8875C48.8312 23.7062 41.8063 17.1625 41.4896 16.725Z" fill="black"/>
</svg>
