<svg width="64" height="39" viewBox="0 0 64 39" fill="none" xmlns="http://www.w3.org/2000/svg">
<path d="M53.1067 22.1078C52.072 20.7955 52.368 20.2117 53.1067 19.0387C53.12 19.0253 61.6613 7.17221 62.5413 3.15244L62.5467 3.14976C62.984 1.68486 62.5467 0.608276 60.432 0.608276H53.4347C51.6533 0.608276 50.832 1.53221 50.392 2.56594C50.392 2.56594 46.8293 11.1304 41.7893 16.682C40.1627 18.2862 39.4107 18.8004 38.5227 18.8004C38.0853 18.8004 37.4053 18.2862 37.4053 16.8213V3.14976C37.4053 1.39295 36.9067 0.608276 35.432 0.608276H24.4293C23.312 0.608276 22.648 1.42776 22.648 2.19101C22.648 3.85677 25.168 4.23973 25.4293 8.92634V19.0949C25.4293 21.3231 25.0267 21.7328 24.1333 21.7328C21.7547 21.7328 15.9813 13.1336 12.56 3.29169C11.8693 1.38224 11.1947 0.610954 9.4 0.610954H2.4C0.402667 0.610954 0 1.53489 0 2.56862C0 4.39506 2.37867 13.4764 11.0613 25.4741C16.848 33.6636 24.9973 38.1012 32.4107 38.1012C36.8667 38.1012 37.4107 37.1156 37.4107 35.4204C37.4107 27.5951 37.008 26.856 39.24 26.856C40.2747 26.856 42.056 27.3702 46.216 31.3203C50.9707 36.0042 51.752 38.1012 54.4133 38.1012H61.4107C63.4053 38.1012 64.416 37.1156 63.8347 35.1714C62.504 31.082 53.512 22.6702 53.1067 22.1078Z" fill="white"/>
</svg>
