<?xml version="1.0" encoding="utf-8"?>
<!-- Generator: Adobe Illustrator 19.0.0, SVG Export Plug-In . SVG Version: 6.00 Build 0)  -->
<svg version="1.1" id="ru_1_" xmlns="http://www.w3.org/2000/svg" xmlns:xlink="http://www.w3.org/1999/xlink" x="0px" y="0px"
	 viewBox="0 0 538.9 371.6" style="enable-background:new 0 0 538.9 371.6;" xml:space="preserve">
<style type="text/css">
	.st0{fill:#ECB304;}
	.st1{fill:#2D2D2D;}
	.st2{fill:#E9B104;}
	.st3{fill:#FFFFFF;}
</style>
<g id="Layer_3_xA0_Изображение_1_">
</g>
<g id="Layer_2_xA0_Изображение_1_">
</g>
<g id="СОГУ">
</g>
<g id="_x31_920">
</g>
<g id="Layer_5_xA0_Изображение_1_">
</g>
<g id="Layer_12_xA0_Изображение_1_">
</g>
<g id="СЕВЕРО-ОСЕТИНСКИЙ__ГОСУДАРСТВЕННЫЙ__УНИВЕРСИТЕТ_им._Коста_Леван_1_">
	<g>
		<g>
			<g>
				<rect x="17.9" y="162.2" class="st0" width="503.3" height="191.8"/>
				<g>
					<rect x="330.2" y="144.4" class="st0" width="101.6" height="8.1"/>
					<polygon class="st0" points="441.4,144.4 441.4,152.5 530.6,152.5 530.6,363.4 8.5,363.4 8.5,152.5 320.7,152.5 320.7,144.4 
						0.4,144.4 0.4,371.6 538.7,371.6 538.7,144.4 					"/>
				</g>
			</g>
			<g>
				<path class="st0" d="M335.4,146.1c-1.4,0-2.7,0-4,0c0-2.6,0-5.2,0-7.8c3.5,0,6.9,0,10.4,0c0-2.2,0-4.4,0-6.6c1.3,0,2.5,0,3.8,0
					c0-11.3,0-22.6,0-34c-1.3,0-2.5,0-3.8,0c0-2.3,0-4.5,0-6.8c-0.5,0-1,0-1.5,0c-0.5,0-1,0-1.5,0c0-2.4,0-4.7,0-7
					c-0.1,0-0.2,0-0.3,0c-1.9,0-3.8,0-5.7,0c-0.1,0-0.2,0-0.3,0c-0.3,0-0.5-0.2-0.5-0.5c-0.1-0.3,0-0.5,0.2-0.7
					c0.1-0.1,0.2-0.1,0.3-0.2c7.4-4.5,14.8-9,22.2-13.5c8.7-5.3,17.3-10.6,26-15.8c0.1-0.1,0.2-0.1,0.3-0.2c0.1,0,0.1,0.1,0.2,0.1
					c16.1,9.8,32.2,19.6,48.2,29.4c0.1,0.1,0.2,0.1,0.3,0.2c0.2,0.2,0.3,0.4,0.2,0.7c-0.1,0.3-0.2,0.5-0.5,0.5c-0.1,0-0.2,0-0.3,0
					c-1.9,0-3.8,0-5.7,0c-0.1,0-0.2,0-0.3,0c0,2.3,0,4.7,0,7c-1,0-2,0-3,0c0,2.3,0,4.5,0,6.8c-0.7,0-1.3,0-1.9,0c-0.6,0-1.3,0-1.9,0
					c0,11.3,0,22.6,0,34c1.3,0,2.5,0,3.8,0c0,2.2,0,4.4,0,6.6c3.5,0,6.9,0,10.4,0c0,2.6,0,5.2,0,7.8c-1.3,0-2.6,0-4,0
					c0-1.3,0-2.5,0-3.8c-0.2-0.1-90.6-0.1-90.9,0C335.4,143.6,335.4,144.8,335.4,146.1z M417.2,79.9
					C417.2,79.9,417.2,79.9,417.2,79.9C405.1,72.4,393,65,380.8,57.6c-12.1,7.4-24.3,14.8-36.4,22.2c0,0,0,0,0,0
					C368.7,79.9,392.9,79.9,417.2,79.9z M397.4,131.7c1.3,0,2.6,0,3.8,0c0-11.3,0-22.6,0-34c-1.3,0-2.5,0-3.8,0c0-0.8,0-1.5,0-2.3
					c0-0.7,0-1.5,0-2.2c0-0.8,0-1.5,0-2.3c-1.8,0-3.6,0-5.4,0c0,2.3,0,4.5,0,6.8c-0.3,0-0.7,0-1,0c-0.3,0-0.6,0-1,0
					c-0.3,0-0.6,0-1,0c-0.3,0-0.6,0-1,0c0,11.3,0,22.6,0,34c0.4,0,0.9,0,1.3,0c0.4,0,0.9,0,1.3,0c0.4,0,0.8,0,1.3,0
					c0,2.2,0,4.4,0,6.5c0.4,0.1,5.2,0,5.4,0C397.4,136.1,397.4,133.9,397.4,131.7z M373.4,131.7c0-11.3,0-22.6,0-34
					c-1.3,0-2.5,0-3.8,0c0-2.3,0-4.5,0-6.8c-1.8,0-3.5,0-5.3,0c0,2.3,0,4.5,0,6.8c-0.3,0-0.7,0-1,0c-0.3,0-0.6,0-1,0
					c-0.3,0-0.6,0-1,0c-0.3,0-0.6,0-0.9,0c0,11.3,0,22.6,0,34c0.3,0,0.6,0,1,0c0.3,0,0.6,0,1,0c0.3,0,0.6,0,1,0c0.3,0,0.6,0,1,0
					c0,2.2,0,4.3,0,6.5c0.6,0,1.2,0,1.8,0c0.6,0,1.2,0,1.7,0c0.6,0,1.2,0,1.8,0c0-0.5,0-0.9,0-1.3c0-0.4,0-0.9,0-1.3
					c0-0.4,0-0.9,0-1.3c0-0.4,0-0.9,0-1.3c0-0.4,0-0.9,0-1.3C370.8,131.7,372.1,131.7,373.4,131.7z M349.6,97.8c0,11.3,0,22.6,0,34
					c0.6,0,1.2,0,1.7,0c0.6,0,1.1,0,1.7,0c0.6,0,1.1,0,1.7,0c0.6,0,1.1,0,1.7,0c0-11.3,0-22.6,0-33.9
					C354.1,97.8,351.9,97.8,349.6,97.8z M384.2,97.8c-0.3-0.1-6.6,0-6.8,0c0,11.3,0,22.6,0,33.9c2.3,0,4.5,0,6.8,0
					C384.2,120.4,384.2,109.1,384.2,97.8z M405.3,97.8c0,11.3,0,22.6,0,34c0.6,0,1.1,0,1.7,0c0.6,0,1.1,0,1.7,0c0.6,0,1.1,0,1.7,0
					c0.6,0,1.1,0,1.7,0c0-11.3,0-22.6,0-34C409.8,97.8,407.5,97.8,405.3,97.8z M418.9,83.9c-25.4,0-50.8,0-76.2,0
					c-0.1,0.3,0,2.8,0,3c25.4,0,50.8,0,76.2,0C418.9,85.9,418.9,84.9,418.9,83.9z M360.2,90.9c-4.8,0-9.7,0-14.5,0
					c0,0.9,0,1.8,0,2.8c4.8,0,9.7,0,14.5,0C360.2,92.8,360.2,91.9,360.2,90.9z M373.5,93.7c4.8,0,9.7,0,14.5,0c0.1-0.3,0-2.6,0-2.8
					c-4.8,0-9.6,0-14.5,0C373.5,91.9,373.5,92.8,373.5,93.7z M415.9,90.9c-4.8,0-9.7,0-14.5,0c0,0.9,0,1.8,0,2.8c4.8,0,9.7,0,14.5,0
					C415.9,92.8,415.9,91.9,415.9,90.9z M360.2,135.7c-4.8,0-9.7,0-14.5,0c0,0.8,0,1.7,0,2.5c4.8,0,9.7,0,14.5,0
					C360.2,137.4,360.2,136.6,360.2,135.7z M388,135.7c-4.8,0-9.7,0-14.5,0c0,0.8,0,1.7,0,2.5c4.8,0,9.7,0,14.5,0
					C388,137.4,388,136.6,388,135.7z M401.4,138.3c4.8,0,9.7,0,14.5,0c0.1-0.4,0-2.4,0-2.5c-4.8,0-9.6,0-14.5,0
					C401.4,136.6,401.4,137.4,401.4,138.3z"/>
				<path class="st0" d="M380.8,76c-3.3,0-5.8-2.7-5.7-5.9c0-3.2,2.7-5.7,5.9-5.7c3.3,0,5.7,2.7,5.7,5.9
					C386.5,73.4,383.9,76,380.8,76z"/>
			</g>
		</g>
		<g>
			<g>
				<path class="st1" d="M69.6,20.5c-7,0-13.4,1.1-19.4,3.2c-5.9,2.1-11.1,5.1-15.4,9c-4.3,3.8-7.8,8.5-10.2,13.9
					c-2.5,5.4-3.7,11.3-3.7,17.8c0,6.4,1.2,12.3,3.7,17.8c2.5,5.4,5.9,10,10.2,13.9c4.3,3.8,9.5,6.8,15.4,9
					c5.9,2.1,12.4,3.2,19.4,3.2c9.2,0,17.3-1.6,24.3-4.8c6.9-3.2,12.5-7.7,16.7-13.4l15.1,13.7c-6.4,7.9-14.5,14-24.3,18.3
					c-9.8,4.3-20.3,6.5-31.7,6.5c-9,0-17.7-1.5-26.1-4.5c-8.4-3-15.8-7.3-22.2-12.8c-6.4-5.6-11.6-12.3-15.4-20.2
					C2,82.9,0.1,74.1,0.1,64.3c0-10,1.9-19,5.7-27c3.8-7.9,9-14.7,15.4-20.1C27.6,11.7,35,7.5,43.4,4.6c8.4-2.9,17.1-4.4,26.1-4.4
					C77,0.2,83.5,0.7,89,1.6c5.5,1,10.3,2.2,14.5,3.6c4.1,1.5,7.6,3.1,10.5,4.8c2.9,1.7,5.4,3.4,7.7,4.8v21.8h-18.6l-0.8-8.8
					c-2-1.2-4.1-2.3-6.1-3.3c-2-1-4.3-1.7-6.8-2.4c-2.5-0.6-5.4-1.1-8.5-1.4C77.6,20.6,73.9,20.5,69.6,20.5z"/>
				<path class="st1" d="M129.1,64.3c0-10,1.9-19,5.7-27c3.8-7.9,9-14.7,15.4-20.1c6.4-5.5,13.8-9.7,22.2-12.6
					c8.4-2.9,17.1-4.4,26.1-4.4c9.5,0,18.4,1.5,26.8,4.4c8.4,2.9,15.8,7.1,22.1,12.6c6.3,5.5,11.3,12.2,15.1,20.1
					c3.7,7.9,5.6,16.9,5.6,27c0,9.7-1.9,18.5-5.6,26.4c-3.7,7.9-8.7,14.6-15.1,20.2c-6.3,5.6-13.7,9.9-22.1,12.9
					c-8.4,3-17.3,4.6-26.8,4.6c-9,0-17.7-1.5-26.1-4.5c-8.4-3-15.8-7.3-22.2-12.8c-6.4-5.6-11.6-12.3-15.4-20.2
					C131,82.9,129.1,74.1,129.1,64.3z M198.6,20.5c-7,0-13.4,1.1-19.4,3.2c-5.9,2.1-11.1,5.1-15.4,9c-4.3,3.8-7.8,8.5-10.2,13.9
					c-2.5,5.4-3.7,11.3-3.7,17.8c0,6.4,1.2,12.3,3.7,17.8c2.5,5.4,5.9,10,10.2,13.9c4.3,3.8,9.5,6.8,15.4,9
					c5.9,2.1,12.4,3.2,19.4,3.2c7.4,0,14.1-1.1,20.1-3.2c6-2.1,11.1-5.1,15.3-9c4.2-3.8,7.5-8.5,9.8-13.9c2.3-5.4,3.5-11.3,3.5-17.8
					c0-6.4-1.2-12.3-3.5-17.8c-2.3-5.4-5.6-10-9.8-13.9c-4.2-3.8-9.3-6.8-15.3-9C212.8,21.5,206.1,20.5,198.6,20.5z"/>
				<path class="st1" d="M392.9,36.7h-18.6l-1.7-15h-65.4v84.9h13.4v20.3h-46.8v-20.3h13.2V21.7h-13.2V1.4h119.2V36.7z"/>
				<path class="st1" d="M504.2,21.7h-12.3V1.4h47v20.3h-13.4l-29.6,81.8c-2.9,8.1-7.3,14.1-13.1,18c-5.8,3.9-12.8,5.8-21.1,5.8
					c-6,0-11.2-1.1-15.6-3.3c-4.5-2.2-8.8-5.4-12.9-9.6l12.7-14.7c2.3,2.3,4.7,4,7.3,5.3c2.6,1.3,5.5,1.9,8.6,1.9
					c1.4,0,2.9-0.2,4.6-0.7c1.7-0.4,3.3-1.1,4.9-1.9c1.6-0.8,3-1.9,4.3-3.3c1.3-1.4,2.3-2.9,3-4.7l1.7-5.2h-37.5l-24-69.5h-13.4V1.4
					h26.6L456,70.9h31.3L504.2,21.7z"/>
			</g>
			<g>
				<path class="st2" d="M172.8,55.8h2v13.5h5V72h-13v-2.6h5.4v-9.4l-4,4l-1.7-1.7L172.8,55.8z"/>
				<path class="st2" d="M188.5,55.7c1.3,0,2.5,0.2,3.6,0.6c1.1,0.4,2,0.9,2.7,1.6c0.7,0.7,1.3,1.6,1.7,2.6c0.4,1,0.6,2.1,0.6,3.4
					c0,1.3-0.2,2.4-0.7,3.5c-0.5,1-1.1,1.9-1.9,2.6c-0.8,0.7-1.7,1.2-2.8,1.6c-1.1,0.4-2.2,0.6-3.3,0.6c-0.7,0-1.4,0-2-0.1
					c-0.6-0.1-1.2-0.2-1.7-0.3c-0.6-0.2-1.1-0.4-1.7-0.6c-0.6-0.3-1.2-0.6-1.9-1l1.5-2c0.6,0.3,1.1,0.6,1.5,0.8
					c0.4,0.2,0.9,0.3,1.3,0.5c0.4,0.1,0.9,0.2,1.3,0.2c0.5,0,1,0.1,1.6,0.1c1.7,0,3-0.4,4-1.3c1-0.8,1.6-1.9,1.9-3.3
					c-0.2,0.1-0.5,0.3-0.8,0.5c-0.3,0.2-0.8,0.4-1.3,0.6c-0.5,0.2-1.1,0.3-1.7,0.5c-0.6,0.1-1.3,0.2-2.1,0.2c-1.1,0-2.1-0.1-3.1-0.3
					c-1-0.2-1.8-0.5-2.6-1c-0.7-0.4-1.3-1-1.8-1.6s-0.7-1.4-0.7-2.3c0-1,0.2-1.8,0.7-2.5c0.4-0.7,1-1.3,1.8-1.8
					c0.7-0.5,1.6-0.8,2.6-1.1C186.4,55.9,187.4,55.7,188.5,55.7z M188.5,58.4c-0.7,0-1.3,0.1-2,0.2c-0.6,0.1-1.2,0.3-1.7,0.5
					c-0.5,0.2-0.9,0.5-1.2,0.9c-0.3,0.4-0.5,0.8-0.5,1.3c0,0.4,0.1,0.8,0.3,1.1c0.2,0.3,0.6,0.7,1,0.9c0.4,0.3,1,0.5,1.7,0.6
					c0.7,0.2,1.4,0.2,2.3,0.2c0.7,0,1.4-0.1,2-0.2c0.6-0.1,1.1-0.3,1.6-0.5c0.5-0.2,0.9-0.4,1.3-0.6c0.4-0.2,0.6-0.4,0.9-0.5
					c-0.2-0.6-0.4-1.2-0.7-1.6c-0.3-0.5-0.7-0.9-1.1-1.2c-0.5-0.3-1-0.6-1.7-0.8C190.1,58.4,189.3,58.4,188.5,58.4z"/>
				<path class="st2" d="M212.9,72H198v-2.6c0-0.7,0.1-1.4,0.4-2.1c0.3-0.6,0.7-1.2,1.3-1.8c0.6-0.6,1.4-1.1,2.3-1.6
					c0.9-0.5,2-0.9,3.3-1.4c1-0.3,1.8-0.6,2.4-0.8c0.6-0.2,1-0.4,1.3-0.5c0.3-0.2,0.5-0.3,0.5-0.5c0.1-0.2,0.1-0.4,0.1-0.6
					c0-0.4-0.1-0.7-0.3-0.9c-0.2-0.2-0.5-0.4-0.9-0.5c-0.4-0.1-0.8-0.2-1.3-0.2c-0.5,0-1-0.1-1.6-0.1c-0.6,0-1.2,0.1-1.8,0.2
					c-0.6,0.1-1.1,0.3-1.7,0.5c-0.5,0.2-1,0.5-1.4,0.8c-0.4,0.3-0.8,0.6-1,1l-1.9-1.8c0.4-0.5,0.9-1,1.5-1.4c0.6-0.4,1.3-0.7,1.9-1
					c0.7-0.3,1.4-0.5,2.2-0.7c0.8-0.2,1.5-0.2,2.2-0.2c1,0,1.9,0.1,2.8,0.2c0.9,0.1,1.6,0.4,2.2,0.7c0.6,0.3,1.1,0.8,1.5,1.3
					c0.3,0.6,0.5,1.2,0.5,2.1c0,0.7-0.2,1.2-0.5,1.7c-0.3,0.5-0.7,0.9-1.3,1.2c-0.5,0.3-1.2,0.7-1.9,0.9c-0.8,0.3-1.6,0.6-2.5,0.9
					c-1.1,0.4-2.1,0.8-2.9,1.2c-0.8,0.4-1.4,0.8-1.8,1.2c-0.4,0.4-0.8,0.8-0.9,1.1c-0.2,0.4-0.3,0.7-0.3,0.9h9.7l0.2-1.9h2.4V72z"/>
				<path class="st2" d="M214.1,63.9c0-1.3,0.2-2.4,0.7-3.5c0.4-1,1.1-1.9,1.8-2.6c0.8-0.7,1.7-1.2,2.7-1.6c1-0.4,2.1-0.6,3.3-0.6
					c1.2,0,2.3,0.2,3.4,0.6c1,0.4,1.9,0.9,2.7,1.6c0.8,0.7,1.4,1.6,1.8,2.6c0.4,1,0.6,2.2,0.6,3.5c0,1.2-0.2,2.4-0.6,3.4
					c-0.4,1-1,1.9-1.8,2.6c-0.8,0.7-1.7,1.3-2.7,1.7c-1,0.4-2.2,0.6-3.4,0.6c-1.2,0-2.3-0.2-3.3-0.6c-1-0.4-1.9-0.9-2.7-1.7
					c-0.8-0.7-1.4-1.6-1.8-2.6C214.4,66.3,214.1,65.2,214.1,63.9z M222.6,58.3c-0.9,0-1.7,0.1-2.4,0.4c-0.7,0.3-1.3,0.7-1.8,1.2
					c-0.5,0.5-0.9,1.1-1.2,1.8c-0.3,0.7-0.4,1.5-0.4,2.3c0,0.8,0.1,1.6,0.4,2.3c0.3,0.7,0.7,1.3,1.2,1.8c0.5,0.5,1.1,0.9,1.8,1.2
					c0.7,0.3,1.5,0.4,2.4,0.4c1,0,1.8-0.1,2.5-0.4c0.7-0.3,1.3-0.7,1.8-1.2c0.5-0.5,0.9-1.1,1.1-1.8c0.3-0.7,0.4-1.5,0.4-2.3
					c0-0.8-0.1-1.6-0.4-2.3c-0.3-0.7-0.6-1.3-1.1-1.8c-0.5-0.5-1.1-0.9-1.8-1.2C224.4,58.4,223.6,58.3,222.6,58.3z"/>
			</g>
			<g>
				<path class="st3" d="M59,190.4c-1.3,0-2.5,0.2-3.6,0.6c-1.1,0.4-2.1,1-2.9,1.7c-0.8,0.7-1.4,1.6-1.9,2.6c-0.5,1-0.7,2.1-0.7,3.3
					c0,1.2,0.2,2.3,0.7,3.3c0.5,1,1.1,1.9,1.9,2.6c0.8,0.7,1.8,1.3,2.9,1.7c1.1,0.4,2.3,0.6,3.6,0.6c1.7,0,3.2-0.3,4.5-0.9
					c1.3-0.6,2.3-1.4,3.1-2.5l2.8,2.5c-1.2,1.5-2.7,2.6-4.5,3.4c-1.8,0.8-3.8,1.2-5.9,1.2c-1.7,0-3.3-0.3-4.9-0.8
					c-1.6-0.6-2.9-1.3-4.1-2.4c-1.2-1-2.1-2.3-2.9-3.8c-0.7-1.5-1.1-3.1-1.1-4.9c0-1.9,0.4-3.5,1.1-5c0.7-1.5,1.7-2.7,2.9-3.7
					c1.2-1,2.6-1.8,4.1-2.3c1.6-0.5,3.2-0.8,4.9-0.8c1.4,0,2.6,0.1,3.6,0.3c1,0.2,1.9,0.4,2.7,0.7c0.8,0.3,1.4,0.6,1.9,0.9
					c0.5,0.3,1,0.6,1.4,0.9v4.1h-3.5l-0.2-1.6c-0.4-0.2-0.8-0.4-1.1-0.6c-0.4-0.2-0.8-0.3-1.3-0.4c-0.5-0.1-1-0.2-1.6-0.3
					C60.5,190.4,59.8,190.4,59,190.4z"/>
				<path class="st3" d="M93.7,193.4h-3.5l-0.3-2.8H78.1v5.4H88v3.8h-9.9v6.6h12.2l0.3-2.8H94v6.6H71.9v-3.8h2.5v-15.8h-2.5v-3.8
					h21.8V193.4z"/>
				<path class="st3" d="M114.2,210.1H97.5v-3.8h2.4v-15.8h-2.4v-3.8h15.6c0.9,0,1.7,0.2,2.5,0.5c0.8,0.3,1.5,0.8,2.1,1.4
					c0.6,0.6,1,1.3,1.4,2.1c0.3,0.8,0.5,1.6,0.5,2.5c0,0.8-0.1,1.5-0.4,2.2c-0.3,0.7-0.6,1.3-1,1.8c1,0.6,1.7,1.4,2.2,2.5
					c0.5,1.1,0.8,2.2,0.8,3.3c0,1-0.2,1.9-0.6,2.8c-0.4,0.9-0.9,1.6-1.5,2.3c-0.6,0.6-1.4,1.2-2.3,1.5
					C116,209.9,115.1,210.1,114.2,210.1z M115.8,193.2c0-0.7-0.3-1.4-0.8-1.9c-0.5-0.5-1.2-0.8-1.9-0.8h-9.4v5.4h9.4
					c0.4,0,0.7-0.1,1.1-0.2c0.3-0.1,0.6-0.3,0.8-0.6c0.2-0.2,0.4-0.5,0.6-0.8C115.8,194,115.8,193.6,115.8,193.2z M114.3,199.7
					h-10.5v6.6h10.4c0.5,0,0.9-0.1,1.3-0.3c0.4-0.2,0.7-0.4,1.1-0.7c0.3-0.3,0.5-0.6,0.7-1.1c0.2-0.4,0.3-0.8,0.3-1.3
					c0-0.4-0.1-0.9-0.3-1.3c-0.2-0.4-0.4-0.7-0.7-1c-0.3-0.3-0.6-0.5-1-0.7C115.1,199.8,114.7,199.7,114.3,199.7z"/>
				<path class="st3" d="M145.8,193.4h-3.5l-0.3-2.8h-11.8v5.4h9.9v3.8h-9.9v6.6h12.2l0.3-2.8h3.5v6.6h-22.1v-3.8h2.5v-15.8h-2.5
					v-3.8h21.8V193.4z"/>
				<path class="st3" d="M158.3,210.1h-8.7v-3.8h2.4v-15.8h-2.4v-3.8h14.9c1.1,0,2.1,0.2,3.1,0.6c1,0.4,1.8,1,2.6,1.8
					c0.8,0.8,1.4,1.7,1.8,2.7c0.4,1,0.6,2.1,0.6,3.2c0,1.1-0.2,2.2-0.6,3.2c-0.4,1-1,1.9-1.8,2.7c-0.8,0.8-1.6,1.3-2.6,1.8
					c-1,0.4-2,0.7-3.1,0.7h-8.7v2.9h2.5V210.1z M168.8,195.1c0-0.6-0.1-1.2-0.4-1.8c-0.2-0.6-0.6-1-1-1.4c-0.4-0.4-0.9-0.7-1.5-1
					c-0.6-0.2-1.2-0.4-1.8-0.4h-8.4v9.1h8.6c0.6,0,1.2-0.1,1.7-0.4c0.5-0.2,1-0.6,1.4-1c0.4-0.4,0.7-0.9,0.9-1.5
					C168.7,196.3,168.8,195.8,168.8,195.1z"/>
				<path class="st3" d="M176,198.5c0-1.9,0.4-3.5,1.1-5c0.7-1.5,1.7-2.7,2.9-3.7c1.2-1,2.6-1.8,4.1-2.3c1.6-0.5,3.2-0.8,4.9-0.8
					c1.8,0,3.4,0.3,5,0.8c1.6,0.5,2.9,1.3,4.1,2.3c1.2,1,2.1,2.3,2.8,3.7c0.7,1.5,1,3.1,1,5c0,1.8-0.3,3.4-1,4.9
					c-0.7,1.5-1.6,2.7-2.8,3.8c-1.2,1-2.5,1.8-4.1,2.4c-1.6,0.6-3.2,0.8-5,0.8c-1.7,0-3.3-0.3-4.9-0.8c-1.6-0.6-2.9-1.3-4.1-2.4
					c-1.2-1-2.1-2.3-2.9-3.8C176.3,201.9,176,200.3,176,198.5z M188.9,190.4c-1.3,0-2.5,0.2-3.6,0.6c-1.1,0.4-2.1,1-2.9,1.7
					c-0.8,0.7-1.4,1.6-1.9,2.6c-0.5,1-0.7,2.1-0.7,3.3c0,1.2,0.2,2.3,0.7,3.3c0.5,1,1.1,1.9,1.9,2.6c0.8,0.7,1.8,1.3,2.9,1.7
					c1.1,0.4,2.3,0.6,3.6,0.6c1.4,0,2.6-0.2,3.7-0.6c1.1-0.4,2.1-1,2.8-1.7c0.8-0.7,1.4-1.6,1.8-2.6c0.4-1,0.6-2.1,0.6-3.3
					c0-1.2-0.2-2.3-0.6-3.3c-0.4-1-1-1.9-1.8-2.6c-0.8-0.7-1.7-1.3-2.8-1.7C191.5,190.6,190.3,190.4,188.9,190.4z"/>
				<path class="st3" d="M206.2,201.7v-3.5h10.1v3.5H206.2z"/>
				<path class="st3" d="M220.7,198.5c0-1.9,0.4-3.5,1.1-5c0.7-1.5,1.7-2.7,2.9-3.7c1.2-1,2.6-1.8,4.1-2.3c1.6-0.5,3.2-0.8,4.9-0.8
					c1.8,0,3.4,0.3,5,0.8c1.6,0.5,2.9,1.3,4.1,2.3c1.2,1,2.1,2.3,2.8,3.7c0.7,1.5,1,3.1,1,5c0,1.8-0.3,3.4-1,4.9
					c-0.7,1.5-1.6,2.7-2.8,3.8c-1.2,1-2.5,1.8-4.1,2.4c-1.6,0.6-3.2,0.8-5,0.8c-1.7,0-3.3-0.3-4.9-0.8c-1.6-0.6-2.9-1.3-4.1-2.4
					c-1.2-1-2.1-2.3-2.9-3.8C221,201.9,220.7,200.3,220.7,198.5z M233.6,190.4c-1.3,0-2.5,0.2-3.6,0.6c-1.1,0.4-2.1,1-2.9,1.7
					c-0.8,0.7-1.4,1.6-1.9,2.6c-0.5,1-0.7,2.1-0.7,3.3c0,1.2,0.2,2.3,0.7,3.3c0.5,1,1.1,1.9,1.9,2.6c0.8,0.7,1.8,1.3,2.9,1.7
					c1.1,0.4,2.3,0.6,3.6,0.6c1.4,0,2.6-0.2,3.7-0.6c1.1-0.4,2.1-1,2.8-1.7c0.8-0.7,1.4-1.6,1.8-2.6c0.4-1,0.6-2.1,0.6-3.3
					c0-1.2-0.2-2.3-0.6-3.3c-0.4-1-1-1.9-1.8-2.6c-0.8-0.7-1.7-1.3-2.8-1.7C236.2,190.6,235,190.4,233.6,190.4z"/>
				<path class="st3" d="M263,190.4c-1.3,0-2.5,0.2-3.6,0.6c-1.1,0.4-2.1,1-2.9,1.7c-0.8,0.7-1.4,1.6-1.9,2.6
					c-0.5,1-0.7,2.1-0.7,3.3c0,1.2,0.2,2.3,0.7,3.3c0.5,1,1.1,1.9,1.9,2.6c0.8,0.7,1.8,1.3,2.9,1.7c1.1,0.4,2.3,0.6,3.6,0.6
					c1.7,0,3.2-0.3,4.5-0.9c1.3-0.6,2.3-1.4,3.1-2.5l2.8,2.5c-1.2,1.5-2.7,2.6-4.5,3.4c-1.8,0.8-3.8,1.2-5.9,1.2
					c-1.7,0-3.3-0.3-4.9-0.8c-1.6-0.6-2.9-1.3-4.1-2.4c-1.2-1-2.1-2.3-2.9-3.8c-0.7-1.5-1.1-3.1-1.1-4.9c0-1.9,0.4-3.5,1.1-5
					c0.7-1.5,1.7-2.7,2.9-3.7c1.2-1,2.6-1.8,4.1-2.3c1.6-0.5,3.2-0.8,4.9-0.8c1.4,0,2.6,0.1,3.6,0.3c1,0.2,1.9,0.4,2.7,0.7
					c0.8,0.3,1.4,0.6,1.9,0.9c0.5,0.3,1,0.6,1.4,0.9v4.1h-3.5l-0.2-1.6c-0.4-0.2-0.8-0.4-1.1-0.6c-0.4-0.2-0.8-0.3-1.3-0.4
					c-0.5-0.1-1-0.2-1.6-0.3C264.5,190.4,263.8,190.4,263,190.4z"/>
				<path class="st3" d="M297.7,193.4h-3.5l-0.3-2.8h-11.8v5.4h9.9v3.8h-9.9v6.6h12.2l0.3-2.8h3.5v6.6h-22.1v-3.8h2.4v-15.8h-2.4
					v-3.8h21.8V193.4z"/>
				<path class="st3" d="M304.3,193.4h-3.5v-6.6h25.3v6.6h-3.5l-0.3-2.8h-7v15.8h2.5v3.8h-8.7v-3.8h2.5v-15.8h-7L304.3,193.4z"/>
				<path class="st3" d="M346,206.3h2.5v-15.8h-0.9l-8.5,19.5h-7v-19.5h-2.5v-3.8h8.7v3.8h-2.5v15.8h0.9l8.5-19.5h9.5v3.8h-2.4v15.8
					h2.4v3.8H346V206.3z"/>
				<path class="st3" d="M366.9,190.6h-2.5v5.4h12.7v-5.4h-2.5v-3.8h8.7v3.8h-2.5v15.8h2.5v3.8h-8.7v-3.8h2.5v-6.6h-12.7v6.6h2.5
					v3.8h-8.7v-3.8h2.4v-15.8h-2.4v-3.8h8.7V190.6z"/>
				<path class="st3" d="M398.8,190.4c-1.3,0-2.5,0.2-3.6,0.6c-1.1,0.4-2.1,1-2.9,1.7c-0.8,0.7-1.4,1.6-1.9,2.6
					c-0.5,1-0.7,2.1-0.7,3.3c0,1.2,0.2,2.3,0.7,3.3c0.5,1,1.1,1.9,1.9,2.6c0.8,0.7,1.8,1.3,2.9,1.7c1.1,0.4,2.3,0.6,3.6,0.6
					c1.7,0,3.2-0.3,4.5-0.9c1.3-0.6,2.3-1.4,3.1-2.5l2.8,2.5c-1.2,1.5-2.7,2.6-4.5,3.4c-1.8,0.8-3.8,1.2-5.9,1.2
					c-1.7,0-3.3-0.3-4.9-0.8c-1.6-0.6-2.9-1.3-4.1-2.4c-1.2-1-2.1-2.3-2.9-3.8c-0.7-1.5-1.1-3.1-1.1-4.9c0-1.9,0.4-3.5,1.1-5
					c0.7-1.5,1.7-2.7,2.9-3.7c1.2-1,2.6-1.8,4.1-2.3c1.6-0.5,3.2-0.8,4.9-0.8c1.4,0,2.6,0.1,3.6,0.3c1,0.2,1.9,0.4,2.7,0.7
					c0.8,0.3,1.4,0.6,1.9,0.9c0.5,0.3,1,0.6,1.4,0.9v4.1H405l-0.2-1.6c-0.4-0.2-0.8-0.4-1.1-0.6c-0.4-0.2-0.8-0.3-1.3-0.4
					c-0.5-0.1-1-0.2-1.6-0.3C400.3,190.4,399.6,190.4,398.8,190.4z"/>
				<path class="st3" d="M418.2,195.9h3.5c0.5,0,1.1-0.1,1.5-0.4c0.5-0.3,0.8-0.7,1.1-1.2l2.3-4.4c0.5-0.9,1.2-1.7,2-2.3
					c0.9-0.6,1.9-0.9,3-0.9c0.8,0,1.6,0.2,2.4,0.7c0.8,0.4,1.4,1.1,2,1.9l-2.4,2.4c-0.7-0.8-1.4-1.2-1.9-1.2c-0.3,0-0.6,0.1-0.9,0.3
					c-0.3,0.2-0.5,0.4-0.7,0.7l-2.2,4.3c-0.1,0.2-0.2,0.4-0.4,0.6c-0.2,0.2-0.4,0.4-0.6,0.6c-0.2,0.2-0.4,0.4-0.6,0.5
					c-0.2,0.1-0.4,0.2-0.5,0.3c0.1,0,0.3,0.1,0.5,0.2c0.2,0.1,0.4,0.3,0.6,0.4c0.2,0.2,0.4,0.3,0.5,0.5c0.2,0.2,0.3,0.4,0.4,0.5
					l2.3,5c0.3,0.6,0.6,1.1,0.9,1.4c0.3,0.4,0.9,0.5,1.6,0.5c0.6,0,1-0.1,1.4-0.3c0.3-0.2,0.7-0.5,1.1-1l2.4,2.7
					c-0.4,0.4-0.7,0.7-1.1,1s-0.7,0.6-1.1,0.8c-0.4,0.2-0.8,0.4-1.2,0.5c-0.4,0.1-0.9,0.2-1.5,0.2c-1.5,0-2.8-0.4-3.7-1.2
					c-1-0.8-1.8-1.9-2.4-3.3l-1.9-4.2c-0.2-0.5-0.6-1-1.1-1.3s-1-0.5-1.6-0.5h-3.5v6.6h2.5v3.8H412v-3.8h2.5v-15.8H412v-3.8h8.7v3.8
					h-2.5V195.9z"/>
				<path class="st3" d="M455.9,206.3h2.5v-15.8h-0.9l-8.5,19.5h-7v-19.5h-2.5v-3.8h8.7v3.8h-2.5v15.8h0.9l8.5-19.5h9.5v3.8h-2.5
					v15.8h2.5v3.8h-8.7V206.3z"/>
				<path class="st3" d="M484.5,206.3h2.5v-15.8h-0.9l-8.5,19.5h-7v-19.5h-2.5v-3.8h8.7v3.8h-2.5v15.8h0.9l8.5-19.5h9.5v3.8h-2.4
					v15.8h2.4v3.8h-8.7V206.3z M480.6,184.7c-1.1,0-2.1-0.2-3.1-0.6c-1-0.4-1.9-1-2.6-1.8l1.7-2.1c0.2,0.2,0.5,0.4,0.8,0.5
					c0.3,0.2,0.7,0.3,1.1,0.4c0.4,0.1,0.8,0.2,1.1,0.3c0.4,0.1,0.7,0.1,1,0.1c0.3,0,0.6,0,1-0.1c0.4-0.1,0.8-0.1,1.1-0.3
					c0.4-0.1,0.7-0.3,1.1-0.4c0.3-0.2,0.6-0.3,0.8-0.5l1.7,2.1c-0.8,0.8-1.7,1.4-2.6,1.8C482.8,184.5,481.7,184.7,480.6,184.7z"/>
				<path class="st3" d="M70.5,233.8h-3.7l-0.3-3H53.4v17H56v4.1h-9.4v-4.1h2.6v-17h-2.6v-4.1h23.8V233.8z"/>
				<path class="st3" d="M73,239.3c0-2,0.4-3.8,1.2-5.4c0.8-1.6,1.8-2.9,3.1-4c1.3-1.1,2.8-1.9,4.4-2.5c1.7-0.6,3.4-0.9,5.2-0.9
					c1.9,0,3.7,0.3,5.4,0.9c1.7,0.6,3.2,1.4,4.4,2.5c1.3,1.1,2.3,2.4,3,4c0.7,1.6,1.1,3.4,1.1,5.4c0,1.9-0.4,3.7-1.1,5.3
					c-0.7,1.6-1.7,2.9-3,4c-1.3,1.1-2.7,2-4.4,2.6c-1.7,0.6-3.5,0.9-5.4,0.9c-1.8,0-3.5-0.3-5.2-0.9c-1.7-0.6-3.2-1.5-4.4-2.6
					c-1.3-1.1-2.3-2.5-3.1-4C73.4,243,73,241.2,73,239.3z M87,230.5c-1.4,0-2.7,0.2-3.9,0.6c-1.2,0.4-2.2,1-3.1,1.8
					c-0.9,0.8-1.6,1.7-2,2.8c-0.5,1.1-0.7,2.3-0.7,3.6c0,1.3,0.2,2.5,0.7,3.6c0.5,1.1,1.2,2,2,2.8c0.9,0.8,1.9,1.4,3.1,1.8
					c1.2,0.4,2.5,0.6,3.9,0.6c1.5,0,2.8-0.2,4-0.6c1.2-0.4,2.2-1,3.1-1.8c0.8-0.8,1.5-1.7,2-2.8c0.5-1.1,0.7-2.3,0.7-3.6
					c0-1.3-0.2-2.5-0.7-3.6c-0.5-1.1-1.1-2-2-2.8c-0.8-0.8-1.9-1.4-3.1-1.8C89.8,230.7,88.4,230.5,87,230.5z"/>
				<path class="st3" d="M118.9,230.5c-1.4,0-2.7,0.2-3.9,0.6c-1.2,0.4-2.2,1-3.1,1.8c-0.9,0.8-1.6,1.7-2,2.8
					c-0.5,1.1-0.7,2.3-0.7,3.6c0,1.3,0.2,2.5,0.7,3.6c0.5,1.1,1.2,2,2,2.8c0.9,0.8,1.9,1.4,3.1,1.8c1.2,0.4,2.5,0.6,3.9,0.6
					c1.8,0,3.5-0.3,4.9-1c1.4-0.6,2.5-1.5,3.3-2.7l3,2.7c-1.3,1.6-2.9,2.8-4.9,3.7c-2,0.9-4.1,1.3-6.3,1.3c-1.8,0-3.5-0.3-5.2-0.9
					c-1.7-0.6-3.2-1.5-4.4-2.6c-1.3-1.1-2.3-2.5-3.1-4c-0.8-1.6-1.1-3.3-1.1-5.3c0-2,0.4-3.8,1.1-5.4c0.8-1.6,1.8-2.9,3.1-4
					c1.3-1.1,2.8-1.9,4.4-2.5c1.7-0.6,3.4-0.9,5.2-0.9c1.5,0,2.8,0.1,3.9,0.3c1.1,0.2,2.1,0.4,2.9,0.7c0.8,0.3,1.5,0.6,2.1,1
					c0.6,0.4,1.1,0.7,1.5,1v4.4h-3.7l-0.2-1.8c-0.4-0.2-0.8-0.5-1.2-0.7c-0.4-0.2-0.9-0.3-1.4-0.5c-0.5-0.1-1.1-0.2-1.7-0.3
					C120.5,230.5,119.7,230.5,118.9,230.5z"/>
				<path class="st3" d="M152.7,230.8h-2.5v-4.1h9.4v4.1h-2.7l-5.9,16.4c-0.6,1.6-1.5,2.8-2.6,3.6c-1.2,0.8-2.6,1.2-4.2,1.2
					c-1.2,0-2.2-0.2-3.1-0.7c-0.9-0.4-1.8-1.1-2.6-1.9l2.5-2.9c0.5,0.5,0.9,0.8,1.5,1.1c0.5,0.3,1.1,0.4,1.7,0.4
					c0.3,0,0.6,0,0.9-0.1c0.3-0.1,0.7-0.2,1-0.4c0.3-0.2,0.6-0.4,0.9-0.7c0.3-0.3,0.5-0.6,0.6-0.9l0.3-1h-7.5l-4.8-13.9h-2.7v-4.1
					h5.3l4.8,13.9h6.3L152.7,230.8z"/>
				<path class="st3" d="M159.4,247.7h0.2c1.1,0,2.1-0.4,2.9-1.2c0.8-0.7,1.3-1.7,1.6-2.9l2.2-12.8h-3.1v-4.1h20.2v21h3.2v8.8h-3.7
					l-0.3-4.7h-19l-0.3,4.7h-3.7V247.7z M166.4,247.7h12.8v-17h-8.9l-2.3,13.6c-0.1,0.6-0.3,1.2-0.6,1.9
					C167.1,246.8,166.8,247.3,166.4,247.7z"/>
				<path class="st3" d="M218.1,251.8h-9.4v-4.1h2.5l-0.9-3.1H198l-0.9,3.1h2.5v4.1h-9.4v-4.1h2.7l5-17h-2.1v-4.1h13.4l6.2,21h2.7
					V251.8z M199.2,240.6h9.8l-2.9-9.8h-4L199.2,240.6z"/>
				<path class="st3" d="M231.1,251.8h-9.4v-4.1h2.6v-17h-2.6v-4.1h16c1.2,0,2.2,0.2,3.3,0.7c1,0.5,2,1.1,2.8,1.9
					c0.9,0.9,1.5,1.8,2,2.9c0.5,1.1,0.7,2.2,0.7,3.4c0,1.2-0.2,2.4-0.7,3.4c-0.5,1.1-1.1,2.1-2,2.9c-0.8,0.8-1.7,1.5-2.8,1.9
					c-1,0.5-2.1,0.7-3.3,0.7h-9.3v3.1h2.7V251.8z M242.5,235.7c0-0.7-0.1-1.3-0.4-1.9c-0.3-0.6-0.6-1.1-1-1.6c-0.4-0.4-1-0.8-1.6-1
					c-0.6-0.3-1.3-0.4-1.9-0.4h-9.1v9.8h9.3c0.7,0,1.3-0.1,1.8-0.4c0.6-0.3,1.1-0.6,1.5-1.1c0.4-0.5,0.8-1,1-1.6
					C242.3,237,242.5,236.3,242.5,235.7z"/>
				<path class="st3" d="M264.4,230.5c-1.4,0-2.7,0.2-3.9,0.6c-1.2,0.4-2.2,1-3.1,1.8c-0.9,0.8-1.6,1.7-2,2.8
					c-0.5,1.1-0.7,2.3-0.7,3.6c0,1.3,0.2,2.5,0.7,3.6c0.5,1.1,1.2,2,2,2.8c0.9,0.8,1.9,1.4,3.1,1.8c1.2,0.4,2.5,0.6,3.9,0.6
					c1.8,0,3.5-0.3,4.9-1c1.4-0.6,2.5-1.5,3.3-2.7l3,2.7c-1.3,1.6-2.9,2.8-4.9,3.7c-2,0.9-4.1,1.3-6.3,1.3c-1.8,0-3.5-0.3-5.2-0.9
					c-1.7-0.6-3.2-1.5-4.4-2.6c-1.3-1.1-2.3-2.5-3.1-4c-0.8-1.6-1.2-3.3-1.2-5.3c0-2,0.4-3.8,1.2-5.4c0.8-1.6,1.8-2.9,3.1-4
					c1.3-1.1,2.8-1.9,4.4-2.5c1.7-0.6,3.4-0.9,5.2-0.9c1.5,0,2.8,0.1,3.9,0.3c1.1,0.2,2.1,0.4,2.9,0.7c0.8,0.3,1.5,0.6,2.1,1
					c0.6,0.4,1.1,0.7,1.5,1v4.4h-3.7l-0.2-1.8c-0.4-0.2-0.8-0.5-1.2-0.7c-0.4-0.2-0.9-0.3-1.4-0.5c-0.5-0.1-1.1-0.2-1.7-0.3
					C266,230.5,265.2,230.5,264.4,230.5z"/>
				<path class="st3" d="M282.5,233.8h-3.7v-7.1H306v7.1h-3.7l-0.3-3h-7.5v17h2.7v4.1h-9.4v-4.1h2.7v-17h-7.5L282.5,233.8z"/>
				<path class="st3" d="M327.5,251.8h-17.9v-4.1h2.6v-17h-2.6v-4.1h16.8c0.9,0,1.8,0.2,2.7,0.5c0.8,0.4,1.6,0.9,2.2,1.5
					c0.6,0.6,1.1,1.4,1.5,2.2c0.4,0.8,0.5,1.7,0.5,2.7c0,0.8-0.1,1.6-0.4,2.3c-0.3,0.7-0.6,1.4-1.1,2c1,0.7,1.8,1.6,2.4,2.7
					c0.6,1.1,0.9,2.3,0.9,3.5c0,1.1-0.2,2.1-0.6,3c-0.4,0.9-1,1.7-1.7,2.4c-0.7,0.7-1.5,1.2-2.4,1.6
					C329.6,251.6,328.6,251.8,327.5,251.8z M329.3,233.6c0-0.8-0.3-1.5-0.8-2c-0.6-0.6-1.2-0.8-2-0.8h-10.1v5.8h10.1
					c0.4,0,0.8-0.1,1.1-0.2c0.3-0.2,0.7-0.4,0.9-0.6c0.3-0.3,0.5-0.6,0.6-0.9C329.3,234.4,329.3,234,329.3,233.6z M327.6,240.6
					h-11.3v7.1h11.2c0.5,0,1-0.1,1.4-0.3c0.4-0.2,0.8-0.4,1.1-0.8c0.3-0.3,0.6-0.7,0.8-1.1c0.2-0.4,0.3-0.9,0.3-1.4
					c0-0.5-0.1-0.9-0.3-1.4c-0.2-0.4-0.4-0.8-0.8-1.1c-0.3-0.3-0.7-0.6-1.1-0.8C328.6,240.7,328.1,240.6,327.6,240.6z"/>
				<path class="st3" d="M361.8,233.8h-3.7l-0.3-3H345v5.8h10.7v4.1H345v7.1h13.1l0.3-3h3.7v7.1h-23.8v-4.1h2.6v-17h-2.6v-4.1h23.5
					V233.8z"/>
				<path class="st3" d="M375.2,230.8h-2.7v5.8h13.7v-5.8h-2.7v-4.1h9.4v4.1h-2.7v17h2.7v4.1h-9.4v-4.1h2.7v-7.1h-13.7v7.1h2.7v4.1
					h-9.4v-4.1h2.6v-17h-2.6v-4.1h9.4V230.8z"/>
				<path class="st3" d="M406.2,230.8h-2.7v5.8h13.7v-5.8h-2.7v-4.1h9.4v4.1h-2.7v17h2.7v4.1h-9.4v-4.1h2.7v-7.1h-13.7v7.1h2.7v4.1
					h-9.4v-4.1h2.6v-17h-2.6v-4.1h9.4V230.8z"/>
				<path class="st3" d="M444.2,251.8h-16.3v-4.1h2.6v-17h-2.6v-4.1h9.4v4.1h-2.7v5.8h9.6c1,0,2,0.2,2.9,0.6c0.9,0.4,1.7,1,2.4,1.6
					c0.7,0.7,1.2,1.5,1.6,2.4c0.4,0.9,0.6,1.9,0.6,2.9c0,1.1-0.2,2.1-0.6,3c-0.4,0.9-1,1.7-1.7,2.4c-0.7,0.7-1.5,1.2-2.4,1.6
					C446.1,251.6,445.2,251.8,444.2,251.8z M447.7,244.1c0-0.5-0.1-1-0.3-1.4c-0.2-0.4-0.5-0.8-0.8-1.1c-0.3-0.3-0.7-0.6-1.1-0.8
					c-0.4-0.2-0.9-0.3-1.4-0.3h-9.5v7.1h9.5c0.5,0,1-0.1,1.4-0.3c0.4-0.2,0.8-0.4,1.1-0.8c0.3-0.3,0.6-0.7,0.8-1.1
					C447.6,245.1,447.7,244.6,447.7,244.1z M462.3,230.8h-2.7v17h2.7v4.1h-9.4v-4.1h2.6v-17h-2.6v-4.1h9.4V230.8z"/>
				<path class="st3" d="M483.2,247.7h2.7v-17h-1l-9.2,21h-7.5v-21h-2.7v-4.1h9.4v4.1h-2.7v17h1l9.2-21h10.2v4.1H490v17h2.6v4.1
					h-9.4V247.7z M479,224.4c-1.2,0-2.3-0.2-3.4-0.7c-1.1-0.4-2-1.1-2.8-1.9l1.9-2.2c0.2,0.2,0.5,0.4,0.9,0.6
					c0.4,0.2,0.7,0.3,1.2,0.4c0.4,0.1,0.8,0.2,1.2,0.3c0.4,0.1,0.8,0.1,1.1,0.1c0.3,0,0.7,0,1.1-0.1c0.4-0.1,0.8-0.1,1.2-0.3
					c0.4-0.1,0.8-0.3,1.2-0.4c0.4-0.2,0.7-0.4,0.9-0.6l1.9,2.2c-0.8,0.8-1.8,1.5-2.8,1.9C481.3,224.2,480.2,224.4,479,224.4z"/>
				<path class="st3" d="M75.3,274.9h-3.5v-5.8h13.4v5.8h-3.8l-8.5,23.4c-0.8,2.3-2.1,4-3.7,5.1c-1.7,1.1-3.7,1.7-6,1.7
					c-1.7,0-3.2-0.3-4.5-0.9c-1.3-0.6-2.5-1.5-3.7-2.7l3.6-4.2c0.6,0.6,1.3,1.2,2.1,1.5c0.7,0.4,1.6,0.6,2.5,0.6
					c0.4,0,0.8-0.1,1.3-0.2c0.5-0.1,1-0.3,1.4-0.6c0.5-0.2,0.9-0.6,1.2-0.9c0.4-0.4,0.7-0.8,0.8-1.4l0.5-1.5H57.7l-6.9-19.9H47v-5.8
					h7.6l6.9,19.9h8.9L75.3,274.9z"/>
				<path class="st3" d="M102,274.9h-3.8v8.3h19.6v-8.3H114v-5.8h13.4v5.8h-3.8v24.2h3.8v5.8H114v-5.8h3.8v-10.2H98.2v10.2h3.9v5.8
					H88.7v-5.8h3.8v-24.2h-3.8v-5.8H102V274.9z"/>
				<path class="st3" d="M156.7,299.1h3.8v-24.2h-1.4l-13.1,30h-10.7v-30h-3.8v-5.8h13.4v5.8H141v24.2h1.4l13.1-30h14.5v5.8h-3.8
					v24.2h3.8v5.8h-13.4V299.1z"/>
				<path class="st3" d="M199.8,304.9h-25.6v-5.8h3.8v-24.2h-3.8v-5.8h24.1c1.4,0,2.6,0.3,3.8,0.8c1.2,0.5,2.3,1.2,3.2,2.1
					c0.9,0.9,1.6,2,2.1,3.2c0.5,1.2,0.8,2.5,0.8,3.8c0,1.2-0.2,2.3-0.6,3.3c-0.4,1-0.9,2-1.5,2.8c1.5,0.9,2.6,2.2,3.5,3.9
					c0.8,1.6,1.2,3.3,1.2,5c0,1.5-0.3,2.9-0.9,4.2c-0.6,1.3-1.4,2.5-2.4,3.5c-1,1-2.2,1.8-3.5,2.3
					C202.7,304.6,201.3,304.9,199.8,304.9z M202.4,279c0-1.1-0.4-2.1-1.2-2.9c-0.8-0.8-1.8-1.2-2.9-1.2h-14.5v8.3h14.5
					c0.6,0,1.1-0.1,1.6-0.3c0.5-0.2,0.9-0.5,1.3-0.9c0.4-0.4,0.7-0.8,0.9-1.3C202.3,280.1,202.4,279.6,202.4,279z M200,288.9h-16.2
					v10.2h16c0.7,0,1.4-0.1,2-0.4c0.6-0.3,1.2-0.6,1.6-1.1c0.5-0.5,0.8-1,1.1-1.6c0.3-0.6,0.4-1.3,0.4-2c0-0.7-0.1-1.3-0.4-1.9
					c-0.3-0.6-0.6-1.1-1.1-1.6c-0.5-0.4-1-0.8-1.6-1.1C201.3,289.1,200.7,289,200,288.9z"/>
				<path class="st3" d="M247.2,279.2h-5.3l-0.5-4.3h-18.2v8.3h15.2v5.8h-15.2v10.2h18.7l0.5-4.3h5.3v10.1h-34.1v-5.8h3.8v-24.2
					h-3.8v-5.8h33.6V279.2z"/>
				<path class="st3" d="M265.3,304.9h-13.4v-5.8h3.8v-24.2h-3.8v-5.8h22.9c1.6,0,3.2,0.3,4.7,1c1.5,0.7,2.8,1.6,4,2.8
					c1.2,1.2,2.2,2.6,2.8,4.1c0.6,1.5,1,3.2,1,4.9c0,1.7-0.3,3.4-1,4.9c-0.6,1.5-1.6,2.9-2.8,4.2c-1.2,1.2-2.5,2.1-4,2.8
					c-1.5,0.7-3.1,1-4.7,1h-13.3v4.4h3.8V304.9z M281.4,281.9c0-1-0.2-1.9-0.6-2.7c-0.4-0.9-0.9-1.6-1.5-2.2
					c-0.6-0.6-1.4-1.1-2.2-1.5c-0.9-0.4-1.8-0.6-2.8-0.6h-12.9v14.1h13.2c0.9,0,1.8-0.2,2.6-0.6c0.8-0.4,1.5-0.9,2.2-1.5
					c0.6-0.6,1.1-1.4,1.4-2.2C281.3,283.8,281.4,282.8,281.4,281.9z"/>
				<path class="st3" d="M311.2,274.5c-2,0-3.8,0.3-5.5,0.9c-1.7,0.6-3.2,1.5-4.4,2.6c-1.2,1.1-2.2,2.4-2.9,4
					c-0.7,1.5-1.1,3.2-1.1,5.1c0,1.8,0.4,3.5,1.1,5.1c0.7,1.5,1.7,2.9,2.9,4c1.2,1.1,2.7,1.9,4.4,2.6c1.7,0.6,3.5,0.9,5.5,0.9
					c2.6,0,5-0.5,6.9-1.4c2-0.9,3.6-2.2,4.8-3.8l4.3,3.9c-1.8,2.3-4.1,4-6.9,5.2c-2.8,1.2-5.8,1.9-9.1,1.9c-2.6,0-5.1-0.4-7.5-1.3
					c-2.4-0.9-4.5-2.1-6.4-3.7c-1.8-1.6-3.3-3.5-4.4-5.8c-1.1-2.3-1.6-4.8-1.6-7.6c0-2.9,0.5-5.4,1.6-7.7c1.1-2.3,2.6-4.2,4.4-5.7
					c1.8-1.6,4-2.8,6.4-3.6c2.4-0.8,4.9-1.3,7.5-1.3c2.1,0,4,0.1,5.6,0.4c1.6,0.3,3,0.6,4.1,1c1.2,0.4,2.2,0.9,3,1.4
					c0.8,0.5,1.6,1,2.2,1.4v6.2h-5.3l-0.2-2.5c-0.6-0.4-1.2-0.7-1.7-0.9c-0.6-0.3-1.2-0.5-2-0.7c-0.7-0.2-1.5-0.3-2.4-0.4
					C313.4,274.6,312.4,274.5,311.2,274.5z"/>
				<path class="st3" d="M355,299.1h3.8v-24.2h-1.5l-13.1,30h-10.7v-30h-3.8v-5.8h13.4v5.8h-3.8v24.2h1.4l13.1-30h14.5v5.8h-3.8
					v24.2h3.8v5.8H355V299.1z"/>
				<path class="st3" d="M377.8,279.2h-5.3v-10.1h38.9v10.1h-5.3l-0.5-4.3h-10.8v24.2h3.8v5.8h-13.4v-5.8h3.8v-24.2h-10.7
					L377.8,279.2z"/>
				<path class="st3" d="M449.1,279.2h-5.3l-0.5-4.3h-18.2v8.3h15.2v5.8h-15.2v10.2h18.7l0.5-4.3h5.3v10.1h-34.1v-5.8h3.8v-24.2
					h-3.8v-5.8h33.6V279.2z"/>
				<path class="st3" d="M458.1,279.2h-5.3v-10.1h38.9v10.1h-5.3l-0.5-4.3h-10.8v24.2h3.8v5.8h-13.4v-5.8h3.8v-24.2h-10.7
					L458.1,279.2z"/>
				<path class="st3" d="M60.7,323.7h-1.6v7.4h1.6v2.5H55v-2.5h1.6v-7.4h-0.9l-2.6,9.9h-5v-9.9h-1.6v-2.5h4.1v9.9h0.8l2.6-9.9h6.6
					V323.7z"/>
				<path class="st3" d="M69.2,321.2l1.2,5.9H71l1.2-5.9h6.6v2.5h-1.6v7.4h1.6v2.5h-5.5v-2.5h1.4v-7.4h-0.5l-1.4,5.9h-4.3l-1.4-5.9
					h-0.5v7.4h1.4v2.5h-5.5v-2.5h1.6v-7.4h-1.6v-2.5H69.2z"/>
				<path class="st3" d="M80.8,332c0-0.2,0.1-0.5,0.2-0.7c0.1-0.2,0.2-0.4,0.4-0.6c0.2-0.2,0.4-0.3,0.6-0.4c0.2-0.1,0.4-0.1,0.7-0.1
					c0.2,0,0.5,0,0.7,0.1c0.2,0.1,0.4,0.2,0.6,0.4c0.2,0.2,0.3,0.3,0.4,0.6c0.1,0.2,0.2,0.4,0.2,0.7c0,0.2-0.1,0.5-0.2,0.7
					c-0.1,0.2-0.2,0.4-0.4,0.6c-0.2,0.2-0.4,0.3-0.6,0.4c-0.2,0.1-0.5,0.1-0.7,0.1c-0.2,0-0.5,0-0.7-0.1c-0.2-0.1-0.4-0.2-0.6-0.4
					c-0.2-0.2-0.3-0.3-0.4-0.6C80.9,332.5,80.8,332.2,80.8,332z"/>
				<path class="st3" d="M96.6,324.3h2.3c0.4,0,0.7-0.1,1-0.3c0.3-0.2,0.6-0.4,0.7-0.8l1.5-2.9c0.3-0.6,0.8-1.1,1.3-1.5
					c0.6-0.4,1.2-0.6,2-0.6c0.5,0,1,0.1,1.5,0.4c0.5,0.3,0.9,0.7,1.3,1.3l-1.6,1.6c-0.5-0.5-0.9-0.8-1.2-0.8c-0.2,0-0.4,0.1-0.6,0.2
					c-0.2,0.1-0.3,0.3-0.4,0.5l-1.5,2.8c-0.1,0.1-0.2,0.3-0.3,0.4c-0.1,0.1-0.2,0.3-0.4,0.4c-0.1,0.1-0.3,0.2-0.4,0.3
					c-0.1,0.1-0.2,0.2-0.3,0.2c0.1,0,0.2,0.1,0.3,0.1c0.1,0.1,0.3,0.2,0.4,0.3c0.1,0.1,0.2,0.2,0.3,0.3c0.1,0.1,0.2,0.2,0.2,0.3
					l1.5,3.2c0.2,0.4,0.4,0.7,0.6,0.9c0.2,0.2,0.6,0.3,1,0.3c0.4,0,0.7-0.1,0.9-0.2c0.2-0.1,0.5-0.4,0.7-0.6l1.5,1.7
					c-0.2,0.2-0.5,0.5-0.7,0.7c-0.2,0.2-0.5,0.4-0.7,0.5c-0.2,0.1-0.5,0.2-0.8,0.3c-0.3,0.1-0.6,0.1-1,0.1c-1,0-1.8-0.3-2.4-0.8
					c-0.6-0.5-1.2-1.3-1.6-2.2l-1.3-2.8c-0.2-0.4-0.4-0.6-0.7-0.8c-0.3-0.2-0.7-0.3-1-0.3h-2.3v4.3h1.6v2.5h-5.7v-2.5h1.6v-10.3
					h-1.6v-2.5h5.7v2.5h-1.6V324.3z"/>
				<path class="st3" d="M109.2,327.4c0-1,0.2-1.9,0.6-2.7c0.4-0.8,0.9-1.5,1.5-2c0.6-0.5,1.4-1,2.2-1.3c0.8-0.3,1.7-0.4,2.6-0.4
					c0.9,0,1.8,0.1,2.6,0.4c0.8,0.3,1.6,0.7,2.2,1.3c0.6,0.5,1.1,1.2,1.5,2c0.4,0.8,0.6,1.7,0.6,2.7c0,1-0.2,1.9-0.6,2.6
					c-0.4,0.8-0.9,1.5-1.5,2c-0.6,0.6-1.4,1-2.2,1.3c-0.8,0.3-1.7,0.5-2.6,0.5c-0.9,0-1.8-0.2-2.6-0.5c-0.8-0.3-1.6-0.7-2.2-1.3
					c-0.6-0.6-1.2-1.2-1.5-2C109.4,329.2,109.2,328.4,109.2,327.4z M116.2,323.5c-0.6,0-1.2,0.1-1.7,0.3c-0.5,0.2-1,0.5-1.4,0.8
					c-0.4,0.3-0.7,0.7-0.9,1.2c-0.2,0.5-0.3,1-0.3,1.6c0,0.6,0.1,1.1,0.3,1.6c0.2,0.5,0.5,0.9,0.9,1.2c0.4,0.3,0.8,0.6,1.4,0.8
					c0.5,0.2,1.1,0.3,1.7,0.3c0.7,0,1.2-0.1,1.8-0.3c0.5-0.2,1-0.4,1.4-0.8c0.4-0.3,0.7-0.8,0.9-1.2c0.2-0.5,0.3-1,0.3-1.6
					c0-0.6-0.1-1.1-0.3-1.6c-0.2-0.5-0.5-0.9-0.9-1.2c-0.4-0.3-0.8-0.6-1.4-0.8C117.4,323.6,116.8,323.5,116.2,323.5z"/>
				<path class="st3" d="M134.9,325.3l-0.2-1.3c-0.4-0.2-0.8-0.3-1.2-0.4c-0.4-0.1-0.9-0.2-1.4-0.2c-0.6,0-1.2,0.1-1.7,0.3
					c-0.5,0.2-1,0.4-1.4,0.8c-0.4,0.3-0.7,0.7-0.9,1.2c-0.2,0.5-0.3,1-0.3,1.6c0,0.6,0.1,1.1,0.3,1.6c0.2,0.5,0.5,0.9,0.9,1.2
					c0.4,0.3,0.8,0.6,1.4,0.8c0.5,0.2,1.1,0.3,1.7,0.3c0.9,0,1.7-0.1,2.3-0.4c0.6-0.3,1.2-0.6,1.5-1l1.8,1.8
					c-0.6,0.6-1.4,1.1-2.4,1.5c-1,0.4-2,0.6-3.2,0.6c-0.9,0-1.8-0.2-2.6-0.5c-0.8-0.3-1.6-0.7-2.2-1.3c-0.6-0.6-1.2-1.2-1.5-2
					c-0.4-0.8-0.6-1.7-0.6-2.6c0-1,0.2-1.8,0.6-2.6c0.4-0.8,0.9-1.5,1.5-2c0.6-0.6,1.4-1,2.2-1.3c0.8-0.3,1.7-0.5,2.6-0.5
					c1,0,2,0.1,2.8,0.4c0.9,0.3,1.6,0.7,2.2,1.2v2.7H134.9z"/>
				<path class="st3" d="M148.7,333.6H143v-2.5h1.6v-7.4h-3l-0.2,1.9h-2.3v-4.4h13.3v4.4h-2.3l-0.2-1.9h-3v7.4h1.6V333.6z"/>
				<path class="st3" d="M163.8,333.6l-0.4-1.6c-0.6,0.6-1.4,1-2.2,1.3c-0.8,0.3-1.7,0.4-2.6,0.4c-1,0-1.9-0.1-2.5-0.4
					c-0.6-0.3-1.2-0.6-1.5-1c-0.4-0.4-0.6-0.8-0.7-1.3c-0.1-0.5-0.2-0.9-0.2-1.4c0-0.6,0.1-1.1,0.4-1.6c0.2-0.5,0.6-0.9,0.9-1.2
					c0.4-0.3,0.8-0.6,1.3-0.8c0.5-0.2,1-0.3,1.5-0.3h5.4c0-0.4-0.1-0.8-0.2-1.1c-0.1-0.3-0.3-0.6-0.5-0.8c-0.2-0.2-0.6-0.4-1-0.5
					c-0.4-0.1-0.9-0.1-1.6-0.1c-0.6,0-1.1,0.1-1.7,0.2c-0.5,0.1-1,0.2-1.5,0.4l-0.1,1.3h-2.3v-2.7c0.3-0.2,0.7-0.4,1.1-0.6
					c0.4-0.2,0.9-0.4,1.4-0.5c0.5-0.1,1-0.3,1.5-0.3c0.5-0.1,1-0.1,1.5-0.1c0.9,0,1.8,0.1,2.5,0.3s1.3,0.5,1.7,0.8
					c0.5,0.4,0.8,0.9,1,1.6c0.2,0.6,0.3,1.4,0.3,2.4v5.1h1.6v2.5H163.8z M156.3,329.8c0,0.5,0.2,0.8,0.5,1.1
					c0.4,0.3,0.9,0.5,1.7,0.5c0.7,0,1.3-0.1,1.8-0.2c0.5-0.1,1-0.3,1.3-0.6c0.4-0.2,0.7-0.5,0.9-0.9c0.2-0.3,0.4-0.7,0.5-1.1v-0.4
					h-5.2c-0.5,0-0.8,0.1-1.1,0.4C156.5,329,156.3,329.3,156.3,329.8z"/>
				<path class="st3" d="M188.6,331.1h1.6v-10.3h-5.4l-1.2,8.2c-0.1,0.6-0.3,1.2-0.5,1.8c-0.2,0.6-0.5,1.1-0.9,1.5
					c-0.4,0.4-0.8,0.7-1.3,1c-0.5,0.2-1.1,0.4-1.8,0.4c-0.4,0-0.7,0-1-0.1c-0.3-0.1-0.5-0.2-0.8-0.3c-0.2-0.1-0.5-0.3-0.7-0.5
					c-0.2-0.2-0.5-0.4-0.7-0.7l1.5-1.7c0.3,0.3,0.5,0.5,0.7,0.6c0.2,0.1,0.5,0.2,0.9,0.2c0.3,0,0.6-0.1,0.9-0.2
					c0.2-0.2,0.4-0.4,0.6-0.6c0.2-0.2,0.3-0.5,0.4-0.8c0.1-0.3,0.2-0.6,0.2-0.9l1.1-7.8h-2.2v-2.5h12.6v12.8h1.6v2.5h-5.7V331.1z"/>
				<path class="st3" d="M199,328.3c0.1,0.5,0.3,0.9,0.5,1.2c0.3,0.4,0.6,0.7,0.9,0.9c0.4,0.3,0.8,0.5,1.3,0.6
					c0.5,0.1,1,0.2,1.5,0.2c0.9,0,1.7-0.1,2.3-0.4c0.6-0.3,1.2-0.6,1.5-1l1.8,1.8c-0.6,0.6-1.4,1.1-2.4,1.5c-1,0.4-2,0.6-3.2,0.6
					c-0.9,0-1.8-0.2-2.6-0.5c-0.8-0.3-1.6-0.7-2.2-1.3c-0.6-0.6-1.2-1.2-1.5-2c-0.4-0.8-0.6-1.7-0.6-2.6c0-1,0.2-1.9,0.5-2.7
					c0.4-0.8,0.9-1.5,1.5-2c0.6-0.5,1.3-1,2.1-1.3c0.8-0.3,1.7-0.4,2.6-0.4c0.9,0,1.7,0.1,2.5,0.4c0.8,0.3,1.5,0.7,2.1,1.2
					c0.6,0.5,1.1,1.1,1.4,1.8c0.3,0.7,0.5,1.5,0.5,2.3l-0.1,1.6H199z M203,323.5c-1,0-1.8,0.2-2.5,0.7c-0.7,0.5-1.2,1.1-1.4,1.9h7.7
					c-0.2-0.8-0.6-1.4-1.3-1.9C204.9,323.7,204,323.5,203,323.5z"/>
				<path class="st3" d="M210.9,331.1h1.6v-7.4h-1.6v-2.5h8.4c0.5,0,1,0.1,1.4,0.3c0.4,0.2,0.8,0.5,1.2,0.8c0.3,0.3,0.6,0.7,0.8,1.2
					c0.2,0.4,0.3,0.9,0.3,1.4c0,0.8-0.2,1.5-0.7,2c0.4,0.3,0.7,0.7,1,1.2c0.2,0.5,0.4,1,0.4,1.6c0,0.5-0.1,1-0.3,1.5
					c-0.2,0.5-0.5,0.9-0.8,1.2c-0.3,0.3-0.8,0.6-1.2,0.8c-0.5,0.2-1,0.3-1.5,0.3h-8.8V331.1z M214.9,326h4.4c0.3,0,0.6-0.2,0.8-0.4
					c0.2-0.2,0.3-0.5,0.3-0.8c0-0.3-0.1-0.6-0.3-0.8c-0.2-0.2-0.5-0.3-0.8-0.3h-4.3V326z M219.7,331.1c0.4,0,0.7-0.1,1-0.4
					c0.3-0.3,0.4-0.6,0.4-1c0-0.4-0.1-0.7-0.4-1c-0.3-0.3-0.6-0.4-1-0.4h-4.7v2.8H219.7z"/>
				<path class="st3" d="M235.5,333.6l-0.4-1.6c-0.6,0.6-1.4,1-2.2,1.3c-0.8,0.3-1.7,0.4-2.6,0.4c-1,0-1.9-0.1-2.5-0.4
					c-0.6-0.3-1.2-0.6-1.5-1c-0.4-0.4-0.6-0.8-0.7-1.3c-0.1-0.5-0.2-0.9-0.2-1.4c0-0.6,0.1-1.1,0.4-1.6c0.2-0.5,0.6-0.9,0.9-1.2
					c0.4-0.3,0.8-0.6,1.3-0.8c0.5-0.2,1-0.3,1.5-0.3h5.4c0-0.4-0.1-0.8-0.2-1.1c-0.1-0.3-0.3-0.6-0.5-0.8c-0.2-0.2-0.6-0.4-1-0.5
					c-0.4-0.1-0.9-0.1-1.6-0.1c-0.6,0-1.1,0.1-1.7,0.2c-0.5,0.1-1,0.2-1.5,0.4l-0.1,1.3h-2.3v-2.7c0.3-0.2,0.7-0.4,1.1-0.6
					c0.4-0.2,0.9-0.4,1.4-0.5c0.5-0.1,1-0.3,1.5-0.3c0.5-0.1,1-0.1,1.5-0.1c0.9,0,1.8,0.1,2.5,0.3c0.7,0.2,1.3,0.5,1.7,0.8
					c0.5,0.4,0.8,0.9,1,1.6c0.2,0.6,0.3,1.4,0.3,2.4v5.1h1.6v2.5H235.5z M228.1,329.8c0,0.5,0.2,0.8,0.5,1.1
					c0.4,0.3,0.9,0.5,1.7,0.5c0.7,0,1.3-0.1,1.8-0.2c0.5-0.1,1-0.3,1.3-0.6c0.4-0.2,0.7-0.5,0.9-0.9c0.2-0.3,0.4-0.7,0.5-1.1v-0.4
					h-5.2c-0.5,0-0.8,0.1-1.1,0.4C228.2,329,228.1,329.3,228.1,329.8z"/>
				<path class="st3" d="M255.1,333.6h-4.1v-5.3h-6v2.8h1.6v2.5h-5.7v-2.5h1.6v-7.4h-1.6v-2.5h4.1v4.8h6v-2.4h-1.6v-2.5h5.7v2.5
					h-1.6v7.4h1.6V333.6z"/>
				<path class="st3" d="M256.4,327.4c0-1,0.2-1.9,0.6-2.7c0.4-0.8,0.9-1.5,1.5-2c0.6-0.5,1.4-1,2.2-1.3c0.8-0.3,1.7-0.4,2.6-0.4
					c0.9,0,1.8,0.1,2.6,0.4c0.8,0.3,1.6,0.7,2.2,1.3c0.6,0.5,1.1,1.2,1.5,2c0.4,0.8,0.6,1.7,0.6,2.7c0,1-0.2,1.9-0.6,2.6
					c-0.4,0.8-0.9,1.5-1.5,2c-0.6,0.6-1.4,1-2.2,1.3c-0.8,0.3-1.7,0.5-2.6,0.5c-0.9,0-1.8-0.2-2.6-0.5c-0.8-0.3-1.6-0.7-2.2-1.3
					c-0.6-0.6-1.2-1.2-1.5-2C256.6,329.2,256.4,328.4,256.4,327.4z M263.3,323.5c-0.6,0-1.2,0.1-1.7,0.3c-0.5,0.2-1,0.5-1.4,0.8
					c-0.4,0.3-0.7,0.7-0.9,1.2c-0.2,0.5-0.3,1-0.3,1.6c0,0.6,0.1,1.1,0.3,1.6c0.2,0.5,0.5,0.9,0.9,1.2c0.4,0.3,0.8,0.6,1.4,0.8
					c0.5,0.2,1.1,0.3,1.7,0.3c0.7,0,1.2-0.1,1.8-0.3c0.5-0.2,1-0.4,1.4-0.8c0.4-0.3,0.7-0.8,0.9-1.2c0.2-0.5,0.3-1,0.3-1.6
					c0-0.6-0.1-1.1-0.3-1.6c-0.2-0.5-0.5-0.9-0.9-1.2c-0.4-0.3-0.8-0.6-1.4-0.8C264.6,323.6,264,323.5,263.3,323.5z"/>
				<path class="st3" d="M272,331.1h1.6v-7.4H272v-2.5h8.4c0.5,0,1,0.1,1.4,0.3c0.4,0.2,0.8,0.5,1.2,0.8c0.3,0.3,0.6,0.7,0.8,1.2
					c0.2,0.4,0.3,0.9,0.3,1.4c0,0.8-0.2,1.5-0.7,2c0.4,0.3,0.7,0.7,1,1.2c0.2,0.5,0.4,1,0.4,1.6c0,0.5-0.1,1-0.3,1.5
					c-0.2,0.5-0.5,0.9-0.8,1.2c-0.3,0.3-0.8,0.6-1.2,0.8c-0.5,0.2-1,0.3-1.5,0.3H272V331.1z M276.1,326h4.4c0.3,0,0.6-0.2,0.8-0.4
					c0.2-0.2,0.3-0.5,0.3-0.8c0-0.3-0.1-0.6-0.3-0.8c-0.2-0.2-0.5-0.3-0.8-0.3h-4.3V326z M280.8,331.1c0.4,0,0.7-0.1,1-0.4
					c0.3-0.3,0.4-0.6,0.4-1c0-0.4-0.1-0.7-0.4-1c-0.3-0.3-0.6-0.4-1-0.4h-4.7v2.8H280.8z"/>
				<path class="st3" d="M300.1,323.7h-1.6v7.4h1.6v2.5h-5.7v-2.5h1.6v-7.4h-0.9l-2.6,9.9h-5v-9.9h-1.6v-2.5h4.1v9.9h0.8l2.6-9.9
					h6.6V323.7z"/>
				<path class="st3" d="M306.1,325.9c0,0.3,0.1,0.6,0.3,0.8c0.2,0.2,0.5,0.3,0.8,0.3h4.8v-3.4h-1.6v-2.5h5.7v2.5h-1.6v7.4h1.6v2.5
					h-5.7v-2.5h1.6v-1.8h-4.8c-0.5,0-1-0.1-1.4-0.3c-0.4-0.2-0.8-0.4-1.2-0.7c-0.3-0.3-0.6-0.7-0.8-1.1c-0.2-0.4-0.3-0.9-0.3-1.4
					v-2.2H302v-2.5h5.7v2.5h-1.6V325.9z"/>
				<path class="st3" d="M328.1,333.6l-0.4-1.6c-0.6,0.6-1.4,1-2.2,1.3c-0.8,0.3-1.7,0.4-2.6,0.4c-1,0-1.9-0.1-2.5-0.4
					c-0.6-0.3-1.2-0.6-1.5-1c-0.4-0.4-0.6-0.8-0.7-1.3c-0.1-0.5-0.2-0.9-0.2-1.4c0-0.6,0.1-1.1,0.4-1.6c0.2-0.5,0.6-0.9,0.9-1.2
					c0.4-0.3,0.8-0.6,1.3-0.8c0.5-0.2,1-0.3,1.5-0.3h5.4c0-0.4-0.1-0.8-0.2-1.1c-0.1-0.3-0.2-0.6-0.5-0.8c-0.2-0.2-0.6-0.4-1-0.5
					c-0.4-0.1-0.9-0.1-1.6-0.1c-0.6,0-1.1,0.1-1.7,0.2c-0.5,0.1-1,0.2-1.5,0.4l-0.1,1.3h-2.3v-2.7c0.3-0.2,0.7-0.4,1.1-0.6
					c0.4-0.2,0.9-0.4,1.4-0.5c0.5-0.1,1-0.3,1.5-0.3c0.5-0.1,1-0.1,1.5-0.1c0.9,0,1.8,0.1,2.5,0.3c0.7,0.2,1.3,0.5,1.7,0.8
					c0.5,0.4,0.8,0.9,1,1.6c0.2,0.6,0.3,1.4,0.3,2.4v5.1h1.6v2.5H328.1z M320.7,329.8c0,0.5,0.2,0.8,0.5,1.1
					c0.4,0.3,0.9,0.5,1.7,0.5c0.7,0,1.3-0.1,1.8-0.2c0.5-0.1,1-0.3,1.3-0.6c0.4-0.2,0.7-0.5,0.9-0.9c0.2-0.3,0.4-0.7,0.5-1.1v-0.4
					h-5.2c-0.5,0-0.8,0.1-1.1,0.4C320.8,329,320.7,329.3,320.7,329.8z"/>
				<path class="st3" d="M351.4,318.3h5.7v2.5h-1.8l-2.7,4.9l3.5,5.4h1.8v2.5h-5.7v-2.5h1l-2.6-4.1h-2.5l-2.6,4.1h1v2.5h-5.7v-2.5
					h1.8l3.5-5.4l-2.7-4.9h-1.8v-2.5h5.7v2.5h-1.2l2,3.7h2.4l2-3.7h-1.2V318.3z"/>
				<path class="st3" d="M361.3,328.3c0.1,0.5,0.3,0.9,0.5,1.2c0.3,0.4,0.6,0.7,0.9,0.9c0.4,0.3,0.8,0.5,1.3,0.6
					c0.5,0.1,1,0.2,1.5,0.2c0.9,0,1.7-0.1,2.3-0.4c0.6-0.3,1.2-0.6,1.5-1l1.8,1.8c-0.6,0.6-1.4,1.1-2.4,1.5c-1,0.4-2,0.6-3.2,0.6
					c-0.9,0-1.8-0.2-2.6-0.5c-0.8-0.3-1.6-0.7-2.2-1.3c-0.6-0.6-1.2-1.2-1.5-2c-0.4-0.8-0.6-1.7-0.6-2.6c0-1,0.2-1.9,0.5-2.7
					c0.4-0.8,0.9-1.5,1.5-2c0.6-0.5,1.3-1,2.1-1.3c0.8-0.3,1.7-0.4,2.6-0.4c0.9,0,1.7,0.1,2.5,0.4c0.8,0.3,1.5,0.7,2.1,1.2
					c0.6,0.5,1.1,1.1,1.4,1.8c0.3,0.7,0.5,1.5,0.5,2.3l-0.1,1.6H361.3z M365.4,323.5c-1,0-1.8,0.2-2.5,0.7c-0.7,0.5-1.2,1.1-1.4,1.9
					h7.7c-0.2-0.8-0.6-1.4-1.3-1.9C367.2,323.7,366.4,323.5,365.4,323.5z"/>
				<path class="st3" d="M382.9,333.6h-5.7v-2.5h1.6v-7.4h-3l-0.2,1.9h-2.3v-4.4h13.3v4.4h-2.3l-0.2-1.9h-3v7.4h1.6V333.6z"/>
				<path class="st3" d="M398,333.6l-0.4-1.6c-0.6,0.6-1.4,1-2.2,1.3c-0.8,0.3-1.7,0.4-2.6,0.4c-1,0-1.9-0.1-2.5-0.4
					c-0.6-0.3-1.2-0.6-1.5-1c-0.4-0.4-0.6-0.8-0.7-1.3c-0.1-0.5-0.2-0.9-0.2-1.4c0-0.6,0.1-1.1,0.4-1.6c0.2-0.5,0.6-0.9,0.9-1.2
					c0.4-0.3,0.8-0.6,1.3-0.8c0.5-0.2,1-0.3,1.5-0.3h5.4c0-0.4-0.1-0.8-0.2-1.1c-0.1-0.3-0.2-0.6-0.5-0.8c-0.2-0.2-0.6-0.4-1-0.5
					c-0.4-0.1-0.9-0.1-1.6-0.1c-0.6,0-1.1,0.1-1.7,0.2c-0.5,0.1-1,0.2-1.5,0.4l-0.1,1.3h-2.3v-2.7c0.3-0.2,0.7-0.4,1.1-0.6
					c0.4-0.2,0.9-0.4,1.4-0.5c0.5-0.1,1-0.3,1.5-0.3c0.5-0.1,1-0.1,1.5-0.1c0.9,0,1.8,0.1,2.5,0.3s1.3,0.5,1.7,0.8
					c0.5,0.4,0.8,0.9,1,1.6c0.2,0.6,0.3,1.4,0.3,2.4v5.1h1.6v2.5H398z M390.5,329.8c0,0.5,0.2,0.8,0.5,1.1c0.4,0.3,0.9,0.5,1.7,0.5
					c0.7,0,1.3-0.1,1.8-0.2c0.5-0.1,1-0.3,1.3-0.6c0.4-0.2,0.7-0.5,0.9-0.9c0.2-0.3,0.4-0.7,0.5-1.1v-0.4h-5.2
					c-0.5,0-0.8,0.1-1.1,0.4C390.7,329,390.5,329.3,390.5,329.8z"/>
				<path class="st3" d="M412.8,325.6l-0.2-1.9h-5.1v7.4h1.6v2.5h-5.7v-2.5h1.6v-7.4h-1.6v-2.5h11.7v4.4H412.8z"/>
				<path class="st3" d="M421.1,337.9v-2.3h1.9c0.3,0,0.6-0.1,0.9-0.3c0.2-0.2,0.4-0.4,0.5-0.7c0-0.1,0.1-0.2,0.1-0.3
					c0-0.1,0.1-0.2,0.1-0.3c0-0.1,0.1-0.2,0.1-0.3h-3.8l-2.5-9.9H417v-2.5h5.3v2.5h-1.2l1.9,7.6h2.2l1.9-7.6h-1.2v-2.5h5.3v2.5h-1.4
					c-0.5,2-0.9,3.7-1.3,5.3c-0.2,0.7-0.3,1.4-0.5,2c-0.2,0.7-0.3,1.3-0.5,1.8c-0.1,0.6-0.3,1-0.4,1.4c-0.1,0.4-0.2,0.7-0.2,0.8
					c-0.1,0.4-0.3,0.8-0.5,1.2c-0.2,0.4-0.5,0.7-0.9,0.9c-0.3,0.3-0.7,0.5-1.1,0.6c-0.4,0.1-0.9,0.2-1.3,0.2L421.1,337.9z"/>
				<path class="st3" d="M439,338.1H433v-2.5h1.6v-11.9H433v-2.5h3.7l0.1,0.9c0.4-0.3,1-0.5,1.6-0.8c0.7-0.2,1.5-0.4,2.4-0.4
					c0.7,0,1.5,0.1,2.2,0.4c0.7,0.3,1.4,0.7,2,1.3c0.6,0.5,1,1.2,1.4,2c0.4,0.8,0.5,1.7,0.5,2.7c0,1-0.2,1.9-0.6,2.6
					c-0.4,0.8-0.9,1.5-1.5,2c-0.6,0.6-1.4,1-2.2,1.3c-0.8,0.3-1.7,0.5-2.6,0.5c-0.5,0-1-0.1-1.5-0.2c-0.5-0.2-1-0.4-1.4-0.6v2.6h1.8
					V338.1z M440,331.3c0.7,0,1.2-0.1,1.8-0.3c0.5-0.2,1-0.4,1.4-0.8c0.4-0.3,0.7-0.8,0.9-1.2c0.2-0.5,0.3-1,0.3-1.6
					c0-0.6-0.1-1.1-0.3-1.6c-0.2-0.5-0.5-0.9-0.9-1.2c-0.4-0.3-0.8-0.6-1.4-0.8c-0.5-0.2-1.1-0.3-1.8-0.3c-0.5,0-1.1,0.1-1.6,0.3
					c-0.5,0.2-0.9,0.4-1.3,0.7v5.7c0.4,0.3,0.8,0.6,1.4,0.8C439,331.2,439.5,331.3,440,331.3z"/>
				<path class="st3" d="M449,327.4c0-1,0.2-1.9,0.6-2.7c0.4-0.8,0.9-1.5,1.5-2c0.6-0.5,1.4-1,2.2-1.3c0.8-0.3,1.7-0.4,2.6-0.4
					c0.9,0,1.8,0.1,2.6,0.4c0.8,0.3,1.6,0.7,2.2,1.3c0.6,0.5,1.1,1.2,1.5,2c0.4,0.8,0.6,1.7,0.6,2.7c0,1-0.2,1.9-0.6,2.6
					c-0.4,0.8-0.9,1.5-1.5,2c-0.6,0.6-1.4,1-2.2,1.3c-0.8,0.3-1.7,0.5-2.6,0.5c-0.9,0-1.8-0.2-2.6-0.5c-0.8-0.3-1.6-0.7-2.2-1.3
					c-0.6-0.6-1.2-1.2-1.5-2C449.2,329.2,449,328.4,449,327.4z M455.9,323.5c-0.6,0-1.2,0.1-1.7,0.3c-0.5,0.2-1,0.5-1.4,0.8
					c-0.4,0.3-0.7,0.7-0.9,1.2c-0.2,0.5-0.3,1-0.3,1.6c0,0.6,0.1,1.1,0.3,1.6c0.2,0.5,0.5,0.9,0.9,1.2c0.4,0.3,0.8,0.6,1.4,0.8
					c0.5,0.2,1.1,0.3,1.7,0.3c0.7,0,1.2-0.1,1.8-0.3c0.5-0.2,1-0.4,1.4-0.8c0.4-0.3,0.7-0.8,0.9-1.2c0.2-0.5,0.3-1,0.3-1.6
					c0-0.6-0.1-1.1-0.3-1.6c-0.2-0.5-0.5-0.9-0.9-1.2c-0.4-0.3-0.8-0.6-1.4-0.8C457.2,323.6,456.6,323.5,455.9,323.5z"/>
				<path class="st3" d="M464.6,331.1h1.6v-7.4h-1.6v-2.5h8.4c0.5,0,1,0.1,1.4,0.3c0.4,0.2,0.8,0.5,1.2,0.8c0.3,0.3,0.6,0.7,0.8,1.2
					c0.2,0.4,0.3,0.9,0.3,1.4c0,0.8-0.2,1.5-0.7,2c0.4,0.3,0.7,0.7,1,1.2c0.2,0.5,0.4,1,0.4,1.6c0,0.5-0.1,1-0.3,1.5
					c-0.2,0.5-0.5,0.9-0.8,1.2c-0.3,0.3-0.8,0.6-1.2,0.8c-0.5,0.2-1,0.3-1.5,0.3h-8.8V331.1z M468.7,326h4.4c0.3,0,0.6-0.2,0.8-0.4
					c0.2-0.2,0.3-0.5,0.3-0.8c0-0.3-0.1-0.6-0.3-0.8c-0.2-0.2-0.5-0.3-0.8-0.3h-4.3V326z M473.4,331.1c0.4,0,0.7-0.1,1-0.4
					c0.3-0.3,0.4-0.6,0.4-1c0-0.4-0.1-0.7-0.4-1c-0.3-0.3-0.6-0.4-1-0.4h-4.7v2.8H473.4z"/>
				<path class="st3" d="M489.2,333.6l-0.4-1.6c-0.6,0.6-1.4,1-2.2,1.3c-0.8,0.3-1.7,0.4-2.6,0.4c-1,0-1.9-0.1-2.5-0.4
					c-0.6-0.3-1.2-0.6-1.5-1c-0.4-0.4-0.6-0.8-0.7-1.3c-0.1-0.5-0.2-0.9-0.2-1.4c0-0.6,0.1-1.1,0.4-1.6c0.2-0.5,0.6-0.9,0.9-1.2
					c0.4-0.3,0.8-0.6,1.3-0.8c0.5-0.2,1-0.3,1.5-0.3h5.4c0-0.4-0.1-0.8-0.2-1.1c-0.1-0.3-0.2-0.6-0.5-0.8c-0.2-0.2-0.6-0.4-1-0.5
					c-0.4-0.1-0.9-0.1-1.6-0.1c-0.6,0-1.1,0.1-1.7,0.2c-0.5,0.1-1,0.2-1.5,0.4l-0.1,1.3h-2.3v-2.7c0.3-0.2,0.7-0.4,1.1-0.6
					c0.4-0.2,0.9-0.4,1.4-0.5c0.5-0.1,1-0.3,1.5-0.3c0.5-0.1,1-0.1,1.5-0.1c0.9,0,1.8,0.1,2.5,0.3s1.3,0.5,1.7,0.8
					c0.5,0.4,0.8,0.9,1,1.6c0.2,0.6,0.3,1.4,0.3,2.4v5.1h1.6v2.5H489.2z M481.8,329.8c0,0.5,0.2,0.8,0.5,1.1
					c0.4,0.3,0.9,0.5,1.7,0.5c0.7,0,1.3-0.1,1.8-0.2c0.5-0.1,1-0.3,1.3-0.6c0.4-0.2,0.7-0.5,0.9-0.9c0.2-0.3,0.4-0.7,0.5-1.1v-0.4
					h-5.2c-0.5,0-0.8,0.1-1.1,0.4C481.9,329,481.8,329.3,481.8,329.8z"/>
			</g>
		</g>
	</g>
</g>
</svg>
