<?xml version="1.0" encoding="utf-8"?>
<!-- Generator: Adobe Illustrator 19.0.0, SVG Export Plug-In . SVG Version: 6.00 Build 0)  -->
<svg version="1.1" id="Слой_1" xmlns="http://www.w3.org/2000/svg" xmlns:xlink="http://www.w3.org/1999/xlink" x="0px" y="0px"
	 viewBox="0 0 292.5 180.1" style="enable-background:new 0 0 292.5 180.1;" xml:space="preserve">
<style type="text/css">
	.st0{fill:#C7358C;}
	.st1{fill:#2D2D2D;}
	.st2{fill:#FFFFFF;}
</style>
<g>
	<g>
		<rect x="9.7" y="88" class="st0" width="273.2" height="82.6"/>
		<g>
			<rect x="179.2" y="78.3" class="st0" width="55.2" height="4.4"/>
			<polygon class="st0" points="239.6,78.3 239.6,82.7 288,82.7 288,175.7 4.6,175.7 4.6,82.7 174.1,82.7 174.1,78.3 0.2,78.3 
				0.2,180.1 292.4,180.1 292.4,78.3 			"/>
		</g>
	</g>
	<g>
		<path class="st1" d="M37.8,11.1c-3.8,0-7.3,0.6-10.5,1.7c-3.2,1.2-6,2.8-8.4,4.9c-2.4,2.1-4.2,4.6-5.6,7.5c-1.3,2.9-2,6.1-2,9.6
			c0,3.5,0.7,6.7,2,9.6c1.3,2.9,3.2,5.4,5.6,7.5c2.4,2.1,5.1,3.7,8.4,4.9c3.2,1.2,6.7,1.7,10.5,1.7c5,0,9.4-0.9,13.2-2.6
			c3.8-1.7,6.8-4.2,9-7.3l8.2,7.4c-3.5,4.3-7.9,7.6-13.2,10c-5.3,2.4-11,3.5-17.2,3.5c-4.9,0-9.6-0.8-14.2-2.4
			c-4.6-1.6-8.6-3.9-12.1-7c-3.5-3-6.3-6.7-8.4-11C1.1,45,0,40.2,0,34.8c0-5.4,1-10.3,3.1-14.6c2.1-4.3,4.9-8,8.4-10.9
			C15,6.3,19,4,23.6,2.4c4.6-1.6,9.3-2.4,14.2-2.4c4,0,7.6,0.3,10.6,0.8c3,0.5,5.6,1.2,7.8,2c2.2,0.8,4.1,1.7,5.7,2.6
			c1.6,0.9,3,1.8,4.2,2.6v11.8H55.9l-0.5-4.8c-1.1-0.7-2.2-1.3-3.3-1.8c-1.1-0.5-2.3-0.9-3.7-1.3c-1.4-0.3-2.9-0.6-4.6-0.7
			C42.1,11.1,40.1,11.1,37.8,11.1z"/>
		<path class="st1" d="M70.1,34.8c0-5.4,1-10.3,3.1-14.6c2.1-4.3,4.9-8,8.4-10.9c3.5-3,7.5-5.2,12.1-6.8c4.6-1.6,9.3-2.4,14.2-2.4
			c5.1,0,10,0.8,14.6,2.4c4.6,1.6,8.6,3.9,12,6.8c3.4,3,6.2,6.6,8.2,10.9c2,4.3,3,9.2,3,14.6c0,5.3-1,10-3,14.3
			c-2,4.3-4.7,7.9-8.2,11c-3.4,3-7.4,5.4-12,7c-4.6,1.7-9.4,2.5-14.6,2.5c-4.9,0-9.6-0.8-14.2-2.4c-4.6-1.6-8.6-3.9-12.1-7
			c-3.5-3-6.3-6.7-8.4-11C71.1,45,70.1,40.2,70.1,34.8z M107.8,11.1c-3.8,0-7.3,0.6-10.5,1.7c-3.2,1.2-6,2.8-8.4,4.9
			c-2.4,2.1-4.2,4.6-5.6,7.5c-1.3,2.9-2,6.1-2,9.6c0,3.5,0.7,6.7,2,9.6c1.3,2.9,3.2,5.4,5.6,7.5c2.4,2.1,5.1,3.7,8.4,4.9
			c3.2,1.2,6.7,1.7,10.5,1.7c4,0,7.7-0.6,10.9-1.7c3.2-1.2,6-2.8,8.3-4.9c2.3-2.1,4.1-4.6,5.3-7.5c1.3-2.9,1.9-6.1,1.9-9.6
			c0-3.5-0.6-6.7-1.9-9.6c-1.3-2.9-3-5.4-5.3-7.5c-2.3-2.1-5.1-3.7-8.3-4.9C115.5,11.6,111.8,11.1,107.8,11.1z"/>
		<path class="st1" d="M213.3,19.9h-10.1l-0.9-8.2h-35.5v46.1h7.3v11h-25.4v-11h7.2V11.7h-7.2v-11h64.7V19.9z"/>
		<path class="st1" d="M273.7,11.7H267v-11h25.5v11h-7.3l-16.1,44.4c-1.6,4.4-4,7.7-7.1,9.8c-3.2,2.1-7,3.2-11.4,3.2
			c-3.2,0-6.1-0.6-8.5-1.8c-2.4-1.2-4.8-2.9-7-5.2l6.9-8c1.2,1.2,2.5,2.2,3.9,2.9c1.4,0.7,3,1.1,4.7,1.1c0.7,0,1.6-0.1,2.5-0.4
			c0.9-0.2,1.8-0.6,2.7-1.1c0.9-0.5,1.6-1.1,2.3-1.8c0.7-0.7,1.2-1.6,1.6-2.6l0.9-2.8h-20.4l-13-37.7H220v-11h14.4l13.1,37.7h17
			L273.7,11.7z"/>
	</g>
	<g>
		<path class="st0" d="M93.8,30.3h1.1v7.3h2.7V39h-7.1v-1.4h2.9v-5.1l-2.2,2.2l-0.9-0.9L93.8,30.3z"/>
		<path class="st0" d="M102.3,30.2c0.7,0,1.4,0.1,2,0.3c0.6,0.2,1.1,0.5,1.5,0.9c0.4,0.4,0.7,0.9,0.9,1.4c0.2,0.5,0.3,1.2,0.3,1.8
			c0,0.7-0.1,1.3-0.4,1.9c-0.3,0.6-0.6,1-1,1.4c-0.4,0.4-0.9,0.7-1.5,0.9c-0.6,0.2-1.2,0.3-1.8,0.3c-0.4,0-0.8,0-1.1-0.1
			c-0.3,0-0.6-0.1-0.9-0.2c-0.3-0.1-0.6-0.2-0.9-0.3c-0.3-0.1-0.7-0.3-1-0.5l0.8-1.1c0.3,0.2,0.6,0.3,0.8,0.4
			c0.2,0.1,0.5,0.2,0.7,0.2c0.2,0.1,0.5,0.1,0.7,0.1c0.3,0,0.5,0,0.9,0c0.9,0,1.6-0.2,2.2-0.7c0.5-0.5,0.9-1.1,1-1.8
			c-0.1,0.1-0.3,0.2-0.5,0.3c-0.2,0.1-0.4,0.2-0.7,0.3c-0.3,0.1-0.6,0.2-0.9,0.3c-0.3,0.1-0.7,0.1-1.1,0.1c-0.6,0-1.1-0.1-1.7-0.2
			c-0.5-0.1-1-0.3-1.4-0.5c-0.4-0.2-0.7-0.5-1-0.9c-0.2-0.4-0.4-0.8-0.4-1.3c0-0.5,0.1-1,0.4-1.4c0.2-0.4,0.6-0.7,1-1
			c0.4-0.3,0.9-0.4,1.4-0.6C101.2,30.3,101.7,30.2,102.3,30.2z M102.3,31.6c-0.4,0-0.7,0-1.1,0.1c-0.4,0.1-0.7,0.2-0.9,0.3
			c-0.3,0.1-0.5,0.3-0.7,0.5c-0.2,0.2-0.2,0.4-0.2,0.7c0,0.2,0.1,0.4,0.2,0.6c0.1,0.2,0.3,0.4,0.6,0.5c0.2,0.1,0.5,0.3,0.9,0.3
			c0.4,0.1,0.8,0.1,1.3,0.1c0.4,0,0.8,0,1.1-0.1c0.3-0.1,0.6-0.2,0.9-0.3c0.3-0.1,0.5-0.2,0.7-0.3c0.2-0.1,0.4-0.2,0.5-0.3
			c-0.1-0.3-0.2-0.6-0.4-0.9s-0.4-0.5-0.6-0.7c-0.3-0.2-0.6-0.3-0.9-0.4C103.2,31.7,102.8,31.6,102.3,31.6z"/>
		<path class="st0" d="M115.6,39h-8.1v-1.4c0-0.4,0.1-0.8,0.2-1.1c0.1-0.3,0.4-0.7,0.7-1c0.3-0.3,0.7-0.6,1.2-0.8
			c0.5-0.3,1.1-0.5,1.8-0.7c0.6-0.2,1-0.3,1.3-0.4c0.3-0.1,0.5-0.2,0.7-0.3c0.2-0.1,0.2-0.2,0.3-0.3c0-0.1,0-0.2,0-0.3
			c0-0.2-0.1-0.4-0.2-0.5c-0.1-0.1-0.3-0.2-0.5-0.3c-0.2-0.1-0.4-0.1-0.7-0.1c-0.3,0-0.5,0-0.9,0c-0.3,0-0.6,0-1,0.1
			c-0.3,0.1-0.6,0.2-0.9,0.3c-0.3,0.1-0.5,0.3-0.8,0.4c-0.2,0.2-0.4,0.3-0.6,0.5l-1.1-1c0.2-0.3,0.5-0.5,0.8-0.7
			c0.3-0.2,0.7-0.4,1.1-0.6c0.4-0.2,0.8-0.3,1.2-0.4c0.4-0.1,0.8-0.1,1.2-0.1c0.5,0,1,0,1.5,0.1c0.5,0.1,0.9,0.2,1.2,0.4
			c0.3,0.2,0.6,0.4,0.8,0.7c0.2,0.3,0.3,0.7,0.3,1.1c0,0.4-0.1,0.7-0.2,0.9c-0.2,0.2-0.4,0.5-0.7,0.7c-0.3,0.2-0.6,0.4-1.1,0.5
			c-0.4,0.2-0.9,0.3-1.3,0.5c-0.6,0.2-1.1,0.4-1.6,0.7c-0.4,0.2-0.7,0.4-1,0.6c-0.2,0.2-0.4,0.4-0.5,0.6c-0.1,0.2-0.1,0.4-0.1,0.5
			h5.3l0.1-1h1.3V39z"/>
		<path class="st0" d="M116.2,34.6c0-0.7,0.1-1.3,0.4-1.9c0.2-0.6,0.6-1,1-1.4c0.4-0.4,0.9-0.7,1.5-0.9c0.6-0.2,1.2-0.3,1.8-0.3
			c0.7,0,1.3,0.1,1.8,0.3c0.6,0.2,1.1,0.5,1.5,0.9c0.4,0.4,0.7,0.8,1,1.4c0.2,0.6,0.3,1.2,0.3,1.9c0,0.7-0.1,1.3-0.3,1.8
			c-0.2,0.6-0.6,1-1,1.4c-0.4,0.4-0.9,0.7-1.5,0.9c-0.6,0.2-1.2,0.3-1.8,0.3c-0.6,0-1.2-0.1-1.8-0.3c-0.6-0.2-1.1-0.5-1.5-0.9
			s-0.7-0.9-1-1.4C116.4,35.9,116.2,35.3,116.2,34.6z M120.8,31.6c-0.5,0-0.9,0.1-1.3,0.2c-0.4,0.1-0.7,0.4-1,0.6
			c-0.3,0.3-0.5,0.6-0.6,1c-0.1,0.4-0.2,0.8-0.2,1.2c0,0.4,0.1,0.9,0.2,1.2c0.1,0.4,0.4,0.7,0.6,1c0.3,0.3,0.6,0.5,1,0.6
			c0.4,0.1,0.8,0.2,1.3,0.2c0.5,0,1-0.1,1.4-0.2c0.4-0.1,0.7-0.4,1-0.6c0.3-0.3,0.5-0.6,0.6-1c0.1-0.4,0.2-0.8,0.2-1.2
			c0-0.4-0.1-0.9-0.2-1.2c-0.1-0.4-0.3-0.7-0.6-1c-0.3-0.3-0.6-0.5-1-0.6C121.8,31.7,121.4,31.6,120.8,31.6z"/>
	</g>
	<g>
		<path class="st2" d="M63.7,121.3c-0.6,0-1.2-0.1-1.8-0.4c-0.6-0.2-1.1-0.6-1.5-1c-0.4-0.4-0.8-0.9-1-1.5c-0.3-0.6-0.4-1.2-0.4-1.8
			c0-0.6,0.1-1.3,0.4-1.8c0.3-0.6,0.6-1.1,1-1.5c0.4-0.4,0.9-0.8,1.5-1c0.6-0.3,1.2-0.4,1.8-0.4h4.9v-0.5h-1.7v-2.5h4.2v3h4.9
			c0.6,0,1.2,0.1,1.8,0.4c0.6,0.3,1.1,0.6,1.5,1c0.4,0.4,0.8,0.9,1,1.5c0.3,0.6,0.4,1.2,0.4,1.8c0,0.7-0.1,1.3-0.4,1.8
			c-0.3,0.6-0.6,1.1-1,1.5c-0.4,0.4-0.9,0.8-1.5,1c-0.6,0.2-1.2,0.4-1.8,0.4h-4.9v0.7h1.6v2.5h-5.8V122h1.7v-0.7H63.7z M61.5,116.6
			c0,0.3,0.1,0.6,0.2,0.9c0.1,0.3,0.3,0.5,0.5,0.7c0.2,0.2,0.4,0.4,0.7,0.5c0.3,0.1,0.6,0.2,0.9,0.2h4.9v-4.4h-4.9
			c-0.3,0-0.6,0.1-0.9,0.2c-0.3,0.1-0.5,0.3-0.7,0.5c-0.2,0.2-0.4,0.4-0.5,0.7C61.5,116,61.5,116.2,61.5,116.6z M78.2,116.6
			c0-0.3-0.1-0.6-0.2-0.9c-0.1-0.3-0.3-0.5-0.5-0.7c-0.2-0.2-0.4-0.4-0.7-0.5c-0.3-0.1-0.6-0.2-0.9-0.2h-4.9v4.4H76
			c0.3,0,0.6-0.1,0.9-0.2c0.3-0.1,0.5-0.3,0.7-0.5c0.2-0.2,0.4-0.4,0.5-0.7C78.2,117.2,78.2,116.9,78.2,116.6z"/>
		<path class="st2" d="M100.3,124.4h-5.8v-2.5H96l-0.5-1.9h-7.6l-0.6,1.9h1.5v2.5h-5.8v-2.5h1.7l3.1-10.5h-1.3v-2.5h8.3l3.9,13.1
			h1.7V124.4z M88.5,117.5h6.1l-1.8-6.1h-2.5L88.5,117.5z"/>
		<path class="st2" d="M106.8,115h2.3c0.4,0,0.7-0.1,1-0.3c0.3-0.2,0.6-0.4,0.7-0.8l1.5-3c0.3-0.6,0.8-1.1,1.4-1.6
			c0.6-0.4,1.2-0.6,2-0.6c0.5,0,1.1,0.1,1.6,0.4c0.5,0.3,1,0.7,1.3,1.3l-1.6,1.6c-0.5-0.5-0.9-0.8-1.3-0.8c-0.2,0-0.4,0.1-0.6,0.2
			c-0.2,0.1-0.3,0.3-0.4,0.5l-1.5,2.9c-0.1,0.1-0.2,0.3-0.3,0.4c-0.1,0.2-0.2,0.3-0.4,0.4c-0.1,0.1-0.3,0.2-0.4,0.3
			c-0.1,0.1-0.2,0.2-0.3,0.2c0.1,0,0.2,0.1,0.3,0.1c0.1,0.1,0.3,0.2,0.4,0.3c0.1,0.1,0.2,0.2,0.3,0.4c0.1,0.1,0.2,0.2,0.2,0.4
			l1.5,3.3c0.2,0.4,0.4,0.7,0.6,1c0.2,0.2,0.6,0.4,1.1,0.4c0.4,0,0.7-0.1,0.9-0.2c0.2-0.1,0.5-0.4,0.7-0.6l1.6,1.8
			c-0.3,0.3-0.5,0.5-0.7,0.7c-0.2,0.2-0.5,0.4-0.7,0.5c-0.3,0.1-0.5,0.2-0.8,0.3c-0.3,0.1-0.6,0.1-1,0.1c-1,0-1.9-0.3-2.5-0.8
			c-0.6-0.5-1.2-1.3-1.6-2.2l-1.3-2.8c-0.2-0.4-0.4-0.7-0.7-0.9c-0.3-0.2-0.7-0.3-1-0.3h-2.3v4.4h1.7v2.5h-5.8v-2.5h1.6v-10.5h-1.6
			v-2.5h5.8v2.5h-1.7V115z"/>
		<path class="st2" d="M133.8,111.4h-1.5v-2.5h5.8v2.5h-1.7l-3.7,10.2c-0.4,1-0.9,1.8-1.6,2.2c-0.7,0.5-1.6,0.7-2.6,0.7
			c-0.7,0-1.4-0.1-1.9-0.4c-0.6-0.3-1.1-0.7-1.6-1.2l1.6-1.8c0.3,0.3,0.6,0.5,0.9,0.7c0.3,0.2,0.7,0.2,1.1,0.2c0.2,0,0.4,0,0.6-0.1
			c0.2-0.1,0.4-0.1,0.6-0.2c0.2-0.1,0.4-0.2,0.5-0.4c0.2-0.2,0.3-0.4,0.4-0.6l0.2-0.7h-4.7l-3-8.6h-1.7v-2.5h3.3l3,8.6h3.9
			L133.8,111.4z"/>
		<path class="st2" d="M152.7,121.9h1.7v-10.5h-5.6l-1.2,8.4c-0.1,0.7-0.3,1.3-0.5,1.9c-0.2,0.6-0.5,1.1-0.9,1.5
			c-0.4,0.4-0.8,0.8-1.4,1c-0.5,0.2-1.1,0.4-1.8,0.4c-0.4,0-0.7,0-1-0.1c-0.3-0.1-0.6-0.2-0.8-0.3c-0.3-0.1-0.5-0.3-0.7-0.5
			c-0.2-0.2-0.5-0.4-0.7-0.7l1.6-1.8c0.3,0.3,0.5,0.5,0.7,0.6c0.2,0.1,0.5,0.2,0.9,0.2c0.3,0,0.6-0.1,0.9-0.2
			c0.2-0.2,0.5-0.4,0.6-0.6c0.2-0.3,0.3-0.5,0.4-0.9c0.1-0.3,0.2-0.6,0.2-1l1.2-8H144v-2.5h12.9v13.1h1.6v2.5h-5.8V121.9z"/>
		<path class="st2" d="M172.2,124.4H161v-2.5h1.6v-10.5H161v-2.5h5.9v2.5h-1.7v3.6h7c0.6,0,1.2,0.1,1.8,0.4c0.6,0.3,1.1,0.6,1.5,1
			c0.4,0.4,0.8,0.9,1,1.5c0.3,0.6,0.4,1.2,0.4,1.8c0,0.7-0.1,1.3-0.4,1.8c-0.3,0.6-0.6,1.1-1,1.5c-0.4,0.4-0.9,0.8-1.5,1
			C173.4,124.3,172.8,124.4,172.2,124.4z M174.4,119.7c0-0.3-0.1-0.6-0.2-0.9c-0.1-0.3-0.3-0.5-0.5-0.7c-0.2-0.2-0.4-0.4-0.7-0.5
			c-0.3-0.1-0.6-0.2-0.9-0.2h-7v4.4h7c0.3,0,0.6-0.1,0.9-0.2c0.3-0.1,0.5-0.3,0.7-0.5c0.2-0.2,0.4-0.4,0.5-0.7
			C174.3,120.3,174.4,120,174.4,119.7z"/>
		<path class="st2" d="M181.4,113.3h-2.3v-4.4H196v4.4h-2.3l-0.2-1.9h-4.7v10.5h1.7v2.5h-5.8v-2.5h1.7v-10.5h-4.7L181.4,113.3z"/>
		<path class="st2" d="M213.1,113.3h-2.3l-0.2-1.9h-7.9v3.6h6.6v2.5h-6.6v4.4h8.1l0.2-1.9h2.3v4.4h-14.8v-2.5h1.6v-10.5h-1.6v-2.5
			h14.6V113.3z"/>
		<path class="st2" d="M218.2,113.3h-2.3v-4.4h16.9v4.4h-2.3l-0.2-1.9h-4.7v10.5h1.7v2.5h-5.8v-2.5h1.7v-10.5h-4.7L218.2,113.3z"/>
		<path class="st2" d="M83.9,147.1h1.7v-10.5h-0.6l-5.7,13.1h-4.7v-13.1h-1.7v-2.5h5.8v2.5h-1.7v10.5h0.6l5.7-13.1h6.3v2.5h-1.6
			v10.5h1.6v2.5h-5.8V147.1z"/>
		<path class="st2" d="M100.9,136.4c-0.9,0-1.7,0.1-2.4,0.4c-0.7,0.3-1.4,0.6-1.9,1.1c-0.5,0.5-1,1-1.3,1.7
			c-0.3,0.7-0.5,1.4-0.5,2.2c0,0.8,0.2,1.5,0.5,2.2c0.3,0.7,0.7,1.2,1.3,1.7c0.5,0.5,1.2,0.8,1.9,1.1c0.7,0.3,1.5,0.4,2.4,0.4
			c1.1,0,2.2-0.2,3-0.6c0.9-0.4,1.6-1,2.1-1.7l1.9,1.7c-0.8,1-1.8,1.7-3,2.3c-1.2,0.5-2.5,0.8-3.9,0.8c-1.1,0-2.2-0.2-3.2-0.6
			c-1-0.4-2-0.9-2.8-1.6c-0.8-0.7-1.4-1.5-1.9-2.5c-0.5-1-0.7-2.1-0.7-3.3c0-1.2,0.2-2.4,0.7-3.3c0.5-1,1.1-1.8,1.9-2.5
			c0.8-0.7,1.7-1.2,2.8-1.6c1-0.4,2.1-0.5,3.2-0.5c0.9,0,1.7,0.1,2.4,0.2c0.7,0.1,1.3,0.3,1.8,0.5c0.5,0.2,0.9,0.4,1.3,0.6
			c0.4,0.2,0.7,0.4,1,0.6v2.7H105l-0.1-1.1c-0.3-0.2-0.5-0.3-0.8-0.4c-0.3-0.1-0.5-0.2-0.9-0.3c-0.3-0.1-0.7-0.1-1.1-0.2
			C101.9,136.5,101.4,136.4,100.9,136.4z"/>
		<path class="st2" d="M114.3,140.2h2.3c0.4,0,0.7-0.1,1-0.3c0.3-0.2,0.6-0.4,0.7-0.8l1.5-3c0.3-0.6,0.8-1.1,1.4-1.6
			c0.6-0.4,1.2-0.6,2-0.6c0.5,0,1.1,0.1,1.6,0.4c0.5,0.3,1,0.7,1.3,1.3l-1.6,1.6c-0.5-0.5-0.9-0.8-1.3-0.8c-0.2,0-0.4,0.1-0.6,0.2
			c-0.2,0.1-0.3,0.3-0.4,0.5l-1.5,2.9c-0.1,0.1-0.2,0.3-0.3,0.4c-0.1,0.2-0.2,0.3-0.4,0.4c-0.1,0.1-0.3,0.2-0.4,0.3
			c-0.1,0.1-0.2,0.2-0.3,0.2c0.1,0,0.2,0.1,0.3,0.1c0.1,0.1,0.3,0.2,0.4,0.3c0.1,0.1,0.2,0.2,0.3,0.4c0.1,0.1,0.2,0.2,0.2,0.4
			l1.5,3.3c0.2,0.4,0.4,0.7,0.6,1c0.2,0.2,0.6,0.4,1.1,0.4c0.4,0,0.7-0.1,0.9-0.2c0.2-0.1,0.5-0.4,0.7-0.6l1.6,1.8
			c-0.3,0.3-0.5,0.5-0.7,0.7c-0.2,0.2-0.5,0.4-0.7,0.5c-0.3,0.1-0.5,0.2-0.8,0.3c-0.3,0.1-0.6,0.1-1,0.1c-1,0-1.9-0.3-2.5-0.8
			s-1.2-1.3-1.6-2.2l-1.3-2.8c-0.2-0.4-0.4-0.7-0.7-0.9c-0.3-0.2-0.7-0.3-1-0.3h-2.3v4.4h1.7v2.5h-5.8v-2.5h1.6v-10.5h-1.6v-2.5h5.8
			v2.5h-1.7V140.2z"/>
		<path class="st2" d="M141.4,136.6h-1.5v-2.5h5.8v2.5H144l-3.7,10.2c-0.4,1-0.9,1.8-1.6,2.2c-0.7,0.5-1.6,0.7-2.6,0.7
			c-0.7,0-1.4-0.1-1.9-0.4c-0.6-0.3-1.1-0.7-1.6-1.2l1.6-1.8c0.3,0.3,0.6,0.5,0.9,0.7c0.3,0.2,0.7,0.2,1.1,0.2c0.2,0,0.4,0,0.6-0.1
			c0.2-0.1,0.4-0.1,0.6-0.2c0.2-0.1,0.4-0.2,0.5-0.4c0.2-0.2,0.3-0.4,0.4-0.6l0.2-0.7h-4.7l-3-8.6h-1.7v-2.5h3.3l3,8.6h3.9
			L141.4,136.6z"/>
		<path class="st2" d="M156.6,136.4c-0.9,0-1.7,0.1-2.4,0.4c-0.7,0.3-1.4,0.6-1.9,1.1c-0.5,0.5-1,1-1.3,1.7
			c-0.3,0.7-0.5,1.4-0.5,2.2c0,0.8,0.2,1.5,0.5,2.2c0.3,0.7,0.7,1.2,1.3,1.7c0.5,0.5,1.2,0.8,1.9,1.1c0.7,0.3,1.5,0.4,2.4,0.4
			c1.1,0,2.2-0.2,3-0.6c0.9-0.4,1.6-1,2.1-1.7l1.9,1.7c-0.8,1-1.8,1.7-3,2.3c-1.2,0.5-2.5,0.8-3.9,0.8c-1.1,0-2.2-0.2-3.2-0.6
			c-1-0.4-2-0.9-2.8-1.6c-0.8-0.7-1.4-1.5-1.9-2.5c-0.5-1-0.7-2.1-0.7-3.3c0-1.2,0.2-2.4,0.7-3.3c0.5-1,1.1-1.8,1.9-2.5
			c0.8-0.7,1.7-1.2,2.8-1.6c1-0.4,2.1-0.5,3.2-0.5c0.9,0,1.7,0.1,2.4,0.2c0.7,0.1,1.3,0.3,1.8,0.5c0.5,0.2,0.9,0.4,1.3,0.6
			c0.4,0.2,0.7,0.4,1,0.6v2.7h-2.3l-0.1-1.1c-0.3-0.2-0.5-0.3-0.8-0.4c-0.3-0.1-0.5-0.2-0.9-0.3c-0.3-0.1-0.7-0.1-1.1-0.2
			C157.6,136.5,157.1,136.4,156.6,136.4z"/>
		<path class="st2" d="M174.5,136.4c-0.9,0-1.7,0.1-2.4,0.4c-0.7,0.3-1.4,0.6-1.9,1.1c-0.5,0.5-1,1-1.3,1.7
			c-0.3,0.7-0.5,1.4-0.5,2.2c0,0.8,0.2,1.5,0.5,2.2c0.3,0.7,0.7,1.2,1.3,1.7c0.5,0.5,1.2,0.8,1.9,1.1c0.7,0.3,1.5,0.4,2.4,0.4
			c1.1,0,2.2-0.2,3-0.6c0.9-0.4,1.6-1,2.1-1.7l1.9,1.7c-0.8,1-1.8,1.7-3,2.3c-1.2,0.5-2.5,0.8-3.9,0.8c-1.1,0-2.2-0.2-3.2-0.6
			c-1-0.4-2-0.9-2.8-1.6c-0.8-0.7-1.4-1.5-1.9-2.5c-0.5-1-0.7-2.1-0.7-3.3c0-1.2,0.2-2.4,0.7-3.3c0.5-1,1.1-1.8,1.9-2.5
			c0.8-0.7,1.7-1.2,2.8-1.6c1-0.4,2.1-0.5,3.2-0.5c0.9,0,1.7,0.1,2.4,0.2c0.7,0.1,1.3,0.3,1.8,0.5c0.5,0.2,0.9,0.4,1.3,0.6
			c0.4,0.2,0.7,0.4,1,0.6v2.7h-2.3l-0.1-1.1c-0.3-0.2-0.5-0.3-0.8-0.4c-0.3-0.1-0.5-0.2-0.9-0.3c-0.3-0.1-0.7-0.1-1.1-0.2
			C175.5,136.5,175,136.4,174.5,136.4z"/>
		<path class="st2" d="M186,138.5h-2.3v-4.4h16.9v4.4h-2.3l-0.2-1.9h-4.7v10.5h1.7v2.5h-5.8v-2.5h1.7v-10.5h-4.7L186,138.5z"/>
		<path class="st2" d="M214.3,149.6h-11.1v-2.5h1.6v-10.5h-1.6v-2.5h10.5c0.6,0,1.1,0.1,1.7,0.3c0.5,0.2,1,0.5,1.4,0.9
			c0.4,0.4,0.7,0.9,0.9,1.4c0.2,0.5,0.3,1.1,0.3,1.7c0,0.5-0.1,1-0.3,1.4c-0.2,0.5-0.4,0.9-0.7,1.2c0.6,0.4,1.1,1,1.5,1.7
			c0.4,0.7,0.5,1.4,0.5,2.2c0,0.7-0.1,1.3-0.4,1.8c-0.3,0.6-0.6,1.1-1,1.5c-0.4,0.4-0.9,0.8-1.5,1
			C215.5,149.5,214.9,149.6,214.3,149.6z M215.4,138.4c0-0.5-0.2-0.9-0.5-1.3c-0.4-0.3-0.8-0.5-1.3-0.5h-6.3v3.6h6.3
			c0.3,0,0.5,0,0.7-0.1c0.2-0.1,0.4-0.2,0.6-0.4c0.2-0.2,0.3-0.4,0.4-0.6C215.3,138.9,215.4,138.6,215.4,138.4z M214.3,142.7h-7v4.4
			h7c0.3,0,0.6-0.1,0.9-0.2c0.3-0.1,0.5-0.3,0.7-0.5c0.2-0.2,0.4-0.4,0.5-0.7c0.1-0.3,0.2-0.6,0.2-0.9c0-0.3-0.1-0.6-0.2-0.8
			c-0.1-0.3-0.3-0.5-0.5-0.7c-0.2-0.2-0.4-0.4-0.7-0.5C214.9,142.8,214.6,142.7,214.3,142.7z"/>
	</g>
	<path class="st0" d="M221.4,38.9c0.5,0.3,1.1,0.4,1.7,0.4c2.2,0,4-1.8,4-4c0-2.2-1.8-4.1-4-4.1c-2.6,0-4.4,0.8-5.4,2.3
		c-1.7,2.6-0.5,6.4,1.5,11.2h-24.6c2-4.7,3.2-8.5,1.5-11.2c-1-1.5-2.8-2.3-5.4-2.3c-2.2,0-4.1,1.8-4.1,4.1c0,2.2,1.8,4,4.1,4
		c0.6,0,1.2-0.1,1.7-0.4c-0.5,1.7-1.4,3.9-2.2,5.8h-4.9v2.7h3.8c-1.9,4.4-3.8,9.2-3.8,13.5c0,7.3,5.9,18.9,21.6,18.9
		c15.7,0,21.6-11.6,21.6-18.9c0-4.3-1.9-9.1-3.8-13.5h3.8v-2.7h-4.9C222.8,42.8,221.9,40.7,221.4,38.9z M223.2,33.9
		c0.7,0,1.3,0.6,1.3,1.3c0,0.7-0.6,1.3-1.3,1.3c-0.7,0-1.4-0.6-1.4-1.3C221.8,34.5,222.4,33.9,223.2,33.9z M190.8,36.6
		c-0.7,0-1.3-0.6-1.3-1.3c0-0.7,0.6-1.3,1.3-1.3c0.7,0,1.4,0.6,1.4,1.3C192.1,36,191.5,36.6,190.8,36.6z M197.5,73.6
		c-5.8-3-8.1-8.7-8.1-12.7c0-3.9,2.2-9,4.1-13.5h4V73.6z M202.9,75.4c-1-0.2-1.9-0.4-2.7-0.7V47.4h2.7V75.4z M208.3,75.7
		c-0.4,0-0.9,0-1.4,0c-0.5,0-0.9,0-1.3,0V47.4h2.7V75.7z M213.7,74.8c-0.8,0.3-1.7,0.5-2.7,0.7v-28h2.7V74.8z M216.4,73.6V47.4h4
		c1.9,4.5,4.1,9.6,4.1,13.5C224.5,65,222.2,70.6,216.4,73.6z"/>
</g>
</svg>
