<?xml version="1.0" encoding="utf-8"?>
<!-- Generator: Adobe Illustrator 19.0.0, SVG Export Plug-In . SVG Version: 6.00 Build 0)  -->
<svg version="1.1" id="Слой_1" xmlns="http://www.w3.org/2000/svg" xmlns:xlink="http://www.w3.org/1999/xlink" x="0px" y="0px"
	 viewBox="0 0 292.5 225.3" style="enable-background:new 0 0 292.5 225.3;" xml:space="preserve">
<style type="text/css">
	.st0{fill:#1E54C1;}
	.st1{fill:#2D2D2D;}
	.st2{fill:#FFFFFF;}
</style>
<g>
	<g>
		<rect x="9.8" y="88.2" class="st0" width="273.2" height="127.5"/>
		<g>
			<rect x="179.3" y="78.6" class="st0" width="55.2" height="4.4"/>
			<polygon class="st0" points="239.7,78.6 239.7,83 288.1,83 288.1,220.8 4.7,220.8 4.7,83 174.2,83 174.2,78.6 0.3,78.6 
				0.3,225.3 292.5,225.3 292.5,78.6 			"/>
		</g>
	</g>
	<g>
		<path class="st1" d="M37.9,11.3c-3.8,0-7.3,0.6-10.5,1.7c-3.2,1.2-6,2.8-8.4,4.9c-2.4,2.1-4.2,4.6-5.6,7.5c-1.3,2.9-2,6.1-2,9.6
			c0,3.5,0.7,6.7,2,9.6c1.3,2.9,3.2,5.4,5.6,7.5c2.4,2.1,5.1,3.7,8.4,4.9c3.2,1.2,6.7,1.7,10.5,1.7c5,0,9.4-0.9,13.2-2.6
			c3.8-1.7,6.8-4.2,9-7.3l8.2,7.4c-3.5,4.3-7.9,7.6-13.2,10c-5.3,2.4-11,3.5-17.2,3.5c-4.9,0-9.6-0.8-14.2-2.4
			c-4.6-1.6-8.6-3.9-12.1-7c-3.5-3-6.3-6.7-8.4-11c-2.1-4.3-3.1-9.1-3.1-14.4c0-5.4,1-10.3,3.1-14.6c2.1-4.3,4.9-8,8.4-10.9
			c3.5-3,7.5-5.2,12.1-6.8c4.6-1.6,9.3-2.4,14.2-2.4c4,0,7.6,0.3,10.6,0.8c3,0.5,5.6,1.2,7.8,2c2.2,0.8,4.1,1.7,5.7,2.6
			c1.6,0.9,3,1.8,4.2,2.6v11.8H56l-0.5-4.8c-1.1-0.7-2.2-1.3-3.3-1.8c-1.1-0.5-2.3-0.9-3.7-1.3c-1.4-0.3-2.9-0.6-4.6-0.7
			C42.2,11.4,40.2,11.3,37.9,11.3z"/>
		<path class="st1" d="M70.2,35.1c0-5.4,1-10.3,3.1-14.6c2.1-4.3,4.9-8,8.4-10.9c3.5-3,7.5-5.2,12.1-6.8c4.6-1.6,9.3-2.4,14.2-2.4
			c5.1,0,10,0.8,14.6,2.4c4.6,1.6,8.6,3.9,12,6.8c3.4,3,6.2,6.6,8.2,10.9c2,4.3,3,9.2,3,14.6c0,5.3-1,10-3,14.3
			c-2,4.3-4.7,7.9-8.2,11c-3.4,3-7.4,5.4-12,7c-4.6,1.7-9.4,2.5-14.6,2.5c-4.9,0-9.6-0.8-14.2-2.4c-4.6-1.6-8.6-3.9-12.1-7
			c-3.5-3-6.3-6.7-8.4-11C71.2,45.2,70.2,40.4,70.2,35.1z M107.9,11.3c-3.8,0-7.3,0.6-10.5,1.7c-3.2,1.2-6,2.8-8.4,4.9
			c-2.4,2.1-4.2,4.6-5.6,7.5c-1.3,2.9-2,6.1-2,9.6c0,3.5,0.7,6.7,2,9.6c1.3,2.9,3.2,5.4,5.6,7.5c2.4,2.1,5.1,3.7,8.4,4.9
			c3.2,1.2,6.7,1.7,10.5,1.7c4,0,7.7-0.6,10.9-1.7c3.2-1.2,6-2.8,8.3-4.9c2.3-2.1,4.1-4.6,5.3-7.5c1.3-2.9,1.9-6.1,1.9-9.6
			c0-3.5-0.6-6.7-1.9-9.6c-1.3-2.9-3-5.4-5.3-7.5c-2.3-2.1-5.1-3.7-8.3-4.9C115.6,11.9,111.9,11.3,107.9,11.3z"/>
		<path class="st1" d="M213.4,20.1h-10.1l-0.9-8.2h-35.5V58h7.3v11h-25.4V58h7.2V12h-7.2v-11h64.7V20.1z"/>
		<path class="st1" d="M273.8,12h-6.7v-11h25.5v11h-7.3l-16.1,44.4c-1.6,4.4-4,7.7-7.1,9.8c-3.2,2.1-7,3.2-11.4,3.2
			c-3.2,0-6.1-0.6-8.5-1.8c-2.4-1.2-4.8-2.9-7-5.2l6.9-8c1.2,1.2,2.5,2.2,3.9,2.9c1.4,0.7,3,1.1,4.7,1.1c0.7,0,1.6-0.1,2.5-0.4
			c0.9-0.2,1.8-0.6,2.7-1.1c0.9-0.5,1.6-1.1,2.3-1.8c0.7-0.7,1.2-1.6,1.6-2.6l0.9-2.8h-20.4l-13-37.7h-7.3v-11h14.4l13.1,37.7h17
			L273.8,12z"/>
	</g>
	<g>
		<path class="st0" d="M93.9,30.5h1.1v7.3h2.7v1.4h-7.1v-1.4h2.9v-5.1l-2.2,2.2L90.4,34L93.9,30.5z"/>
		<path class="st0" d="M102.4,30.5c0.7,0,1.4,0.1,2,0.3c0.6,0.2,1.1,0.5,1.5,0.9c0.4,0.4,0.7,0.9,0.9,1.4c0.2,0.5,0.3,1.2,0.3,1.8
			c0,0.7-0.1,1.3-0.4,1.9c-0.3,0.6-0.6,1-1,1.4c-0.4,0.4-0.9,0.7-1.5,0.9c-0.6,0.2-1.2,0.3-1.8,0.3c-0.4,0-0.8,0-1.1-0.1
			c-0.3,0-0.6-0.1-0.9-0.2c-0.3-0.1-0.6-0.2-0.9-0.3c-0.3-0.1-0.7-0.3-1-0.5l0.8-1.1c0.3,0.2,0.6,0.3,0.8,0.4
			c0.2,0.1,0.5,0.2,0.7,0.2c0.2,0.1,0.5,0.1,0.7,0.1c0.3,0,0.5,0,0.9,0c0.9,0,1.6-0.2,2.2-0.7c0.5-0.5,0.9-1.1,1-1.8
			c-0.1,0.1-0.3,0.2-0.5,0.3c-0.2,0.1-0.4,0.2-0.7,0.3c-0.3,0.1-0.6,0.2-0.9,0.3c-0.3,0.1-0.7,0.1-1.1,0.1c-0.6,0-1.1-0.1-1.7-0.2
			c-0.5-0.1-1-0.3-1.4-0.5c-0.4-0.2-0.7-0.5-1-0.9c-0.2-0.4-0.4-0.8-0.4-1.3c0-0.5,0.1-1,0.4-1.4c0.2-0.4,0.6-0.7,1-1
			c0.4-0.3,0.9-0.4,1.4-0.6C101.3,30.5,101.8,30.5,102.4,30.5z M102.4,31.9c-0.4,0-0.7,0-1.1,0.1c-0.4,0.1-0.7,0.2-0.9,0.3
			c-0.3,0.1-0.5,0.3-0.7,0.5c-0.2,0.2-0.2,0.4-0.2,0.7c0,0.2,0.1,0.4,0.2,0.6c0.1,0.2,0.3,0.4,0.6,0.5c0.2,0.1,0.5,0.3,0.9,0.3
			c0.4,0.1,0.8,0.1,1.3,0.1c0.4,0,0.8,0,1.1-0.1c0.3-0.1,0.6-0.2,0.9-0.3c0.3-0.1,0.5-0.2,0.7-0.3c0.2-0.1,0.4-0.2,0.5-0.3
			c-0.1-0.3-0.2-0.6-0.4-0.9c-0.2-0.3-0.4-0.5-0.6-0.7c-0.3-0.2-0.6-0.3-0.9-0.4C103.3,31.9,102.8,31.9,102.4,31.9z"/>
		<path class="st0" d="M115.7,39.3h-8.1v-1.4c0-0.4,0.1-0.8,0.2-1.1c0.1-0.3,0.4-0.7,0.7-1c0.3-0.3,0.7-0.6,1.2-0.8
			c0.5-0.3,1.1-0.5,1.8-0.7c0.6-0.2,1-0.3,1.3-0.4c0.3-0.1,0.5-0.2,0.7-0.3c0.2-0.1,0.2-0.2,0.3-0.3c0-0.1,0-0.2,0-0.3
			c0-0.2-0.1-0.4-0.2-0.5c-0.1-0.1-0.3-0.2-0.5-0.3c-0.2-0.1-0.4-0.1-0.7-0.1c-0.3,0-0.5,0-0.9,0c-0.3,0-0.6,0-1,0.1
			c-0.3,0.1-0.6,0.2-0.9,0.3c-0.3,0.1-0.5,0.3-0.8,0.4c-0.2,0.2-0.4,0.3-0.6,0.5l-1.1-1c0.2-0.3,0.5-0.5,0.8-0.7
			c0.3-0.2,0.7-0.4,1.1-0.6c0.4-0.2,0.8-0.3,1.2-0.4c0.4-0.1,0.8-0.1,1.2-0.1c0.5,0,1,0,1.5,0.1c0.5,0.1,0.9,0.2,1.2,0.4
			c0.3,0.2,0.6,0.4,0.8,0.7c0.2,0.3,0.3,0.7,0.3,1.1c0,0.4-0.1,0.7-0.2,0.9c-0.2,0.2-0.4,0.5-0.7,0.7c-0.3,0.2-0.6,0.4-1.1,0.5
			c-0.4,0.2-0.9,0.3-1.3,0.5c-0.6,0.2-1.1,0.4-1.6,0.7c-0.4,0.2-0.7,0.4-1,0.6c-0.2,0.2-0.4,0.4-0.5,0.6c-0.1,0.2-0.1,0.4-0.1,0.5
			h5.3l0.1-1h1.3V39.3z"/>
		<path class="st0" d="M116.3,34.9c0-0.7,0.1-1.3,0.4-1.9c0.2-0.6,0.6-1,1-1.4c0.4-0.4,0.9-0.7,1.5-0.9c0.6-0.2,1.2-0.3,1.8-0.3
			c0.7,0,1.3,0.1,1.8,0.3c0.6,0.2,1.1,0.5,1.5,0.9c0.4,0.4,0.7,0.8,1,1.4c0.2,0.6,0.3,1.2,0.3,1.9c0,0.7-0.1,1.3-0.3,1.8
			c-0.2,0.6-0.6,1-1,1.4c-0.4,0.4-0.9,0.7-1.5,0.9c-0.6,0.2-1.2,0.3-1.8,0.3c-0.6,0-1.2-0.1-1.8-0.3c-0.6-0.2-1.1-0.5-1.5-0.9
			c-0.4-0.4-0.7-0.9-1-1.4C116.4,36.2,116.3,35.6,116.3,34.9z M120.9,31.8c-0.5,0-0.9,0.1-1.3,0.2c-0.4,0.1-0.7,0.4-1,0.6
			c-0.3,0.3-0.5,0.6-0.6,1c-0.1,0.4-0.2,0.8-0.2,1.2c0,0.4,0.1,0.9,0.2,1.2c0.1,0.4,0.4,0.7,0.6,1c0.3,0.3,0.6,0.5,1,0.6
			c0.4,0.1,0.8,0.2,1.3,0.2c0.5,0,1-0.1,1.4-0.2c0.4-0.1,0.7-0.4,1-0.6c0.3-0.3,0.5-0.6,0.6-1c0.1-0.4,0.2-0.8,0.2-1.2
			c0-0.4-0.1-0.9-0.2-1.2c-0.1-0.4-0.3-0.7-0.6-1c-0.3-0.3-0.6-0.5-1-0.6C121.9,31.9,121.5,31.8,120.9,31.8z"/>
	</g>
	<g>
		<path class="st2" d="M72.3,120.2c-0.6,0-1.1-0.1-1.6-0.3c-0.5-0.2-1-0.5-1.4-0.9c-0.4-0.4-0.7-0.8-0.9-1.4
			c-0.2-0.5-0.3-1.1-0.3-1.7c0-0.6,0.1-1.1,0.3-1.7c0.2-0.5,0.5-1,0.9-1.4c0.4-0.4,0.8-0.7,1.4-0.9c0.5-0.2,1.1-0.3,1.6-0.3h4.5
			v-0.5h-1.5V109H79v2.7h4.5c0.6,0,1.1,0.1,1.6,0.3c0.5,0.2,1,0.5,1.3,0.9c0.4,0.4,0.7,0.8,0.9,1.4c0.2,0.5,0.3,1.1,0.3,1.7
			c0,0.6-0.1,1.2-0.3,1.7c-0.2,0.5-0.5,1-0.9,1.4s-0.8,0.7-1.4,0.9c-0.5,0.2-1.1,0.3-1.6,0.3H79v0.6h1.5v2.2h-5.3v-2.2h1.5v-0.6
			H72.3z M70.3,115.9c0,0.3,0.1,0.5,0.2,0.8c0.1,0.2,0.3,0.5,0.4,0.6c0.2,0.2,0.4,0.3,0.6,0.4c0.2,0.1,0.5,0.2,0.8,0.2h4.4v-4h-4.4
			c-0.3,0-0.5,0.1-0.8,0.2c-0.2,0.1-0.5,0.3-0.6,0.4c-0.2,0.2-0.3,0.4-0.4,0.6C70.3,115.4,70.3,115.6,70.3,115.9z M85.4,115.9
			c0-0.3-0.1-0.5-0.2-0.8c-0.1-0.2-0.3-0.4-0.4-0.6c-0.2-0.2-0.4-0.3-0.6-0.4c-0.2-0.1-0.5-0.2-0.8-0.2H79v4h4.4
			c0.3,0,0.5-0.1,0.8-0.2c0.2-0.1,0.5-0.2,0.6-0.4c0.2-0.2,0.3-0.4,0.4-0.6C85.4,116.5,85.4,116.2,85.4,115.9z"/>
		<path class="st2" d="M105.4,123.1h-5.3v-2.3h1.4L101,119h-6.9l-0.5,1.7H95v2.3h-5.3v-2.3h1.5l2.8-9.5h-1.2V109h7.5l3.5,11.8h1.5
			V123.1z M94.8,116.8h5.5l-1.6-5.5h-2.2L94.8,116.8z"/>
		<path class="st2" d="M111.2,114.5h2.1c0.3,0,0.6-0.1,0.9-0.2c0.3-0.2,0.5-0.4,0.7-0.7l1.4-2.7c0.3-0.6,0.7-1,1.2-1.4
			c0.5-0.4,1.1-0.6,1.8-0.6c0.5,0,1,0.1,1.4,0.4c0.5,0.3,0.9,0.7,1.2,1.2l-1.5,1.5c-0.4-0.5-0.8-0.7-1.1-0.7c-0.2,0-0.4,0.1-0.6,0.2
			c-0.2,0.1-0.3,0.2-0.4,0.4l-1.3,2.6c-0.1,0.1-0.1,0.2-0.3,0.4c-0.1,0.1-0.2,0.3-0.3,0.4c-0.1,0.1-0.2,0.2-0.4,0.3
			c-0.1,0.1-0.2,0.1-0.3,0.2c0.1,0,0.2,0.1,0.3,0.1c0.1,0.1,0.2,0.2,0.4,0.3c0.1,0.1,0.2,0.2,0.3,0.3c0.1,0.1,0.2,0.2,0.2,0.3l1.4,3
			c0.2,0.4,0.3,0.7,0.6,0.9c0.2,0.2,0.5,0.3,1,0.3c0.4,0,0.6-0.1,0.8-0.2c0.2-0.1,0.4-0.3,0.7-0.6l1.4,1.6c-0.2,0.2-0.4,0.4-0.7,0.6
			s-0.4,0.3-0.7,0.5c-0.2,0.1-0.5,0.2-0.7,0.3c-0.3,0.1-0.6,0.1-0.9,0.1c-0.9,0-1.7-0.2-2.3-0.7c-0.6-0.5-1.1-1.2-1.5-2l-1.2-2.6
			c-0.1-0.3-0.4-0.6-0.7-0.8c-0.3-0.2-0.6-0.3-1-0.3h-2.1v4h1.5v2.3h-5.3v-2.3h1.5v-9.5h-1.5V109h5.3v2.3h-1.5V114.5z"/>
		<path class="st2" d="M135.8,111.2h-1.4V109h5.3v2.3h-1.5l-3.3,9.2c-0.3,0.9-0.8,1.6-1.5,2c-0.7,0.4-1.4,0.7-2.4,0.7
			c-0.7,0-1.3-0.1-1.8-0.4c-0.5-0.2-1-0.6-1.5-1.1l1.4-1.7c0.3,0.3,0.5,0.5,0.8,0.6s0.6,0.2,1,0.2c0.2,0,0.3,0,0.5-0.1
			c0.2-0.1,0.4-0.1,0.6-0.2c0.2-0.1,0.3-0.2,0.5-0.4c0.1-0.2,0.3-0.3,0.3-0.5l0.2-0.6h-4.2l-2.7-7.8h-1.5V109h3l2.7,7.8h3.5
			L135.8,111.2z"/>
		<path class="st2" d="M152.8,120.8h1.5v-9.5h-5l-1.1,7.6c-0.1,0.6-0.2,1.2-0.5,1.7c-0.2,0.5-0.5,1-0.8,1.4
			c-0.3,0.4-0.8,0.7-1.2,0.9c-0.5,0.2-1,0.3-1.6,0.3c-0.3,0-0.6,0-0.9-0.1c-0.3-0.1-0.5-0.2-0.7-0.3c-0.2-0.1-0.4-0.3-0.7-0.5
			c-0.2-0.2-0.4-0.4-0.7-0.6l1.4-1.6c0.3,0.3,0.5,0.4,0.7,0.6c0.2,0.1,0.5,0.2,0.8,0.2c0.3,0,0.6-0.1,0.8-0.2
			c0.2-0.1,0.4-0.3,0.6-0.6c0.2-0.2,0.3-0.5,0.4-0.8c0.1-0.3,0.2-0.6,0.2-0.9l1.1-7.2h-2.1V109h11.6v11.8h1.5v2.3h-5.3V120.8z"/>
		<path class="st2" d="M170.4,123.1h-10.1v-2.3h1.5v-9.5h-1.5V109h5.3v2.3h-1.5v3.2h6.4c0.6,0,1.1,0.1,1.6,0.3
			c0.5,0.2,1,0.5,1.3,0.9c0.4,0.4,0.7,0.8,0.9,1.4c0.2,0.5,0.3,1.1,0.3,1.7c0,0.6-0.1,1.2-0.3,1.7c-0.2,0.5-0.5,1-0.9,1.4
			c-0.4,0.4-0.8,0.7-1.4,0.9C171.6,122.9,171,123.1,170.4,123.1z M172.4,118.8c0-0.3-0.1-0.5-0.2-0.8c-0.1-0.2-0.3-0.4-0.4-0.6
			c-0.2-0.2-0.4-0.3-0.6-0.4c-0.2-0.1-0.5-0.2-0.8-0.2h-6.3v4h6.3c0.3,0,0.5-0.1,0.8-0.2c0.2-0.1,0.5-0.2,0.6-0.4
			c0.2-0.2,0.3-0.4,0.4-0.6C172.4,119.3,172.4,119,172.4,118.8z"/>
		<path class="st2" d="M178.8,112.9h-2.1v-4H192v4h-2.1l-0.2-1.7h-4.2v9.5h1.5v2.3h-5.3v-2.3h1.5v-9.5H179L178.8,112.9z"/>
		<path class="st2" d="M207.5,112.9h-2.1l-0.2-1.7H198v3.2h6v2.3h-6v4h7.4l0.2-1.7h2.1v4h-13.4v-2.3h1.5v-9.5h-1.5V109h13.2V112.9z"
			/>
		<path class="st2" d="M212.1,112.9H210v-4h15.3v4h-2.1l-0.2-1.7h-4.2v9.5h1.5v2.3H215v-2.3h1.5v-9.5h-4.2L212.1,112.9z"/>
		<path class="st2" d="M64.7,135.2h-1.5v9.5h1.5v2.3h-5.3v-2.3h1.5v-9.5h-0.8l-2.3,7.8h-3.9l-2.3-7.8h-0.8v9.5h1.5v2.3H47v-2.3h1.5
			v-9.5H47V133h6.3l2.3,7.8h0.5l2.3-7.8h6.3V135.2z"/>
		<path class="st2" d="M82.3,147.1H77v-2.3h1.4l-0.5-1.7H71l-0.5,1.7h1.4v2.3h-5.3v-2.3h1.5l2.8-9.5h-1.2V133h7.5l3.5,11.8h1.5
			V147.1z M71.6,140.8h5.5l-1.6-5.5h-2.2L71.6,140.8z"/>
		<path class="st2" d="M86.3,136.9h-2.1v-4h15.3v4h-2.1l-0.2-1.7h-4.2v9.5h1.5v2.3h-5.3v-2.3h1.5v-9.5h-4.2L86.3,136.9z"/>
		<path class="st2" d="M114.7,136.9h-2.1l-0.2-1.7h-7.2v3.2h6v2.3h-6v4h7.4l0.2-1.7h2.1v4h-13.4v-2.3h1.5v-9.5h-1.5V133h13.2V136.9z
			"/>
		<path class="st2" d="M134.7,135.2h-1.5v9.5h1.5v2.3h-5.3v-2.3h1.5v-9.5h-0.8l-2.3,7.8h-3.9l-2.3-7.8h-0.8v9.5h1.5v2.3H117v-2.3
			h1.5v-9.5H117V133h6.3l2.3,7.8h0.5l2.3-7.8h6.3V135.2z"/>
		<path class="st2" d="M152.3,147.1H147v-2.3h1.4l-0.5-1.7H141l-0.5,1.7h1.4v2.3h-5.3v-2.3h1.5l2.8-9.5h-1.2V133h7.5l3.5,11.8h1.5
			V147.1z M141.7,140.8h5.5l-1.6-5.5h-2.2L141.7,140.8z"/>
		<path class="st2" d="M156.3,136.9h-2.1v-4h15.3v4h-2.1l-0.2-1.7H163v9.5h1.5v2.3h-5.3v-2.3h1.5v-9.5h-4.2L156.3,136.9z"/>
		<path class="st2" d="M181.5,144.8h1.5v-9.5h-0.6l-5.2,11.8h-4.2v-11.8h-1.5V133h5.3v2.3h-1.5v9.5h0.6l5.2-11.8h5.7v2.3h-1.5v9.5
			h1.5v2.3h-5.3V144.8z"/>
		<path class="st2" d="M192.6,138.5h2.1c0.3,0,0.6-0.1,0.9-0.2c0.3-0.2,0.5-0.4,0.7-0.7l1.4-2.7c0.3-0.6,0.7-1,1.2-1.4
			c0.5-0.4,1.1-0.6,1.8-0.6c0.5,0,1,0.1,1.4,0.4c0.5,0.3,0.9,0.7,1.2,1.2l-1.5,1.5c-0.4-0.5-0.8-0.7-1.1-0.7c-0.2,0-0.4,0.1-0.6,0.2
			c-0.2,0.1-0.3,0.2-0.4,0.4l-1.3,2.6c-0.1,0.1-0.1,0.2-0.3,0.4c-0.1,0.1-0.2,0.3-0.3,0.4c-0.1,0.1-0.2,0.2-0.4,0.3
			c-0.1,0.1-0.2,0.1-0.3,0.2c0.1,0,0.2,0.1,0.3,0.1c0.1,0.1,0.2,0.2,0.4,0.3c0.1,0.1,0.2,0.2,0.3,0.3c0.1,0.1,0.2,0.2,0.2,0.3l1.4,3
			c0.2,0.4,0.3,0.7,0.6,0.9c0.2,0.2,0.5,0.3,1,0.3c0.4,0,0.6-0.1,0.8-0.2c0.2-0.1,0.4-0.3,0.7-0.6l1.4,1.6c-0.2,0.2-0.4,0.4-0.7,0.6
			c-0.2,0.2-0.4,0.3-0.7,0.5c-0.2,0.1-0.5,0.2-0.7,0.3c-0.3,0.1-0.6,0.1-0.9,0.1c-0.9,0-1.7-0.2-2.3-0.7c-0.6-0.5-1.1-1.2-1.5-2
			l-1.2-2.6c-0.1-0.3-0.4-0.6-0.7-0.8c-0.3-0.2-0.6-0.3-1-0.3h-2.1v4h1.5v2.3h-5.3v-2.3h1.5v-9.5h-1.5V133h5.3v2.3h-1.5V138.5z"/>
		<path class="st2" d="M216,144.8h1.5v-9.5H217l-5.2,11.8h-4.2v-11.8h-1.5V133h5.3v2.3h-1.5v9.5h0.6l5.2-11.8h5.7v2.3h-1.5v9.5h1.5
			v2.3H216V144.8z"/>
		<path class="st2" d="M241.1,144.8h1.5v-9.5H242l-5.2,11.8h-4.2v-11.8h-1.5V133h5.3v2.3h-1.5v9.5h0.6l5.2-11.8h5.7v2.3h-1.5v9.5
			h1.5v2.3h-5.3V144.8z"/>
		<path class="st2" d="M33.3,168.8h1.5v-9.5h-0.6l-5.2,11.8h-4.2v-11.8h-1.5V157h5.3v2.3h-1.5v9.5h0.6l5.2-11.8h5.7v2.3h-1.5v9.5
			h1.5v2.3h-5.3V168.8z"/>
		<path class="st2" d="M45.6,159.2h-1.5v3.2h7.7v-3.2h-1.5V157h5.3v2.3H54v9.5h1.5v2.3h-5.3v-2.3h1.5v-4h-7.7v4h1.5v2.3h-5.3v-2.3
			h1.5v-9.5h-1.5V157h5.3V159.2z"/>
		<path class="st2" d="M61.4,168.2c-0.6,0-1.1-0.1-1.6-0.3c-0.5-0.2-1-0.5-1.4-0.9c-0.4-0.4-0.7-0.8-0.9-1.4
			c-0.2-0.5-0.3-1.1-0.3-1.7c0-0.6,0.1-1.1,0.3-1.7c0.2-0.5,0.5-1,0.9-1.4c0.4-0.4,0.8-0.7,1.4-0.9c0.5-0.2,1.1-0.3,1.6-0.3h4.5
			v-0.5h-1.5V157h3.8v2.7h4.5c0.6,0,1.1,0.1,1.6,0.3c0.5,0.2,1,0.5,1.3,0.9c0.4,0.4,0.7,0.8,0.9,1.4c0.2,0.5,0.3,1.1,0.3,1.7
			c0,0.6-0.1,1.2-0.3,1.7c-0.2,0.5-0.5,1-0.9,1.4c-0.4,0.4-0.8,0.7-1.4,0.9c-0.5,0.2-1.1,0.3-1.6,0.3h-4.4v0.6h1.5v2.2h-5.3v-2.2
			h1.5v-0.6H61.4z M59.4,163.9c0,0.3,0.1,0.5,0.2,0.8c0.1,0.2,0.3,0.5,0.4,0.6c0.2,0.2,0.4,0.3,0.6,0.4c0.2,0.1,0.5,0.2,0.8,0.2h4.4
			v-4h-4.4c-0.3,0-0.5,0.1-0.8,0.2c-0.2,0.1-0.5,0.3-0.6,0.4c-0.2,0.2-0.3,0.4-0.4,0.6C59.5,163.4,59.4,163.6,59.4,163.9z
			 M74.6,163.9c0-0.3-0.1-0.5-0.2-0.8c-0.1-0.2-0.3-0.4-0.4-0.6c-0.2-0.2-0.4-0.3-0.6-0.4c-0.2-0.1-0.5-0.2-0.8-0.2h-4.4v4h4.4
			c0.3,0,0.5-0.1,0.8-0.2c0.2-0.1,0.5-0.2,0.6-0.4c0.2-0.2,0.3-0.4,0.4-0.6C74.5,164.5,74.6,164.2,74.6,163.9z"/>
		<path class="st2" d="M78.5,164c0-1.1,0.2-2.1,0.6-3c0.4-0.9,1-1.6,1.7-2.3c0.7-0.6,1.6-1.1,2.5-1.4c0.9-0.3,1.9-0.5,2.9-0.5
			c1.1,0,2.1,0.2,3,0.5c0.9,0.3,1.8,0.8,2.5,1.4c0.7,0.6,1.3,1.4,1.7,2.3c0.4,0.9,0.6,1.9,0.6,3c0,1.1-0.2,2.1-0.6,3
			c-0.4,0.9-1,1.6-1.7,2.3c-0.7,0.6-1.5,1.1-2.5,1.5c-0.9,0.3-1.9,0.5-3,0.5c-1,0-2-0.2-2.9-0.5c-0.9-0.3-1.8-0.8-2.5-1.4
			c-0.7-0.6-1.3-1.4-1.7-2.3C78.7,166.1,78.5,165.1,78.5,164z M86.3,159.1c-0.8,0-1.5,0.1-2.2,0.4c-0.7,0.2-1.2,0.6-1.7,1
			c-0.5,0.4-0.9,1-1.1,1.6c-0.3,0.6-0.4,1.3-0.4,2c0,0.7,0.1,1.4,0.4,2c0.3,0.6,0.7,1.1,1.1,1.6c0.5,0.4,1.1,0.8,1.7,1
			c0.7,0.2,1.4,0.4,2.2,0.4c0.8,0,1.6-0.1,2.3-0.4c0.7-0.2,1.2-0.6,1.7-1c0.5-0.4,0.8-1,1.1-1.6c0.3-0.6,0.4-1.3,0.4-2
			c0-0.7-0.1-1.4-0.4-2c-0.3-0.6-0.6-1.1-1.1-1.6c-0.5-0.4-1-0.8-1.7-1C87.9,159.2,87.2,159.1,86.3,159.1z"/>
		<path class="st2" d="M101.2,171.1h-5.3v-2.3h1.5v-9.5h-1.5V157h9c0.6,0,1.3,0.1,1.9,0.4c0.6,0.3,1.1,0.6,1.6,1.1
			c0.5,0.5,0.8,1,1.1,1.6c0.3,0.6,0.4,1.2,0.4,1.9c0,0.7-0.1,1.3-0.4,1.9c-0.3,0.6-0.6,1.2-1.1,1.6c-0.5,0.5-1,0.8-1.6,1.1
			c-0.6,0.3-1.2,0.4-1.9,0.4h-5.2v1.7h1.5V171.1z M107.5,162c0-0.4-0.1-0.7-0.2-1.1c-0.1-0.3-0.3-0.6-0.6-0.9
			c-0.2-0.2-0.5-0.4-0.9-0.6c-0.3-0.1-0.7-0.2-1.1-0.2h-5.1v5.5h5.2c0.4,0,0.7-0.1,1-0.2c0.3-0.1,0.6-0.3,0.8-0.6
			c0.2-0.3,0.4-0.5,0.6-0.9C107.5,162.7,107.5,162.4,107.5,162z"/>
		<path class="st2" d="M129.2,159.2h-1.5v9.5h1.5v2.3h-5.3v-2.3h1.5v-9.5h-0.8l-2.3,7.8h-3.9l-2.3-7.8h-0.8v9.5h1.5v2.3h-5.3v-2.3
			h1.5v-9.5h-1.5V157h6.3l2.3,7.8h0.5l2.3-7.8h6.3V159.2z"/>
		<path class="st2" d="M146.3,171.1h-5.3v-2.3h1.4l-0.5-1.7h-6.9l-0.5,1.7h1.4v2.3h-5.3v-2.3h1.5l2.8-9.5h-1.2V157h7.5l3.5,11.8h1.5
			V171.1z M135.7,164.8h5.5l-1.6-5.5h-2.2L135.7,164.8z"/>
		<path class="st2" d="M147.9,168.8h1.5v-9.5h-1.5V157h5.3v2.3h-1.5v9.5h7.7v-9.5h-1.5V157h5.3v2.3h-1.5v9.5h1.7v4.9h-2.1l-0.2-2.6
			h-13.2V168.8z"/>
		<path class="st2" d="M174.9,168.8h1.5v-9.5h-0.6l-5.2,11.8h-4.2v-11.8H165V157h5.3v2.3h-1.5v9.5h0.6l5.2-11.8h5.7v2.3h-1.5v9.5
			h1.5v2.3h-5.3V168.8z"/>
		<path class="st2" d="M181.9,164c0-1.1,0.2-2.1,0.6-3c0.4-0.9,1-1.6,1.7-2.3c0.7-0.6,1.6-1.1,2.5-1.4c0.9-0.3,1.9-0.5,2.9-0.5
			c1.1,0,2.1,0.2,3,0.5c0.9,0.3,1.8,0.8,2.5,1.4c0.7,0.6,1.3,1.4,1.7,2.3c0.4,0.9,0.6,1.9,0.6,3c0,1.1-0.2,2.1-0.6,3
			c-0.4,0.9-1,1.6-1.7,2.3c-0.7,0.6-1.5,1.1-2.5,1.5c-0.9,0.3-1.9,0.5-3,0.5c-1,0-2-0.2-2.9-0.5c-0.9-0.3-1.8-0.8-2.5-1.4
			c-0.7-0.6-1.3-1.4-1.7-2.3C182.2,166.1,181.9,165.1,181.9,164z M189.8,159.1c-0.8,0-1.5,0.1-2.2,0.4c-0.7,0.2-1.2,0.6-1.7,1
			c-0.5,0.4-0.9,1-1.1,1.6c-0.3,0.6-0.4,1.3-0.4,2c0,0.7,0.1,1.4,0.4,2c0.3,0.6,0.7,1.1,1.1,1.6c0.5,0.4,1.1,0.8,1.7,1
			c0.7,0.2,1.4,0.4,2.2,0.4c0.8,0,1.6-0.1,2.3-0.4c0.7-0.2,1.2-0.6,1.7-1c0.5-0.4,0.8-1,1.1-1.6c0.3-0.6,0.4-1.3,0.4-2
			c0-0.7-0.1-1.4-0.4-2c-0.3-0.6-0.6-1.1-1.1-1.6c-0.5-0.4-1-0.8-1.7-1C191.3,159.2,190.6,159.1,189.8,159.1z"/>
		<path class="st2" d="M204.6,159.2h-1.5v3.2h7.7v-3.2h-1.5V157h5.3v2.3h-1.5v9.5h1.5v2.3h-5.3v-2.3h1.5v-4h-7.7v4h1.5v2.3h-5.3
			v-2.3h1.5v-9.5h-1.5V157h5.3V159.2z"/>
		<path class="st2" d="M221.5,159.2H220v3.2h7.7v-3.2h-1.5V157h5.3v2.3H230v9.5h1.5v2.3h-5.3v-2.3h1.5v-4H220v4h1.5v2.3h-5.3v-2.3
			h1.5v-9.5h-1.5V157h5.3V159.2z"/>
		<path class="st2" d="M242.3,171.1h-9.1v-2.3h1.5v-9.5h-1.5V157h5.3v2.3h-1.5v3.2h5.4c0.6,0,1.1,0.1,1.6,0.3c0.5,0.2,1,0.5,1.3,0.9
			c0.4,0.4,0.7,0.8,0.9,1.4c0.2,0.5,0.3,1.1,0.3,1.7c0,0.6-0.1,1.2-0.3,1.7c-0.2,0.5-0.5,1-0.9,1.4c-0.4,0.4-0.8,0.7-1.4,0.9
			S242.9,171.1,242.3,171.1z M244.3,166.8c0-0.3-0.1-0.5-0.2-0.8c-0.1-0.2-0.3-0.4-0.4-0.6c-0.2-0.2-0.4-0.3-0.6-0.4
			c-0.2-0.1-0.5-0.2-0.8-0.2h-5.4v4h5.4c0.3,0,0.5-0.1,0.8-0.2c0.2-0.1,0.5-0.2,0.6-0.4c0.2-0.2,0.3-0.4,0.4-0.6
			C244.3,167.3,244.3,167,244.3,166.8z M252.5,159.2H251v9.5h1.5v2.3h-5.3v-2.3h1.5v-9.5h-1.5V157h5.3V159.2z"/>
		<path class="st2" d="M263.9,157h5.3v2.3h-1.6l-2.5,4.5l3.2,5h1.7v2.3h-5.3v-2.3h1l-2.4-3.8h-2.3l-2.4,3.8h1v2.3h-5.3v-2.3h1.7
			l3.2-5l-2.5-4.5H255V157h5.3v2.3h-1.1l1.8,3.4h2.2l1.8-3.4h-1.1V157z"/>
		<path class="st2" d="M63.8,184.9h-2.1v-4H77v4H75l-0.2-1.7h-4.2v9.5H72v2.3h-5.3v-2.3h1.5v-9.5H64L63.8,184.9z"/>
		<path class="st2" d="M92.3,184.9h-2.1l-0.2-1.7h-7.2v3.2h6v2.3h-6v4h7.4l0.2-1.7h2.1v4H79.1v-2.3h1.5v-9.5h-1.5V181h13.2V184.9z"
			/>
		<path class="st2" d="M104.3,181h5.3v2.3H108l-2.5,4.5l3.2,5h1.7v2.3h-5.3v-2.3h1l-2.4-3.8h-2.3l-2.4,3.8h1v2.3h-5.3v-2.3h1.7
			l3.2-5l-2.5-4.5h-1.6V181h5.3v2.3h-1.1l1.8,3.4h2.2l1.8-3.4h-1.1V181z"/>
		<path class="st2" d="M117.7,183.2h-1.5v3.2h7.7v-3.2h-1.5V181h5.3v2.3h-1.5v9.5h1.5v2.3h-5.3v-2.3h1.5v-4h-7.7v4h1.5v2.3h-5.3
			v-2.3h1.5v-9.5h-1.5V181h5.3V183.2z"/>
		<path class="st2" d="M129.8,188c0-1.1,0.2-2.1,0.6-3c0.4-0.9,1-1.6,1.7-2.3c0.7-0.6,1.6-1.1,2.5-1.4c0.9-0.3,1.9-0.5,2.9-0.5
			c1.1,0,2.1,0.2,3,0.5c0.9,0.3,1.8,0.8,2.5,1.4c0.7,0.6,1.3,1.4,1.7,2.3c0.4,0.9,0.6,1.9,0.6,3c0,1.1-0.2,2.1-0.6,3s-1,1.6-1.7,2.3
			c-0.7,0.6-1.5,1.1-2.5,1.5c-0.9,0.3-1.9,0.5-3,0.5c-1,0-2-0.2-2.9-0.5c-0.9-0.3-1.8-0.8-2.5-1.4c-0.7-0.6-1.3-1.4-1.7-2.3
			C130,190.1,129.8,189.1,129.8,188z M137.6,183.1c-0.8,0-1.5,0.1-2.2,0.4c-0.7,0.2-1.2,0.6-1.7,1c-0.5,0.4-0.9,1-1.2,1.6
			c-0.3,0.6-0.4,1.3-0.4,2c0,0.7,0.1,1.4,0.4,2c0.3,0.6,0.7,1.1,1.2,1.6c0.5,0.4,1.1,0.8,1.7,1c0.7,0.2,1.4,0.4,2.2,0.4
			c0.8,0,1.6-0.1,2.3-0.4c0.7-0.2,1.2-0.6,1.7-1c0.5-0.4,0.8-1,1.1-1.6c0.3-0.6,0.4-1.3,0.4-2c0-0.7-0.1-1.4-0.4-2
			c-0.3-0.6-0.6-1.1-1.1-1.6c-0.5-0.4-1-0.8-1.7-1C139.2,183.2,138.4,183.1,137.6,183.1z"/>
		<path class="st2" d="M158.7,192.8h1.5v-9.5h-5l-1.1,7.6c-0.1,0.6-0.2,1.2-0.5,1.7c-0.2,0.5-0.5,1-0.8,1.4
			c-0.3,0.4-0.8,0.7-1.2,0.9c-0.5,0.2-1,0.3-1.6,0.3c-0.3,0-0.6,0-0.9-0.1c-0.3-0.1-0.5-0.2-0.7-0.3c-0.2-0.1-0.4-0.3-0.7-0.5
			s-0.4-0.4-0.7-0.6l1.4-1.6c0.3,0.3,0.5,0.4,0.7,0.6c0.2,0.1,0.5,0.2,0.8,0.2c0.3,0,0.6-0.1,0.8-0.2c0.2-0.1,0.4-0.3,0.6-0.6
			c0.2-0.2,0.3-0.5,0.4-0.8c0.1-0.3,0.2-0.6,0.2-0.9l1.1-7.2h-2.1V181h11.6v11.8h1.5v2.3h-5.3V192.8z"/>
		<path class="st2" d="M166.1,188c0-1.1,0.2-2.1,0.6-3c0.4-0.9,1-1.6,1.7-2.3c0.7-0.6,1.6-1.1,2.5-1.4c0.9-0.3,1.9-0.5,2.9-0.5
			c1.1,0,2.1,0.2,3,0.5c0.9,0.3,1.8,0.8,2.5,1.4c0.7,0.6,1.3,1.4,1.7,2.3c0.4,0.9,0.6,1.9,0.6,3c0,1.1-0.2,2.1-0.6,3
			c-0.4,0.9-1,1.6-1.7,2.3c-0.7,0.6-1.5,1.1-2.5,1.5c-0.9,0.3-1.9,0.5-3,0.5c-1,0-2-0.2-2.9-0.5c-0.9-0.3-1.8-0.8-2.5-1.4
			c-0.7-0.6-1.3-1.4-1.7-2.3C166.3,190.1,166.1,189.1,166.1,188z M173.9,183.1c-0.8,0-1.5,0.1-2.2,0.4c-0.7,0.2-1.2,0.6-1.7,1
			c-0.5,0.4-0.9,1-1.1,1.6c-0.3,0.6-0.4,1.3-0.4,2c0,0.7,0.1,1.4,0.4,2c0.3,0.6,0.7,1.1,1.1,1.6c0.5,0.4,1.1,0.8,1.7,1
			c0.7,0.2,1.4,0.4,2.2,0.4c0.8,0,1.6-0.1,2.3-0.4c0.7-0.2,1.2-0.6,1.7-1c0.5-0.4,0.8-1,1.1-1.6c0.3-0.6,0.4-1.3,0.4-2
			c0-0.7-0.1-1.4-0.4-2c-0.3-0.6-0.6-1.1-1.1-1.6c-0.5-0.4-1-0.8-1.7-1C175.5,183.2,174.7,183.1,173.9,183.1z"/>
		<path class="st2" d="M197.3,184.9h-2.1l-0.2-1.7h-7.4v9.5h1.5v2.3h-5.3v-2.3h1.5v-9.5h-1.5V181h13.4V184.9z"/>
		<path class="st2" d="M209,192.8h1.5v-9.5h-0.6l-5.2,11.8h-4.2v-11.8h-1.5V181h5.3v2.3h-1.5v9.5h0.6l5.2-11.8h5.7v2.3h-1.5v9.5h1.5
			v2.3H209V192.8z"/>
		<path class="st2" d="M226.3,192.8h1.5v-9.5h-0.6l-5.2,11.8h-4.2v-11.8h-1.5V181h5.3v2.3h-1.5v9.5h0.6l5.2-11.8h5.7v2.3h-1.5v9.5
			h1.5v2.3h-5.3V192.8z M223.9,179.7c-0.7,0-1.3-0.1-1.9-0.4c-0.6-0.2-1.1-0.6-1.6-1.1l1-1.3c0.1,0.1,0.3,0.2,0.5,0.3
			c0.2,0.1,0.4,0.2,0.6,0.2c0.2,0.1,0.5,0.1,0.7,0.2c0.2,0,0.4,0,0.6,0c0.2,0,0.4,0,0.6,0c0.2,0,0.5-0.1,0.7-0.2
			c0.2-0.1,0.5-0.2,0.7-0.2c0.2-0.1,0.4-0.2,0.5-0.3l1,1.3c-0.5,0.5-1,0.8-1.6,1.1C225.2,179.6,224.6,179.7,223.9,179.7z"/>
	</g>
	<path class="st0" d="M187.4,68.9h38.8V30.2h-38.8V68.9z M189.8,61.7h2.4v-4.8h-2.4V52h4.8v2.4h2.4v-9.6h-2.4v2.4h-4.8v-4.9h2.4
		v-4.8h-2.4v-4.9h4.8V35h4.8v-2.4h4.8v4.8h-2.4v2.4h9.7v-2.4h-2.4v-4.8h4.8V35h4.8v-2.4h4.8v4.8h-2.4v4.8h2.4V47h-4.7v-2.4h-2.4v9.7
		h2.4v-2.4h4.8v4.9h-2.4v4.8h2.4v4.8h-4.8V64H214v2.4h-4.9v-4.8h2.4v-2.4h-9.6v2.4h2.4v4.8h-4.9v-2.4h-4.8v2.4h-4.9V61.7z"/>
	<rect x="204.3" y="72" class="st0" width="4.8" height="7.7"/>
</g>
</svg>
